<svg width="92" height="48" viewBox="0 0 92 48" fill="none" xmlns="http://www.w3.org/2000/svg">
<path d="M2.31676 5.90909H1.70028L0.427557 6.75426V7.38068L1.67045 6.5554H1.70028V11H2.31676V5.90909ZM5.3718 11.0696C6.34126 11.0696 7.0522 10.3537 7.0522 9.37926C7.0522 8.3924 6.36612 7.66903 5.43146 7.66903C5.08842 7.66903 4.75533 7.79084 4.54652 7.95739H4.51669L4.69567 6.45597H6.82351V5.90909H4.17862L3.87038 8.41477L4.44709 8.48438C4.65838 8.33274 5.01882 8.22337 5.33203 8.22585C5.98082 8.23082 6.45561 8.72301 6.45561 9.3892C6.45561 10.043 5.99822 10.5227 5.3718 10.5227C4.84979 10.5227 4.43466 10.1871 4.38743 9.72727H3.79084C3.82812 10.5028 4.4968 11.0696 5.3718 11.0696Z" fill="black"/>
<path d="M4.1179 30.0696C5.08736 30.0696 5.7983 29.3537 5.7983 28.3793C5.7983 27.3924 5.11222 26.669 4.17756 26.669C3.83452 26.669 3.50142 26.7908 3.29261 26.9574H3.26278L3.44176 25.456H5.5696V24.9091H2.92472L2.61648 27.4148L3.19318 27.4844C3.40447 27.3327 3.76491 27.2234 4.07812 27.2259C4.72692 27.2308 5.2017 27.723 5.2017 28.3892C5.2017 29.043 4.74432 29.5227 4.1179 29.5227C3.59588 29.5227 3.18075 29.1871 3.13352 28.7273H2.53693C2.57422 29.5028 3.2429 30.0696 4.1179 30.0696Z" fill="black"/>
<path d="M9 30L38 30" stroke="black" stroke-width="0.25" stroke-dasharray="0.5 0.5"/>
<path d="M38 1H75V8H38" fill="#FAFAFA"/>
<path d="M38 1H75V8H38V1Z" stroke="black" stroke-width="0.5" stroke-miterlimit="10"/>
<path d="M75 11H38V47H75V11Z" fill="#FAFAFA" stroke="black" stroke-width="0.5" stroke-miterlimit="3.6961"/>
<path d="M55 47V30H46.5H38V47H55Z" stroke="black" stroke-width="0.25" stroke-miterlimit="3.6961" stroke-dasharray="1 1"/>
<path d="M9 11L45 11" stroke="black" stroke-width="0.25" stroke-dasharray="0.5 0.5"/>
<path d="M75 4H92" stroke="black" stroke-width="0.2" stroke-dasharray="0.4 0.4"/>
</svg>
