<svg width="71" height="34" viewBox="0 0 71 34" fill="none" xmlns="http://www.w3.org/2000/svg">
<path d="M0 4H17" stroke="black" stroke-width="0.2" stroke-dasharray="0.4 0.4"/>
<path d="M33.0781 8.51136C33.9929 8.51136 34.7287 8.09375 34.7287 7.10938V3.18182H34.1619V3.78835H34.1023C33.973 3.58949 33.7344 3.1321 32.9886 3.1321C32.0241 3.1321 31.358 3.89773 31.358 5.07102C31.358 6.2642 32.054 6.94034 32.9787 6.94034C33.7244 6.94034 33.9631 6.50284 34.0923 6.29403H34.142V7.0696C34.142 7.70597 33.6946 7.99432 33.0781 7.99432C32.3846 7.99432 32.141 7.62891 31.9844 7.41761L31.517 7.74574C31.7557 8.14595 32.2255 8.51136 33.0781 8.51136ZM33.0582 6.41335C32.3224 6.41335 31.9446 5.85653 31.9446 5.06108C31.9446 4.28551 32.3125 3.65909 33.0582 3.65909C33.7741 3.65909 34.152 4.2358 34.152 5.06108C34.152 5.90625 33.7642 6.41335 33.0582 6.41335ZM38.2088 5.43892C38.2088 6.15483 37.6619 6.48295 37.2244 6.48295C36.7372 6.48295 36.3892 6.125 36.3892 5.56818V3.18182H35.8026V5.60795C35.8026 6.58239 36.3196 7.04972 37.0355 7.04972C37.6122 7.04972 37.9901 6.74148 38.169 6.35369H38.2088V7H38.7955V3.18182H38.2088V5.43892ZM39.8699 7H40.4566V3.18182H39.8699V7ZM40.1682 2.54545C40.3969 2.54545 40.5858 2.36648 40.5858 2.14773C40.5858 1.92898 40.3969 1.75 40.1682 1.75C39.9395 1.75 39.7506 1.92898 39.7506 2.14773C39.7506 2.36648 39.9395 2.54545 40.1682 2.54545ZM42.9728 7.07955C43.7086 7.07955 43.9572 6.62216 44.0865 6.41335H44.1561V7H44.7228V1.90909H44.1362V3.78835H44.0865C43.9572 3.58949 43.7285 3.1321 42.9828 3.1321C42.0183 3.1321 41.3521 3.89773 41.3521 5.10085C41.3521 6.31392 42.0183 7.07955 42.9728 7.07955ZM43.0524 6.55256C42.3166 6.55256 41.9387 5.90625 41.9387 5.09091C41.9387 4.28551 42.3066 3.65909 43.0524 3.65909C43.7683 3.65909 44.1461 4.2358 44.1461 5.09091C44.1461 5.95597 43.7583 6.55256 43.0524 6.55256ZM47.4796 7.07955C48.2551 7.07955 48.8219 6.69176 49.0009 6.11506L48.4341 5.95597C48.285 6.35369 47.9395 6.55256 47.4796 6.55256C46.791 6.55256 46.3162 6.1076 46.2889 5.28977H49.0605V5.04119C49.0605 3.61932 48.2154 3.1321 47.4199 3.1321C46.3858 3.1321 45.6998 3.94744 45.6998 5.12074C45.6998 6.29403 46.3759 7.07955 47.4796 7.07955ZM46.2889 4.78267C46.3287 4.18857 46.7488 3.65909 47.4199 3.65909C48.0563 3.65909 48.464 4.13636 48.464 4.78267H46.2889ZM51.3947 7.07955C52.1305 7.07955 52.3791 6.62216 52.5083 6.41335H52.5779V7H53.1447V1.90909H52.5581V3.78835H52.5083C52.3791 3.58949 52.1504 3.1321 51.4047 3.1321C50.4402 3.1321 49.774 3.89773 49.774 5.10085C49.774 6.31392 50.4402 7.07955 51.3947 7.07955ZM51.4743 6.55256C50.7385 6.55256 50.3606 5.90625 50.3606 5.09091C50.3606 4.28551 50.7285 3.65909 51.4743 3.65909C52.1902 3.65909 52.568 4.2358 52.568 5.09091C52.568 5.95597 52.1802 6.55256 51.4743 6.55256Z" fill="black"/>
<path d="M17 7L28 7V1L17 1V7Z" fill="black" stroke="black" stroke-width="0.5" stroke-miterlimit="10"/>
<path d="M33.0881 20.0795C34.1222 20.0795 34.8182 19.294 34.8182 18.1108C34.8182 16.9176 34.1222 16.1321 33.0881 16.1321C32.054 16.1321 31.358 16.9176 31.358 18.1108C31.358 19.294 32.054 20.0795 33.0881 20.0795ZM33.0881 19.5526C32.3026 19.5526 31.9446 18.8764 31.9446 18.1108C31.9446 17.3452 32.3026 16.6591 33.0881 16.6591C33.8736 16.6591 34.2315 17.3452 34.2315 18.1108C34.2315 18.8764 33.8736 19.5526 33.0881 19.5526ZM35.7137 21.4318H36.3003V19.4134H36.3501C36.4793 19.6222 36.7279 20.0795 37.4637 20.0795C38.4182 20.0795 39.0844 19.3139 39.0844 18.1009C39.0844 16.8977 38.4182 16.1321 37.4537 16.1321C36.708 16.1321 36.4793 16.5895 36.3501 16.7884H36.2805V16.1818H35.7137V21.4318ZM36.2904 18.0909C36.2904 17.2358 36.6682 16.6591 37.3841 16.6591C38.1299 16.6591 38.4978 17.2855 38.4978 18.0909C38.4978 18.9062 38.1199 19.5526 37.3841 19.5526C36.6782 19.5526 36.2904 18.956 36.2904 18.0909ZM41.5802 20.0795C42.3557 20.0795 42.9225 19.6918 43.1015 19.1151L42.5347 18.956C42.3856 19.3537 42.04 19.5526 41.5802 19.5526C40.8916 19.5526 40.4168 19.1076 40.3895 18.2898H43.1611V18.0412C43.1611 16.6193 42.316 16.1321 41.5205 16.1321C40.4864 16.1321 39.8003 16.9474 39.8003 18.1207C39.8003 19.294 40.4765 20.0795 41.5802 20.0795ZM40.3895 17.7827C40.4292 17.1886 40.8493 16.6591 41.5205 16.6591C42.1569 16.6591 42.5645 17.1364 42.5645 17.7827H40.3895ZM44.6402 17.7031C44.6402 17.0369 45.0528 16.6591 45.6146 16.6591C46.159 16.6591 46.4896 17.0146 46.4896 17.6136V20H47.0763V17.5739C47.0763 16.5994 46.5567 16.1321 45.7836 16.1321C45.2069 16.1321 44.849 16.3906 44.67 16.7784H44.6203V16.1818H44.0535V20H44.6402V17.7031ZM51.7179 20.0795C52.4934 20.0795 53.0602 19.6918 53.2392 19.1151L52.6724 18.956C52.5233 19.3537 52.1777 19.5526 51.7179 19.5526C51.0293 19.5526 50.5545 19.1076 50.5272 18.2898H53.2988V18.0412C53.2988 16.6193 52.4537 16.1321 51.6582 16.1321C50.6241 16.1321 49.938 16.9474 49.938 18.1207C49.938 19.294 50.6142 20.0795 51.7179 20.0795ZM50.5272 17.7827C50.5669 17.1886 50.987 16.6591 51.6582 16.6591C52.2946 16.6591 52.7022 17.1364 52.7022 17.7827H50.5272ZM54.7779 17.7031C54.7779 17.0369 55.1905 16.6591 55.7523 16.6591C56.2967 16.6591 56.6273 17.0146 56.6273 17.6136V20H57.214V17.5739C57.214 16.5994 56.6944 16.1321 55.9213 16.1321C55.3446 16.1321 54.9867 16.3906 54.8077 16.7784H54.758V16.1818H54.1912V20H54.7779V17.7031ZM59.7277 20.0795C60.4635 20.0795 60.7121 19.6222 60.8414 19.4134H60.911V20H61.4777V14.9091H60.8911V16.7884H60.8414C60.7121 16.5895 60.4834 16.1321 59.7377 16.1321C58.7732 16.1321 58.107 16.8977 58.107 18.1009C58.107 19.3139 58.7732 20.0795 59.7277 20.0795ZM59.8073 19.5526C59.0715 19.5526 58.6936 18.9062 58.6936 18.0909C58.6936 17.2855 59.0615 16.6591 59.8073 16.6591C60.5232 16.6591 60.901 17.2358 60.901 18.0909C60.901 18.956 60.5132 19.5526 59.8073 19.5526ZM64.2345 20.0795C65.01 20.0795 65.5768 19.6918 65.7558 19.1151L65.189 18.956C65.0399 19.3537 64.6943 19.5526 64.2345 19.5526C63.5459 19.5526 63.0711 19.1076 63.0438 18.2898H65.8154V18.0412C65.8154 16.6193 64.9703 16.1321 64.1748 16.1321C63.1407 16.1321 62.4546 16.9474 62.4546 18.1207C62.4546 19.294 63.1308 20.0795 64.2345 20.0795ZM63.0438 17.7827C63.0835 17.1886 63.5036 16.6591 64.1748 16.6591C64.8112 16.6591 65.2188 17.1364 65.2188 17.7827H63.0438ZM68.1496 20.0795C68.8854 20.0795 69.134 19.6222 69.2632 19.4134H69.3328V20H69.8996V14.9091H69.3129V16.7884H69.2632C69.134 16.5895 68.9053 16.1321 68.1595 16.1321C67.195 16.1321 66.5289 16.8977 66.5289 18.1009C66.5289 19.3139 67.195 20.0795 68.1496 20.0795ZM68.2291 19.5526C67.4933 19.5526 67.1155 18.9062 67.1155 18.0909C67.1155 17.2855 67.4834 16.6591 68.2291 16.6591C68.945 16.6591 69.3229 17.2358 69.3229 18.0909C69.3229 18.956 68.9351 19.5526 68.2291 19.5526Z" fill="black"/>
<path d="M17 20L28 20V14L17 14V20Z" fill="#FAFAFA" stroke="black" stroke-width="0.5" stroke-miterlimit="10"/>
<path d="M31.5369 33H32.1236V30.6136C32.1236 30.0543 32.5312 29.6591 32.9886 29.6591C33.4336 29.6591 33.7443 29.9499 33.7443 30.3849V33H34.3409V30.5142C34.3409 30.022 34.6491 29.6591 35.1861 29.6591C35.6037 29.6591 35.9616 29.8803 35.9616 30.4446V33H36.5483V30.4446C36.5483 29.5472 36.0661 29.1321 35.3849 29.1321C34.8381 29.1321 34.4379 29.3832 34.2415 29.7784H34.2017C34.0128 29.3707 33.6797 29.1321 33.1776 29.1321C32.6804 29.1321 32.3125 29.3707 32.1534 29.7784H32.1037V29.1818H31.5369V33ZM37.6209 33H38.2076V29.1818H37.6209V33ZM37.9192 28.5455C38.1479 28.5455 38.3368 28.3665 38.3368 28.1477C38.3368 27.929 38.1479 27.75 37.9192 27.75C37.6905 27.75 37.5016 27.929 37.5016 28.1477C37.5016 28.3665 37.6905 28.5455 37.9192 28.5455ZM39.7195 29.1818H39.0434L40.2565 31.0909L39.0434 33H39.7195L40.6343 31.5185L41.5491 33H42.2252L40.9923 31.0909L42.2252 29.1818H41.5491L40.6343 30.7429L39.7195 29.1818ZM44.6632 33.0795C45.4387 33.0795 46.0055 32.6918 46.1845 32.1151L45.6177 31.956C45.4686 32.3537 45.123 32.5526 44.6632 32.5526C43.9746 32.5526 43.4998 32.1076 43.4725 31.2898H46.2441V31.0412C46.2441 29.6193 45.399 29.1321 44.6035 29.1321C43.5694 29.1321 42.8833 29.9474 42.8833 31.1207C42.8833 32.294 43.5595 33.0795 44.6632 33.0795ZM43.4725 30.7827C43.5123 30.1886 43.9324 29.6591 44.6035 29.6591C45.2399 29.6591 45.6475 30.1364 45.6475 30.7827H43.4725ZM48.5783 33.0795C49.3141 33.0795 49.5627 32.6222 49.6919 32.4134H49.7615V33H50.3283V27.9091H49.7417V29.7884H49.6919C49.5627 29.5895 49.334 29.1321 48.5882 29.1321C47.6238 29.1321 46.9576 29.8977 46.9576 31.1009C46.9576 32.3139 47.6238 33.0795 48.5783 33.0795ZM48.6578 32.5526C47.9221 32.5526 47.5442 31.9062 47.5442 31.0909C47.5442 30.2855 47.9121 29.6591 48.6578 29.6591C49.3738 29.6591 49.7516 30.2358 49.7516 31.0909C49.7516 31.956 49.3638 32.5526 48.6578 32.5526Z" fill="black"/>
<path d="M17 33H28V27L17 27V33Z" fill="#5C5C5C" stroke="black" stroke-width="0.5" stroke-miterlimit="10"/>
</svg>
