<svg width="377" height="104" viewBox="0 0 377 104" fill="none" xmlns="http://www.w3.org/2000/svg">
<g clip-path="url(#clip0_718_794)">
<path d="M224.875 100.908L123.625 22.9082M63 100.908L288 26.0789" stroke="#E0E0E0" stroke-width="0.5"/>
<path d="M287 30.9981L239 30.9082" stroke="black" stroke-width="0.5"/>
<g filter="url(#filter0_d_718_794)">
<rect x="0.0868431" y="0.18942" width="44.5419" height="5.16163" transform="matrix(1 0 -0.652628 0.757679 231.907 28.8134)" fill="#FAFAFA" stroke="black" stroke-width="0.5"/>
<rect x="0.0868431" y="0.18942" width="44.5419" height="54.7009" transform="matrix(1 0 -0.652628 0.757679 229.135 32.0306)" fill="#FAFAFA" stroke="black" stroke-width="0.5"/>
</g>
<rect x="0.0868431" y="0.18942" width="162.151" height="102.095" transform="matrix(1 0 -0.652628 0.757679 129.443 22.5575)" stroke="black" stroke-width="0.5"/>
<path d="M85 81L11 80.9998C8.23858 80.9998 6.00001 78.7613 6.00001 75.9998L6 21" stroke="black" stroke-width="0.5"/>
<g filter="url(#filter1_d_718_794)">
<rect x="0.0868431" y="0.18942" width="44.5419" height="6.10524" transform="matrix(1 0 -0.652628 0.757679 129.311 28.8134)" fill="#FAFAFA" stroke="black" stroke-width="0.5"/>
<rect x="0.0868431" y="0.18942" width="44.5419" height="63.9011" transform="matrix(1 0 -0.652628 0.757679 126.078 32.5669)" fill="#FAFAFA" stroke="black" stroke-width="0.5"/>
</g>
<path d="M248 85H229" stroke="black" stroke-width="0.5"/>
<path d="M238 98H223" stroke="black" stroke-width="0.5"/>
<path d="M278 44.0059L256 44.1361" stroke="black" stroke-width="0.25"/>
<path d="M268 55H247" stroke="black" stroke-width="0.25"/>
<path d="M259 67.013L240 67.1361" stroke="black" stroke-width="0.25"/>
<g filter="url(#filter2_d_718_794)">
<rect width="40.2652" height="11.5592" transform="matrix(1 0 -0.652628 0.757679 220.048 40)" fill="#FAFAFA"/>
<rect x="0.0434216" y="0.0947099" width="40.0152" height="11.3092" transform="matrix(1 0 -0.652628 0.757679 220.109 40.023)" stroke="black" stroke-width="0.25"/>
</g>
<g filter="url(#filter3_d_718_794)">
<rect width="40.2652" height="11.5592" transform="matrix(1 0 -0.652628 0.757679 212.292 50.0094)" fill="#FAFAFA"/>
<rect x="0.0434216" y="0.0947099" width="40.0152" height="11.3092" transform="matrix(1 0 -0.652628 0.757679 212.354 50.0323)" stroke="black" stroke-width="0.25"/>
</g>
<g filter="url(#filter4_d_718_794)">
<rect width="45.0419" height="6.25581" transform="matrix(1 0 -0.652628 0.757679 197.083 65.1361)" fill="#FAFAFA"/>
<rect x="0.0434216" y="0.0947099" width="44.7919" height="6.00581" transform="matrix(1 0 -0.652628 0.757679 197.145 65.1591)" stroke="black" stroke-width="0.25"/>
</g>
<g filter="url(#filter5_d_718_794)">
<rect width="32.5302" height="21.2698" transform="matrix(1 0 -0.652628 0.757679 205.114 77.5629)" fill="#FAFAFA"/>
<rect x="0.0868431" y="0.18942" width="32.0302" height="20.7698" transform="matrix(1 0 -0.652628 0.757679 205.237 77.6088)" stroke="black" stroke-width="0.5"/>
</g>
<g filter="url(#filter6_d_718_794)">
<rect width="162.651" height="3.30262" transform="matrix(1 0 -0.652628 0.757679 64.3775 96.3302)" fill="#FAFAFA"/>
<rect x="0.0868431" y="0.18942" width="162.151" height="2.80262" transform="matrix(1 0 -0.652628 0.757679 64.5011 96.3761)" stroke="black" stroke-width="0.5"/>
</g>
<path d="M226 12L219 12" stroke="black" stroke-width="0.5"/>
<g filter="url(#filter7_d_718_794)">
<rect width="162.651" height="5.00465" transform="matrix(1 0 -0.652628 0.757679 129.266 20)" fill="#FAFAFA"/>
<rect x="0.0868431" y="0.18942" width="162.151" height="4.50465" transform="matrix(1 0 -0.652628 0.757679 129.39 20.0459)" stroke="black" stroke-width="0.5"/>
</g>
<path d="M240.359 10.7273H240.87C240.847 10.0689 240.24 9.5767 239.396 9.5767C238.561 9.5767 237.905 10.0625 237.905 10.7955C237.905 11.3835 238.331 11.733 239.013 11.929L239.549 12.0824C240.01 12.2102 240.419 12.3722 240.419 12.8068C240.419 13.2841 239.959 13.5994 239.353 13.5994C238.834 13.5994 238.373 13.3693 238.331 12.875H237.785C237.836 13.5909 238.416 14.0767 239.353 14.0767C240.359 14.0767 240.93 13.5227 240.93 12.8153C240.93 11.9972 240.155 11.733 239.703 11.6136L239.26 11.4943C238.936 11.4091 238.416 11.2386 238.416 10.7699C238.416 10.3523 238.799 10.0455 239.379 10.0455C239.907 10.0455 240.308 10.2969 240.359 10.7273ZM241.799 14H244.467V13.5312H242.327V12.0483H244.296V11.5795H242.327V10.1051H244.432V9.63636H241.799V14ZM245.564 14L246.003 12.7642H247.767L248.206 14H248.76L247.158 9.63636H246.612L245.01 14H245.564ZM246.169 12.2955L246.868 10.3267H246.902L247.601 12.2955H246.169ZM249.44 14H249.968V12.2955H250.922C250.961 12.2955 250.997 12.2955 251.033 12.2933L251.954 14H252.567L251.581 12.1974C252.137 12.0078 252.397 11.554 252.397 10.9744C252.397 10.2031 251.937 9.63636 250.914 9.63636H249.44V14ZM249.968 11.8182V10.1051H250.897C251.604 10.1051 251.877 10.4503 251.877 10.9744C251.877 11.4986 251.604 11.8182 250.905 11.8182H249.968ZM256.789 11C256.627 10.1051 255.911 9.5767 255.033 9.5767C253.917 9.5767 253.107 10.4375 253.107 11.8182C253.107 13.1989 253.917 14.0597 255.033 14.0597C255.911 14.0597 256.627 13.5312 256.789 12.6364H256.26C256.133 13.2415 255.613 13.5653 255.033 13.5653C254.241 13.5653 253.618 12.9517 253.618 11.8182C253.618 10.6847 254.241 10.071 255.033 10.071C255.613 10.071 256.133 10.3949 256.26 11H256.789ZM257.643 14H258.171V12.0483H260.498V14H261.026V9.63636H260.498V11.5795H258.171V9.63636H257.643V14Z" fill="black"/>
<path d="M237.444 15.1932H261.555V15.6023H237.444V15.1932Z" fill="black"/>
<path d="M279.483 45H279.815V43.6097H280.662C281.431 43.6097 281.828 43.1214 281.828 42.4858C281.828 41.8501 281.431 41.3636 280.657 41.3636H279.483V45ZM279.815 43.3114V41.6619H280.648C281.223 41.6619 281.502 42.0082 281.502 42.4858C281.502 42.9616 281.223 43.3114 280.653 43.3114H279.815ZM282.608 45H282.94V43.5298H283.787C283.835 43.5298 283.881 43.5281 283.925 43.5245L284.723 45H285.106L284.266 43.4606C284.719 43.3114 284.953 42.9386 284.953 42.4521C284.953 41.8164 284.554 41.3636 283.782 41.3636H282.608V45ZM282.94 43.2262V41.6619H283.773C284.348 41.6619 284.627 41.9762 284.627 42.4521C284.627 42.9279 284.348 43.2262 283.778 43.2262H282.94ZM288.743 43.1818C288.743 42.0437 288.09 41.3139 287.17 41.3139C286.252 41.3139 285.599 42.0455 285.599 43.1818C285.599 44.3182 286.251 45.0497 287.17 45.0497C288.09 45.0497 288.743 44.32 288.743 43.1818ZM288.42 43.1818C288.422 44.1602 287.888 44.7372 287.17 44.7372C286.451 44.7372 285.92 44.1566 285.92 43.1818C285.92 42.2017 286.456 41.6264 287.17 41.6264C287.888 41.6264 288.42 42.2035 288.42 43.1818ZM290.924 41.3636V43.9862C290.922 44.5135 290.656 44.7514 290.271 44.7514C289.896 44.7514 289.616 44.5295 289.617 44.2045H289.291C289.289 44.7177 289.706 45.0497 290.271 45.0497C290.848 45.0497 291.255 44.6982 291.256 43.9862V41.3636H290.924ZM292.222 45H294.367V44.7017H292.554V43.3292H294.22V43.0309H292.554V41.6619H294.332V41.3636H292.222V45ZM298.039 42.5C297.92 41.8306 297.373 41.3139 296.599 41.3139C295.681 41.3139 295.028 42.0437 295.028 43.1818C295.028 44.32 295.681 45.0497 296.599 45.0497C297.373 45.0497 297.92 44.5312 298.039 43.8636H297.705C297.604 44.3626 297.169 44.7372 296.599 44.7372C295.91 44.7372 295.349 44.1921 295.349 43.1818C295.349 42.1751 295.91 41.6264 296.599 41.6264C297.169 41.6264 297.604 42.0028 297.705 42.5H298.039ZM298.599 41.6619H299.751V45H300.083V41.6619H301.235V41.3636H298.599V41.6619Z" fill="black"/>
<path d="M15.2836 42.5H15.7381C15.6032 41.7969 15.0137 41.3139 14.2466 41.3139C13.3145 41.3139 12.6557 42.0312 12.6557 43.1818C12.6557 44.3324 13.3091 45.0497 14.275 45.0497C15.1415 45.0497 15.7594 44.4727 15.7594 43.5724V43.1818H14.3745V43.5724H15.3333C15.3208 44.2259 14.8912 44.6378 14.275 44.6378C13.6003 44.6378 13.0819 44.1264 13.0819 43.1818C13.0819 42.2372 13.6003 41.7259 14.2466 41.7259C14.7722 41.7259 15.1291 42.0224 15.2836 42.5ZM18.8999 41.3636V43.7358C18.8999 44.2685 18.5342 44.652 17.9269 44.652C17.3197 44.652 16.9539 44.2685 16.9539 43.7358V41.3636H16.5136V43.7713C16.5136 44.517 17.0711 45.0639 17.9269 45.0639C18.7828 45.0639 19.3403 44.517 19.3403 43.7713V41.3636H18.8999ZM20.66 41.3636H20.2196V45H20.66V41.3636ZM22.665 45C23.773 45 24.398 44.3111 24.398 43.1747C24.398 42.0455 23.773 41.3636 22.7148 41.3636H21.5429V45H22.665ZM21.9832 44.6094V41.7543H22.6863C23.5386 41.7543 23.9719 42.294 23.9719 43.1747C23.9719 44.0625 23.5386 44.6094 22.6366 44.6094H21.9832ZM25.1366 45H27.3596V44.6094H25.577V43.3736H27.2176V42.983H25.577V41.7543H27.3312V41.3636H25.1366V45ZM29.2471 45C30.355 45 30.98 44.3111 30.98 43.1747C30.98 42.0455 30.355 41.3636 29.2968 41.3636H28.1249V45H29.2471ZM28.5653 44.6094V41.7543H29.2684C30.1206 41.7543 30.5539 42.294 30.5539 43.1747C30.5539 44.0625 30.1206 44.6094 29.2187 44.6094H28.5653ZM32.926 41.7543H34.0695V45H34.5099V41.7543H35.6533V41.3636H32.926V41.7543ZM39.2497 43.1818C39.2497 42.0312 38.575 41.3139 37.6446 41.3139C36.7142 41.3139 36.0395 42.0312 36.0395 43.1818C36.0395 44.3324 36.7142 45.0497 37.6446 45.0497C38.575 45.0497 39.2497 44.3324 39.2497 43.1818ZM38.8236 43.1818C38.8236 44.1264 38.3051 44.6378 37.6446 44.6378C36.9841 44.6378 36.4656 44.1264 36.4656 43.1818C36.4656 42.2372 36.9841 41.7259 37.6446 41.7259C38.3051 41.7259 38.8236 42.2372 38.8236 43.1818ZM42.3765 41.3636V43.7358C42.3765 44.2685 42.0107 44.652 41.4035 44.652C40.7963 44.652 40.4305 44.2685 40.4305 43.7358V41.3636H39.9901V43.7713C39.9901 44.517 40.5477 45.0639 41.4035 45.0639C42.2593 45.0639 42.8169 44.517 42.8169 43.7713V41.3636H42.3765ZM43.6962 45H44.1365V43.5795H44.932C44.964 43.5795 44.9941 43.5795 45.0243 43.5778L45.7914 45H46.3027L45.4806 43.4979C45.9441 43.3398 46.1607 42.9616 46.1607 42.4787C46.1607 41.8359 45.7772 41.3636 44.9249 41.3636H43.6962V45ZM44.1365 43.1818V41.7543H44.9107C45.5002 41.7543 45.7275 42.0419 45.7275 42.4787C45.7275 42.9155 45.5002 43.1818 44.9178 43.1818H44.1365ZM48.8831 42.2727H49.3092C49.2897 41.7241 48.7836 41.3139 48.0805 41.3139C47.3845 41.3139 46.8376 41.7188 46.8376 42.3295C46.8376 42.8196 47.1927 43.1108 47.7609 43.2741L48.2084 43.402C48.5919 43.5085 48.9328 43.6435 48.9328 44.0057C48.9328 44.4034 48.5493 44.6662 48.045 44.6662C47.6118 44.6662 47.2282 44.4744 47.1927 44.0625H46.7382C46.7808 44.6591 47.2638 45.0639 48.045 45.0639C48.8831 45.0639 49.3589 44.6023 49.3589 44.0128C49.3589 43.331 48.7126 43.1108 48.3362 43.0114L47.9669 42.9119C47.697 42.8409 47.2638 42.6989 47.2638 42.3082C47.2638 41.9602 47.5834 41.7045 48.0663 41.7045C48.5067 41.7045 48.8405 41.9141 48.8831 42.2727Z" fill="black"/>
<path d="M138.499 85.4856H137.788L136.538 88.8156H137.299L141.689 85.4856H140.977L137.466 88.1977H137.417L138.499 85.4856ZM142.978 85.4856H142.319L139.499 88.8156H140.158L142.978 85.4856ZM145.576 86.3604H146.211C146.643 85.8271 146.353 85.4401 145.466 85.4401C144.591 85.4401 143.596 85.8222 143.11 86.3962C142.718 86.8596 142.922 87.1311 143.501 87.2758L143.925 87.3831C144.312 87.4774 144.573 87.5945 144.323 87.8904C144.047 88.2156 143.458 88.4302 142.898 88.4302C142.391 88.4302 142.115 88.2579 142.384 87.8953H141.723C141.255 88.4985 141.551 88.8709 142.529 88.8709C143.554 88.8709 144.493 88.4595 144.97 87.8953C145.478 87.2953 144.974 87.0628 144.509 86.9587L144.154 86.8742C143.87 86.8075 143.519 86.6856 143.791 86.3669C144.031 86.084 144.547 85.8742 145.084 85.8742C145.585 85.8742 145.789 86.0531 145.576 86.3604ZM150.604 85.4856L148.784 87.6351C148.401 88.0872 147.716 88.4124 147.051 88.4124C146.389 88.4124 146.253 88.0872 146.636 87.6351L148.456 85.4856H147.798L145.943 87.6758C145.351 88.375 145.617 88.8709 146.663 88.8709C147.709 88.8709 148.818 88.375 149.41 87.6758L151.264 85.4856H150.604ZM149.77 88.8156L150.917 87.9343H152.622L152.274 88.8156H152.973L154.222 85.4856H153.462L149.071 88.8156H149.77ZM151.467 87.5116L153.314 86.0905H153.348L152.788 87.5116H151.467ZM153.603 88.8156H156.238L156.605 88.3831H154.627L157.081 85.4856H156.423L153.603 88.8156ZM160.468 85.4856H159.81L156.989 88.8156H157.648L160.468 85.4856ZM163.066 86.3604H163.701C164.133 85.8271 163.843 85.4401 162.957 85.4401C162.081 85.4401 161.086 85.8222 160.6 86.3962C160.208 86.8596 160.412 87.1311 160.991 87.2758L161.416 87.3831C161.802 87.4774 162.063 87.5945 161.813 87.8904C161.537 88.2156 160.949 88.4302 160.388 88.4302C159.881 88.4302 159.605 88.2579 159.874 87.8953H159.213C158.745 88.4985 159.041 88.8709 160.019 88.8709C161.044 88.8709 161.983 88.4595 162.461 87.8953C162.969 87.2953 162.465 87.0628 161.999 86.9587L161.644 86.8742C161.36 86.8075 161.009 86.6856 161.281 86.3669C161.521 86.084 162.037 85.8742 162.574 85.8742C163.075 85.8742 163.279 86.0531 163.066 86.3604ZM162.801 88.8156L163.948 87.9343H165.653L165.305 88.8156H166.004L167.254 85.4856H166.493L162.103 88.8156H162.801ZM164.498 87.5116L166.345 86.0905H166.379L165.819 87.5116H164.498ZM168.351 85.9181H169.71L167.257 88.8156H167.913L170.367 85.9181H171.728L172.094 85.4856H168.717L168.351 85.9181ZM173.499 85.4856H172.841L170.021 88.8156H170.679L173.499 85.4856ZM176.838 87.1506C177.74 86.0856 177.452 85.4401 176.322 85.4401C175.189 85.4401 173.809 86.0856 172.907 87.1506C172.007 88.214 172.292 88.8611 173.425 88.8611C174.555 88.8611 175.936 88.2156 176.838 87.1506ZM176.186 87.1506C175.499 87.962 174.564 88.4026 173.814 88.4026C173.062 88.4026 172.874 87.962 173.561 87.1506C174.249 86.3393 175.182 85.8986 175.934 85.8986C176.684 85.8986 176.874 86.3393 176.186 87.1506ZM182.591 85.4856H181.939L179.868 87.9311H179.828L179.679 85.4856H179.069L176.249 88.8156H176.908L178.976 86.3734H179.016L179.166 88.8156H179.771L182.591 85.4856Z" fill="#B0B0B0"/>
<path d="M271.457 54.2727H271.779C271.754 53.7205 271.276 53.3121 270.6 53.3121C269.929 53.3121 269.412 53.7152 269.412 54.3011C269.412 54.7681 269.742 55.0611 270.312 55.2298L270.747 55.3576C271.198 55.489 271.507 55.6577 271.507 56.0288C271.507 56.4656 271.111 56.7585 270.568 56.7585C270.078 56.7585 269.694 56.5224 269.659 56.0909H269.318C269.357 56.6662 269.826 57.0621 270.568 57.0621C271.356 57.0621 271.828 56.6165 271.828 56.0341C271.828 55.4304 271.303 55.1889 270.841 55.0593L270.458 54.9492C270.104 54.8498 269.733 54.6705 269.733 54.2869C269.733 53.8963 270.083 53.6104 270.591 53.6104C271.072 53.6104 271.417 53.8679 271.457 54.2727ZM272.407 53.6619H273.56V57H273.892V53.6619H275.044V53.3636H272.407V53.6619ZM275.792 57H276.124V55.5298H276.971C277.018 55.5298 277.065 55.5281 277.109 55.5245L277.906 57H278.29L277.45 55.4606C277.903 55.3114 278.137 54.9386 278.137 54.4521C278.137 53.8164 277.738 53.3636 276.965 53.3636H275.792V57ZM276.124 55.2262V53.6619H276.956C277.532 53.6619 277.81 53.9762 277.81 54.4521C277.81 54.9279 277.532 55.2262 276.962 55.2262H276.124ZM278.951 57L279.34 55.9045H280.867L281.256 57H281.604L280.281 53.3636H279.926L278.603 57H278.951ZM279.447 55.6062L280.091 53.7951H280.116L280.76 55.6062H279.447ZM281.582 53.6619H282.734V57H283.066V53.6619H284.219V53.3636H281.582V53.6619ZM284.966 57H287.111V56.7017H285.298V55.3292H286.964V55.0309H285.298V53.6619H287.076V53.3636H284.966V57ZM290.451 54.5H290.792C290.675 53.859 290.13 53.3139 289.334 53.3139C288.413 53.3139 287.772 54.0419 287.772 55.1818C287.772 56.32 288.406 57.0497 289.357 57.0497C290.208 57.0497 290.817 56.4691 290.817 55.5369V55.2386H289.435V55.5369H290.494C290.485 56.2809 290.018 56.7372 289.357 56.7372C288.622 56.7372 288.093 56.1584 288.093 55.1818C288.093 54.2017 288.626 53.6264 289.334 53.6264C289.934 53.6264 290.32 54.017 290.451 54.5ZM291.973 53.3636H291.641V57H291.973V53.3636ZM292.94 57H295.085V56.7017H293.272V55.3292H294.938V55.0309H293.272V53.6619H295.049V53.3636H292.94V57ZM297.883 54.2727H298.205C298.18 53.7205 297.702 53.3121 297.026 53.3121C296.354 53.3121 295.838 53.7152 295.838 54.3011C295.838 54.7681 296.168 55.0611 296.738 55.2298L297.173 55.3576C297.624 55.489 297.933 55.6577 297.933 56.0288C297.933 56.4656 297.537 56.7585 296.994 56.7585C296.504 56.7585 296.12 56.5224 296.085 56.0909H295.744C295.783 56.6662 296.251 57.0621 296.994 57.0621C297.782 57.0621 298.254 56.6165 298.254 56.0341C298.254 55.4304 297.729 55.1889 297.267 55.0593L296.884 54.9492C296.53 54.8498 296.159 54.6705 296.159 54.2869C296.159 53.8963 296.509 53.6104 297.017 53.6104C297.498 53.6104 297.842 53.8679 297.883 54.2727Z" fill="black"/>
<path d="M13.9129 49.3636H13.4726V53H13.9129V49.3636ZM14.5969 49.7543H15.7404V53H16.1808V49.7543H17.3242V49.3636H14.5969V49.7543ZM18.0038 53H20.2268V52.6094H18.4442V51.3736H20.0848V50.983H18.4442V49.7543H20.1984V49.3636H18.0038V53ZM20.9921 49.3636V53H21.404V50.2372H21.4395L22.5759 53H22.9736L24.11 50.2372H24.1455V53H24.5574V49.3636H24.0319L22.7961 52.3821H22.7535L21.5177 49.3636H20.9921ZM26.8466 53H28.9773V52.6094H27.2869V49.3636H26.8466V53ZM30.0377 53L30.4035 51.9702H31.8737L32.2394 53H32.7011L31.3659 49.3636H30.9113L29.5761 53H30.0377ZM30.542 51.5795L31.1244 49.9389H31.1528L31.7352 51.5795H30.542ZM32.5839 49.3636L33.8978 51.5014V53H34.3382V51.5014L35.6521 49.3636H35.1478L34.1393 51.0611H34.0967L33.0882 49.3636H32.5839ZM36.2216 53H38.4446V52.6094H36.6619V51.3736H38.3026V50.983H36.6619V49.7543H38.4162V49.3636H36.2216V53ZM39.2099 53H39.6502V51.5795H40.4457C40.4776 51.5795 40.5078 51.5795 40.538 51.5778L41.305 53H41.8164L40.9943 51.4979C41.4577 51.3398 41.6744 50.9616 41.6744 50.4787C41.6744 49.8359 41.2908 49.3636 40.4386 49.3636H39.2099V53ZM39.6502 51.1818V49.7543H40.4244C41.0138 49.7543 41.2411 50.0419 41.2411 50.4787C41.2411 50.9155 41.0138 51.1818 40.4315 51.1818H39.6502Z" fill="black"/>
<path d="M12.5917 61H13.032V59.6719H13.8275C14.6744 59.6719 15.0562 59.157 15.0562 58.5142C15.0562 57.8714 14.6744 57.3636 13.8204 57.3636H12.5917V61ZM13.032 59.2812V57.7543H13.8062C14.3975 57.7543 14.623 58.0774 14.623 58.5142C14.623 58.951 14.3975 59.2812 13.8133 59.2812H13.032ZM15.7655 61H16.2059V59.5795H17.0013C17.0333 59.5795 17.0635 59.5795 17.0937 59.5778L17.8607 61H18.3721L17.55 59.4979C18.0134 59.3398 18.23 58.9616 18.23 58.4787C18.23 57.8359 17.8465 57.3636 16.9942 57.3636H15.7655V61ZM16.2059 59.1818V57.7543H16.98C17.5695 57.7543 17.7968 58.0419 17.7968 58.4787C17.7968 58.9155 17.5695 59.1818 16.9871 59.1818H16.2059ZM22.032 59.1818C22.032 58.0312 21.3572 57.3139 20.4268 57.3139C19.4964 57.3139 18.8217 58.0312 18.8217 59.1818C18.8217 60.3324 19.4964 61.0497 20.4268 61.0497C21.3572 61.0497 22.032 60.3324 22.032 59.1818ZM21.6058 59.1818C21.6058 60.1264 21.0874 60.6378 20.4268 60.6378C19.7663 60.6378 19.2479 60.1264 19.2479 59.1818C19.2479 58.2372 19.7663 57.7259 20.4268 57.7259C21.0874 57.7259 21.6058 58.2372 21.6058 59.1818ZM24.1644 57.3636V59.9631C24.1644 60.4158 23.9478 60.6591 23.5678 60.6591C23.2216 60.6591 22.9712 60.4567 22.9712 60.1477H22.538C22.538 60.707 22.9712 61.0497 23.5678 61.0497C24.1999 61.0497 24.6048 60.6609 24.6048 59.9631V57.3636H24.1644ZM25.4872 61H27.7102V60.6094H25.9276V59.3736H27.5682V58.983H25.9276V57.7543H27.6818V57.3636H25.4872V61ZM31.4016 58.5C31.2667 57.7543 30.6701 57.3139 29.9386 57.3139C29.0082 57.3139 28.3335 58.0312 28.3335 59.1818C28.3335 60.3324 29.0082 61.0497 29.9386 61.0497C30.6701 61.0497 31.2667 60.6094 31.4016 59.8636H30.9613C30.8548 60.3679 30.4215 60.6378 29.9386 60.6378C29.2781 60.6378 28.7596 60.1264 28.7596 59.1818C28.7596 58.2372 29.2781 57.7259 29.9386 57.7259C30.4215 57.7259 30.8548 57.9957 30.9613 58.5H31.4016ZM31.9143 57.7543H33.0578V61H33.4981V57.7543H34.6416V57.3636H31.9143V57.7543ZM36.7275 61H38.8581V60.6094H37.1678V57.3636H36.7275V61ZM39.9186 61L40.2844 59.9702H41.7545L42.1203 61H42.5819L41.2467 57.3636H40.7922L39.4569 61H39.9186ZM40.4229 59.5795L41.0052 57.9389H41.0336L41.616 59.5795H40.4229ZM42.4648 57.3636L43.7787 59.5014V61H44.219V59.5014L45.5329 57.3636H45.0287L44.0202 59.0611H43.9775L42.969 57.3636H42.4648ZM46.1025 61H48.3255V60.6094H46.5428V59.3736H48.1834V58.983H46.5428V57.7543H48.2971V57.3636H46.1025V61ZM49.0907 61H49.5311V59.5795H50.3265C50.3585 59.5795 50.3887 59.5795 50.4189 59.5778L51.1859 61H51.6973L50.8752 59.4979C51.3386 59.3398 51.5552 58.9616 51.5552 58.4787C51.5552 57.8359 51.1717 57.3636 50.3194 57.3636H49.0907V61ZM49.5311 59.1818V57.7543H50.3052C50.8947 57.7543 51.122 58.0419 51.122 58.4787C51.122 58.9155 50.8947 59.1818 50.3123 59.1818H49.5311Z" fill="black"/>
<path d="M15.4376 65.3636H15.0044V68.2259H14.9689L12.9802 65.3636H12.5541V69H12.9945V66.1449H13.03L15.0115 69H15.4376V65.3636ZM16.3188 69H18.5418V68.6094H16.7591V67.3736H18.3997V66.983H16.7591V65.7543H18.5134V65.3636H16.3188V69ZM19.1082 65.7543H20.2516V69H20.692V65.7543H21.8354V65.3636H19.1082V65.7543ZM23.1756 69H23.6301L24.4327 66.1023H24.4611L25.2636 69H25.7182L26.7125 65.3636H26.265L25.5051 68.3253H25.4696L24.6954 65.3636H24.1983L23.4241 68.3253H23.3886L22.6287 65.3636H22.1812L23.1756 69ZM30.1584 67.1818C30.1584 66.0312 29.4837 65.3139 28.5533 65.3139C27.6229 65.3139 26.9482 66.0312 26.9482 67.1818C26.9482 68.3324 27.6229 69.0497 28.5533 69.0497C29.4837 69.0497 30.1584 68.3324 30.1584 67.1818ZM29.7323 67.1818C29.7323 68.1264 29.2138 68.6378 28.5533 68.6378C27.8928 68.6378 27.3743 68.1264 27.3743 67.1818C27.3743 66.2372 27.8928 65.7259 28.5533 65.7259C29.2138 65.7259 29.7323 66.2372 29.7323 67.1818ZM30.8988 69H31.3392V67.5795H32.1346C32.1666 67.5795 32.1968 67.5795 32.227 67.5778L32.994 69H33.5054L32.6833 67.4979C33.1467 67.3398 33.3633 66.9616 33.3633 66.4787C33.3633 65.8359 32.9798 65.3636 32.1275 65.3636H30.8988V69ZM31.3392 67.1818V65.7543H32.1133C32.7028 65.7543 32.9301 66.0419 32.9301 66.4787C32.9301 66.9155 32.7028 67.1818 32.1204 67.1818H31.3392ZM34.0971 69H34.5374V67.821L34.992 67.3097L36.2562 69H36.7888L35.2619 67.0043L36.7888 65.3636H36.2136L34.58 67.1676H34.5374V65.3636H34.0971V69ZM38.765 69H40.8957V68.6094H39.2054V65.3636H38.765V69ZM41.9562 69L42.322 67.9702H43.7921L44.1579 69H44.6195L43.2843 65.3636H42.8298L41.4945 69H41.9562ZM42.4604 67.5795L43.0428 65.9389H43.0712L43.6536 67.5795H42.4604ZM44.5024 65.3636L45.8163 67.5014V69H46.2566V67.5014L47.5705 65.3636H47.0663L46.0578 67.0611H46.0151L45.0066 65.3636H44.5024ZM48.14 69H50.3631V68.6094H48.5804V67.3736H50.221V66.983H48.5804V65.7543H50.3347V65.3636H48.14V69ZM51.1283 69H51.5687V67.5795H52.3641C52.3961 67.5795 52.4263 67.5795 52.4565 67.5778L53.2235 69H53.7349L52.9128 67.4979C53.3762 67.3398 53.5928 66.9616 53.5928 66.4787C53.5928 65.8359 53.2093 65.3636 52.357 65.3636H51.1283V69ZM51.5687 67.1818V65.7543H52.3428C52.9323 65.7543 53.1596 66.0419 53.1596 66.4787C53.1596 66.9155 52.9323 67.1818 52.3499 67.1818H51.5687Z" fill="black"/>
<path d="M304.04 26C303.878 25.1051 303.162 24.5767 302.284 24.5767C301.168 24.5767 300.358 25.4375 300.358 26.8182C300.358 28.1989 301.168 29.0597 302.284 29.0597C303.162 29.0597 303.878 28.5312 304.04 27.6364H303.511C303.384 28.2415 302.864 28.5653 302.284 28.5653C301.491 28.5653 300.869 27.9517 300.869 26.8182C300.869 25.6847 301.491 25.071 302.284 25.071C302.864 25.071 303.384 25.3949 303.511 26H304.04ZM308.575 26.8182C308.575 25.4375 307.766 24.5767 306.649 24.5767C305.533 24.5767 304.723 25.4375 304.723 26.8182C304.723 28.1989 305.533 29.0597 306.649 29.0597C307.766 29.0597 308.575 28.1989 308.575 26.8182ZM308.064 26.8182C308.064 27.9517 307.442 28.5653 306.649 28.5653C305.857 28.5653 305.235 27.9517 305.235 26.8182C305.235 25.6847 305.857 25.071 306.649 25.071C307.442 25.071 308.064 25.6847 308.064 26.8182ZM309.464 29H312.021V28.5312H309.992V24.6364H309.464V29ZM312.839 29H315.396V28.5312H313.367V24.6364H312.839V29ZM316.214 29H318.882V28.5312H316.742V27.0483H318.711V26.5795H316.742V25.1051H318.847V24.6364H316.214V29ZM323.311 26C323.149 25.1051 322.433 24.5767 321.556 24.5767C320.439 24.5767 319.629 25.4375 319.629 26.8182C319.629 28.1989 320.439 29.0597 321.556 29.0597C322.433 29.0597 323.149 28.5312 323.311 27.6364H322.783C322.655 28.2415 322.135 28.5653 321.556 28.5653C320.763 28.5653 320.141 27.9517 320.141 26.8182C320.141 25.6847 320.763 25.071 321.556 25.071C322.135 25.071 322.655 25.3949 322.783 26H323.311ZM323.926 25.1051H325.299V29H325.827V25.1051H327.199V24.6364H323.926V25.1051ZM328.543 24.6364H328.015V29H328.543V24.6364ZM333.284 26.8182C333.284 25.4375 332.475 24.5767 331.358 24.5767C330.242 24.5767 329.432 25.4375 329.432 26.8182C329.432 28.1989 330.242 29.0597 331.358 29.0597C332.475 29.0597 333.284 28.1989 333.284 26.8182ZM332.773 26.8182C332.773 27.9517 332.151 28.5653 331.358 28.5653C330.566 28.5653 329.944 27.9517 329.944 26.8182C329.944 25.6847 330.566 25.071 331.358 25.071C332.151 25.071 332.773 25.6847 332.773 26.8182ZM337.633 24.6364H337.113V28.071H337.071L334.684 24.6364H334.173V29H334.701V25.5739H334.744L337.122 29H337.633V24.6364ZM300.528 36H301.057V34.4062H302.011C303.028 34.4062 303.486 33.7884 303.486 33.017C303.486 32.2457 303.028 31.6364 302.003 31.6364H300.528V36ZM301.057 33.9375V32.1051H301.986C302.695 32.1051 302.966 32.4929 302.966 33.017C302.966 33.5412 302.695 33.9375 301.994 33.9375H301.057ZM304.071 36L304.51 34.7642H306.274L306.713 36H307.267L305.664 31.6364H305.119L303.517 36H304.071ZM304.676 34.2955L305.375 32.3267H305.409L306.108 34.2955H304.676ZM311.407 31.6364H310.887V35.071H310.844L308.458 31.6364H307.946V36H308.475V32.5739H308.517L310.895 36H311.407V31.6364ZM312.464 36H315.132V35.5312H312.992V34.0483H314.961V33.5795H312.992V32.1051H315.097V31.6364H312.464V36ZM316.05 36H318.607V35.5312H316.578V31.6364H316.05V36Z" fill="black"/>
<path d="M300 30.1932H338.162V30.6023H300V30.1932ZM300 37.1932H318.896V37.6023H300V37.1932Z" fill="black"/>
<path d="M14.5284 16H17.196V15.5312H15.0568V14.0483H17.0256V13.5795H15.0568V12.1051H17.1619V11.6364H14.5284V16ZM18.37 11.6364H17.7479L19.1541 13.8182L17.7479 16H18.37L19.495 14.2188H19.5291L20.6541 16H21.2763L19.9041 13.8182L21.2763 11.6364H20.6541L19.5291 13.4517H19.495L18.37 11.6364ZM21.964 16H22.4924V14.4062H23.4469C24.4632 14.4062 24.9213 13.7884 24.9213 13.017C24.9213 12.2457 24.4632 11.6364 23.4384 11.6364H21.964V16ZM22.4924 13.9375V12.1051H23.4213C24.1309 12.1051 24.4015 12.4929 24.4015 13.017C24.4015 13.5412 24.1309 13.9375 23.4299 13.9375H22.4924ZM25.7725 16H28.3294V15.5312H26.301V11.6364H25.7725V16ZM32.6594 13.8182C32.6594 12.4375 31.8498 11.5767 30.7333 11.5767C29.6168 11.5767 28.8072 12.4375 28.8072 13.8182C28.8072 15.1989 29.6168 16.0597 30.7333 16.0597C31.8498 16.0597 32.6594 15.1989 32.6594 13.8182ZM32.1481 13.8182C32.1481 14.9517 31.5259 15.5653 30.7333 15.5653C29.9407 15.5653 29.3185 14.9517 29.3185 13.8182C29.3185 12.6847 29.9407 12.071 30.7333 12.071C31.5259 12.071 32.1481 12.6847 32.1481 13.8182ZM33.5479 16H34.0763V14.2955H35.0309C35.0692 14.2955 35.1055 14.2955 35.1417 14.2933L36.0621 16H36.6758L35.6893 14.1974C36.2454 14.0078 36.5053 13.554 36.5053 12.9744C36.5053 12.2031 36.0451 11.6364 35.0224 11.6364H33.5479V16ZM34.0763 13.8182V12.1051H35.0053C35.7127 12.1051 35.9854 12.4503 35.9854 12.9744C35.9854 13.4986 35.7127 13.8182 35.0138 13.8182H34.0763ZM37.5648 16L38.0037 14.7642H39.7679L40.2069 16H40.7608L39.1586 11.6364H38.6131L37.0108 16H37.5648ZM38.1699 14.2955L38.8688 12.3267H38.9029L39.6017 14.2955H38.1699ZM40.6921 12.1051H42.0643V16H42.5927V12.1051H43.9648V11.6364H40.6921V12.1051ZM45.3088 11.6364H44.7804V16H45.3088V11.6364ZM50.0501 13.8182C50.0501 12.4375 49.2404 11.5767 48.1239 11.5767C47.0075 11.5767 46.1978 12.4375 46.1978 13.8182C46.1978 15.1989 47.0075 16.0597 48.1239 16.0597C49.2404 16.0597 50.0501 15.1989 50.0501 13.8182ZM49.5387 13.8182C49.5387 14.9517 48.9165 15.5653 48.1239 15.5653C47.3313 15.5653 46.7092 14.9517 46.7092 13.8182C46.7092 12.6847 47.3313 12.071 48.1239 12.071C48.9165 12.071 49.5387 12.6847 49.5387 13.8182ZM54.3988 11.6364H53.8789V15.071H53.8363L51.4499 11.6364H50.9386V16H51.467V12.5739H51.5096L53.8874 16H54.3988V11.6364ZM14.5284 18.6364V23H15.0227V19.6847H15.0653L16.429 23H16.9062L18.2699 19.6847H18.3125V23H18.8068V18.6364H18.1761L16.6932 22.2585H16.642L15.1591 18.6364H14.5284ZM23.5481 20.8182C23.5481 19.4375 22.7385 18.5767 21.622 18.5767C20.5055 18.5767 19.6958 19.4375 19.6958 20.8182C19.6958 22.1989 20.5055 23.0597 21.622 23.0597C22.7385 23.0597 23.5481 22.1989 23.5481 20.8182ZM23.0368 20.8182C23.0368 21.9517 22.4146 22.5653 21.622 22.5653C20.8294 22.5653 20.2072 21.9517 20.2072 20.8182C20.2072 19.6847 20.8294 19.071 21.622 19.071C22.4146 19.071 23.0368 19.6847 23.0368 20.8182ZM25.7832 23C27.1127 23 27.8627 22.1733 27.8627 20.8097C27.8627 19.4545 27.1127 18.6364 25.8429 18.6364H24.4366V23H25.7832ZM24.965 22.5312V19.1051H25.8088C26.8315 19.1051 27.3514 19.7528 27.3514 20.8097C27.3514 21.875 26.8315 22.5312 25.7491 22.5312H24.965ZM28.7491 23H31.4167V22.5312H29.2775V21.0483H31.2463V20.5795H29.2775V19.1051H31.3826V18.6364H28.7491V23ZM34.7214 19.7273H35.2328C35.2093 19.0689 34.6021 18.5767 33.7583 18.5767C32.9231 18.5767 32.2669 19.0625 32.2669 19.7955C32.2669 20.3835 32.693 20.733 33.3748 20.929L33.9118 21.0824C34.372 21.2102 34.7811 21.3722 34.7811 21.8068C34.7811 22.2841 34.3208 22.5994 33.7157 22.5994C33.1958 22.5994 32.7356 22.3693 32.693 21.875H32.1475C32.1987 22.5909 32.7782 23.0767 33.7157 23.0767C34.7214 23.0767 35.2924 22.5227 35.2924 21.8153C35.2924 20.9972 34.5169 20.733 34.0652 20.6136L33.622 20.4943C33.2981 20.4091 32.7782 20.2386 32.7782 19.7699C32.7782 19.3523 33.1618 19.0455 33.7413 19.0455C34.2697 19.0455 34.6703 19.2969 34.7214 19.7273ZM37.8487 23H38.3771V21.4062H39.3317C40.348 21.4062 40.8061 20.7884 40.8061 20.017C40.8061 19.2457 40.348 18.6364 39.3232 18.6364H37.8487V23ZM38.3771 20.9375V19.1051H39.3061C40.0156 19.1051 40.2862 19.4929 40.2862 20.017C40.2862 20.5412 40.0156 20.9375 39.3146 20.9375H38.3771ZM41.391 23L41.8299 21.7642H43.5941L44.033 23H44.587L42.9847 18.6364H42.4393L40.837 23H41.391ZM41.9961 21.2955L42.695 19.3267H42.729L43.4279 21.2955H41.9961ZM48.7269 18.6364H48.207V22.071H48.1644L45.7781 18.6364H45.2667V23H45.7951V19.5739H45.8377L48.2156 23H48.7269V18.6364ZM49.7843 23H52.4519V22.5312H50.3127V21.0483H52.2814V20.5795H50.3127V19.1051H52.4178V18.6364H49.7843V23ZM53.3702 23H55.927V22.5312H53.8986V18.6364H53.3702V23Z" fill="black"/>
<path d="M14 17.1932H54.9272V17.6023H14V17.1932ZM14 24.1932H56.2168V24.6023H14V24.1932Z" fill="black"/>
<path d="M259.528 82.6364V87H260.023V83.6847H260.065L261.429 87H261.906L263.27 83.6847H263.312V87H263.807V82.6364H263.176L261.693 86.2585H261.642L260.159 82.6364H259.528ZM265.395 82.6364H264.866V87H265.395V82.6364ZM269.914 82.6364H269.395V86.071H269.352L266.966 82.6364H266.454V87H266.983V83.5739H267.025L269.403 87H269.914V82.6364ZM271.5 82.6364H270.972V87H271.5V82.6364ZM272.56 82.6364V87H273.054V83.6847H273.097L274.46 87H274.938L276.301 83.6847H276.344V87H276.838V82.6364H276.207L274.724 86.2585H274.673L273.19 82.6364H272.56ZM278.077 87L278.515 85.7642H280.28L280.719 87H281.273L279.67 82.6364H279.125L277.523 87H278.077ZM278.682 85.2955L279.381 83.3267H279.415L280.113 85.2955H278.682ZM281.952 87H282.481V85.4062H283.435C284.452 85.4062 284.91 84.7884 284.91 84.017C284.91 83.2457 284.452 82.6364 283.427 82.6364H281.952V87ZM282.481 84.9375V83.1051H283.41C284.119 83.1051 284.39 83.4929 284.39 84.017C284.39 84.5412 284.119 84.9375 283.418 84.9375H282.481Z" fill="black"/>
<path d="M259 88.1932H285.233V88.6023H259V88.1932Z" fill="black"/>
<path d="M241.847 95.7273H241.123V95.3267C241.123 94.9837 241.308 94.7919 241.638 94.7919C241.764 94.7919 241.841 94.8196 241.898 94.8388L242.009 94.5064C241.933 94.4744 241.805 94.4339 241.604 94.4339C241.159 94.4339 240.741 94.7195 240.741 95.2479V95.7273H240.239V96.0575H240.741V99H241.121L241.123 96.0575H241.847V95.7273ZM243.741 99.0682C244.589 99.0682 245.182 98.3757 245.182 97.3786C245.182 96.375 244.589 95.6825 243.741 95.6825C242.893 95.6825 242.301 96.375 242.301 97.3786C242.301 98.3757 242.893 99.0682 243.741 99.0682ZM243.741 98.7209C243.062 98.7209 242.683 98.1115 242.683 97.3786C242.683 96.6456 243.062 96.0277 243.741 96.0277C244.421 96.0277 244.8 96.6456 244.8 97.3786C244.8 98.1115 244.421 98.7209 243.741 98.7209ZM247.286 99.0682C248.134 99.0682 248.727 98.3757 248.727 97.3786C248.727 96.375 248.134 95.6825 247.286 95.6825C246.438 95.6825 245.846 96.375 245.846 97.3786C245.846 98.3757 246.438 99.0682 247.286 99.0682ZM247.286 98.7209C246.607 98.7209 246.227 98.1115 246.227 97.3786C246.227 96.6456 246.607 96.0277 247.286 96.0277C247.966 96.0277 248.345 96.6456 248.345 97.3786C248.345 98.1115 247.966 98.7209 247.286 98.7209ZM250.848 95.7273H250.156V94.9432H249.775V95.7273H249.287V96.0575H249.775V98.2351C249.775 98.7699 250.196 99.049 250.616 99.049C250.774 99.049 250.88 99.0192 250.953 98.9915L250.872 98.6484C250.819 98.6634 250.75 98.6783 250.65 98.6783C250.392 98.6783 250.156 98.5568 250.156 98.1456V96.0575H250.848V95.7273ZM252.998 99.0682C253.654 99.0682 254.095 98.7124 254.244 98.3011L253.884 98.1839C253.758 98.478 253.462 98.7209 252.998 98.7209C252.329 98.7209 251.905 98.233 251.888 97.4766H254.325V97.2891C254.325 96.196 253.65 95.6825 252.94 95.6825C252.092 95.6825 251.506 96.392 251.506 97.3828C251.506 98.3757 252.081 99.0682 252.998 99.0682ZM251.89 97.142C251.93 96.5327 252.341 96.0277 252.94 96.0277C253.526 96.0277 253.937 96.5114 253.937 97.142H251.89ZM255.161 99H255.54V96.8864C255.54 96.4006 255.913 96.049 256.424 96.049C256.525 96.049 256.618 96.0661 256.652 96.0703V95.6847C256.601 95.6825 256.514 95.6783 256.452 95.6783C256.041 95.6783 255.689 95.8999 255.557 96.2301H255.529V95.7273H255.161V99Z" fill="black"/>
<path d="M348.88 16.9545C348.88 16.3835 349.263 16.032 349.788 16.032C350.295 16.032 350.619 16.3643 350.619 16.9034V19H351V16.88C351 16.1001 350.548 15.6847 349.884 15.6847C349.389 15.6847 349.067 15.902 348.914 16.2408H348.88V14.6364H348.501V19H348.88V16.9545ZM353.322 19.0682C353.978 19.0682 354.419 18.7124 354.568 18.3011L354.208 18.1839C354.083 18.478 353.786 18.7209 353.322 18.7209C352.653 18.7209 352.229 18.233 352.212 17.4766H354.649V17.2891C354.649 16.196 353.974 15.6825 353.264 15.6825C352.416 15.6825 351.83 16.392 351.83 17.3828C351.83 18.3757 352.406 19.0682 353.322 19.0682ZM352.214 17.142C352.254 16.5327 352.666 16.0277 353.264 16.0277C353.85 16.0277 354.262 16.5114 354.262 17.142H352.214ZM356.399 19.0746C356.945 19.0746 357.277 18.772 357.413 18.4822H357.437V19H357.816V16.7777C357.816 15.8999 357.156 15.6825 356.655 15.6825C356.154 15.6825 355.638 15.8807 355.417 16.4155L355.777 16.5455C355.896 16.2642 356.192 16.0234 356.665 16.0234C357.162 16.0234 357.437 16.2962 357.437 16.7436V16.8203C357.437 17.0675 357.13 17.0717 356.58 17.1399C355.841 17.2315 355.323 17.4382 355.323 18.0859C355.323 18.7166 355.805 19.0746 356.399 19.0746ZM356.45 18.7273C356.022 18.7273 355.702 18.4993 355.702 18.103C355.702 17.7067 356.026 17.5405 356.58 17.4723C356.849 17.4403 357.326 17.3807 357.437 17.272V17.745C357.437 18.282 357.055 18.7273 356.45 18.7273ZM360.003 19.0682C360.598 19.0682 360.875 18.6911 361.009 18.3928H361.054V19H361.424V14.6364H361.043V16.3516H361.009C360.879 16.0575 360.608 15.6825 360.01 15.6825C359.202 15.6825 358.657 16.3643 358.657 17.3722C358.657 18.3885 359.2 19.0682 360.003 19.0682ZM360.048 18.7209C359.396 18.7209 359.038 18.1286 359.038 17.3658C359.038 16.6115 359.392 16.0277 360.048 16.0277C360.687 16.0277 361.049 16.5817 361.049 17.3658C361.049 18.1562 360.683 18.7209 360.048 18.7209ZM363.828 19.0682C364.484 19.0682 364.925 18.7124 365.074 18.3011L364.714 18.1839C364.588 18.478 364.292 18.7209 363.828 18.7209C363.159 18.7209 362.735 18.233 362.718 17.4766H365.155V17.2891C365.155 16.196 364.48 15.6825 363.77 15.6825C362.922 15.6825 362.336 16.392 362.336 17.3828C362.336 18.3757 362.912 19.0682 363.828 19.0682ZM362.72 17.142C362.76 16.5327 363.172 16.0277 363.77 16.0277C364.356 16.0277 364.767 16.5114 364.767 17.142H362.72ZM365.991 19H366.37V16.8864C366.37 16.4006 366.743 16.049 367.254 16.049C367.355 16.049 367.448 16.0661 367.482 16.0703V15.6847C367.431 15.6825 367.344 15.6783 367.282 15.6783C366.871 15.6783 366.519 15.8999 366.387 16.2301H366.36V15.7273H365.991V19Z" fill="black"/>
<path d="M261.548 67C262.642 67 263.265 66.3164 263.267 65.1729C263.267 64.0419 262.653 63.3636 261.612 63.3636H260.483V67H261.548ZM260.815 66.7017V63.6619H261.593C262.475 63.6619 262.944 64.2319 262.946 65.1729C262.946 66.1229 262.466 66.7017 261.529 66.7017H260.815ZM267.053 65.1818C267.053 64.0437 266.4 63.3139 265.48 63.3139C264.562 63.3139 263.908 64.0455 263.908 65.1818C263.908 66.3182 264.56 67.0497 265.48 67.0497C266.4 67.0497 267.053 66.32 267.053 65.1818ZM266.73 65.1818C266.732 66.1602 266.197 66.7372 265.48 66.7372C264.761 66.7372 264.23 66.1566 264.23 65.1818C264.23 64.2017 264.766 63.6264 265.48 63.6264C266.197 63.6264 266.73 64.2035 266.73 65.1818ZM268.488 67H268.843L269.687 63.9158H269.71L270.553 67H270.908L271.904 63.3636H271.565L270.741 66.4904H270.713L269.889 63.3636H269.506L268.682 66.4904H268.653L267.829 63.3636H267.492L268.488 67ZM275.336 63.3636H275.01V66.4123H274.981L272.826 63.3636H272.504V67H272.836V63.9549H272.865L275.013 67H275.336V63.3636ZM276.303 67H278.368V66.7017H276.635V63.3636H276.303V67ZM281.955 65.1818C281.955 64.0437 281.302 63.3139 280.382 63.3139C279.464 63.3139 278.811 64.0455 278.811 65.1818C278.811 66.3182 279.462 67.0497 280.382 67.0497C281.302 67.0497 281.955 66.32 281.955 65.1818ZM281.632 65.1818C281.634 66.1602 281.1 66.7372 280.382 66.7372C279.663 66.7372 279.132 66.1566 279.132 65.1818C279.132 64.2017 279.668 63.6264 280.382 63.6264C281.1 63.6264 281.632 64.2035 281.632 65.1818ZM282.593 67L282.982 65.9045H284.509L284.897 67H285.245L283.923 63.3636H283.568L282.245 67H282.593ZM283.088 65.6062L283.733 63.7951H283.758L284.402 65.6062H283.088ZM286.934 67C288.028 67 288.651 66.3164 288.653 65.1729C288.653 64.0419 288.038 63.3636 286.998 63.3636H285.869V67H286.934ZM286.201 66.7017V63.6619H286.978C287.861 63.6619 288.33 64.2319 288.331 65.1729C288.331 66.1229 287.852 66.7017 286.915 66.7017H286.201Z" fill="black"/>
<g filter="url(#filter8_d_718_794)">
<path d="M162.476 29H150.773C150.22 29 149.48 29.3392 149.12 29.7577L147.976 31.0863C147.615 31.5047 146.875 31.8439 146.323 31.8439H116.984C116.432 31.8439 115.692 32.1832 115.332 32.6016L84.7919 68.0575C84.4315 68.4759 84.587 68.8151 85.1393 68.8151H128.181C128.733 68.8151 129.473 68.4759 129.834 68.0575L161.026 31.8439L162.823 29.7577C163.184 29.3392 163.028 29 162.476 29Z" fill="white"/>
<path d="M162.476 29H150.773C150.22 29 149.48 29.3392 149.12 29.7577L147.976 31.0863C147.615 31.5047 146.875 31.8439 146.323 31.8439H116.984C116.432 31.8439 115.692 32.1832 115.332 32.6016L84.7919 68.0575C84.4315 68.4759 84.587 68.8151 85.1393 68.8151H128.181C128.733 68.8151 129.473 68.4759 129.834 68.0575L161.026 31.8439L162.823 29.7577C163.184 29.3392 163.028 29 162.476 29Z" stroke="#FF774C" stroke-width="0.25"/>
</g>
<g filter="url(#filter9_d_718_794)">
<path d="M150.59 20.0094H141.955C141.403 20.0094 140.663 20.3486 140.302 20.7671L139.158 22.0957C138.798 22.5141 138.058 22.8533 137.505 22.8533H116.984C116.432 22.8533 115.692 23.1926 115.332 23.611L84.7919 59.0669C84.4315 59.4853 84.587 59.8245 85.1393 59.8245H128.181C128.733 59.8245 129.473 59.4853 129.834 59.0669L160.374 23.611C160.734 23.1926 160.579 22.8533 160.026 22.8533H150.14C149.588 22.8533 149.432 22.5141 149.793 22.0957L150.937 20.7671C151.298 20.3486 151.142 20.0094 150.59 20.0094Z" fill="white" fill-opacity="0.8" shape-rendering="crispEdges"/>
<path d="M150.59 20.0094H141.955C141.403 20.0094 140.663 20.3486 140.302 20.7671L139.158 22.0957C138.798 22.5141 138.058 22.8533 137.505 22.8533H116.984C116.432 22.8533 115.692 23.1926 115.332 23.611L84.7919 59.0669C84.4315 59.4853 84.587 59.8245 85.1393 59.8245H128.181C128.733 59.8245 129.473 59.4853 129.834 59.0669L160.374 23.611C160.734 23.1926 160.579 22.8533 160.026 22.8533H150.14C149.588 22.8533 149.432 22.5141 149.793 22.0957L150.937 20.7671C151.298 20.3486 151.142 20.0094 150.59 20.0094Z" stroke="#FF774C" stroke-width="0.25" shape-rendering="crispEdges"/>
</g>
<g filter="url(#filter10_d_718_794)">
<path d="M141.908 12H131.946C131.393 12 130.654 12.3392 130.293 12.7577L129.149 14.0863C128.788 14.5047 128.048 14.8439 127.496 14.8439H116.984C116.432 14.8439 115.692 15.1832 115.332 15.6016L84.7919 51.0575C84.4315 51.4759 84.587 51.8151 85.1393 51.8151H128.181C128.733 51.8151 129.473 51.4759 129.834 51.0575L160.374 15.6016C160.734 15.1832 160.579 14.8439 160.026 14.8439H140.793C140.039 14.8439 140.08 14.2361 140.867 13.7315L141.833 13.1124C142.621 12.6078 142.662 12 141.908 12Z" fill="white" fill-opacity="0.9" shape-rendering="crispEdges"/>
<path d="M141.908 12H131.946C131.393 12 130.654 12.3392 130.293 12.7577L129.149 14.0863C128.788 14.5047 128.048 14.8439 127.496 14.8439H116.984C116.432 14.8439 115.692 15.1832 115.332 15.6016L84.7919 51.0575C84.4315 51.4759 84.587 51.8151 85.1393 51.8151H128.181C128.733 51.8151 129.473 51.4759 129.834 51.0575L160.374 15.6016C160.734 15.1832 160.579 14.8439 160.026 14.8439H140.793C140.039 14.8439 140.08 14.2361 140.867 13.7315L141.833 13.1124C142.621 12.6078 142.662 12 141.908 12Z" stroke="#FF774C" stroke-width="0.25" shape-rendering="crispEdges"/>
</g>
<g filter="url(#filter11_d_718_794)">
<path d="M117.781 4.75768L115.984 6.84394L84.7919 43.0575C84.4315 43.4759 84.587 43.8151 85.1393 43.8151H128.181C128.733 43.8151 129.473 43.4759 129.834 43.0575L160.374 7.60162C160.734 7.18316 160.579 6.84394 160.026 6.84394H131.446C130.889 6.84394 130.736 6.4982 131.108 6.07562L132.259 4.76832C132.63 4.34574 132.478 4 131.92 4H119.434C118.882 4 118.142 4.33922 117.781 4.75768Z" fill="white" fill-opacity="0.7" shape-rendering="crispEdges"/>
<path d="M117.781 4.75768L115.984 6.84394L84.7919 43.0575C84.4315 43.4759 84.587 43.8151 85.1393 43.8151H128.181C128.733 43.8151 129.473 43.4759 129.834 43.0575L160.374 7.60162C160.734 7.18316 160.579 6.84394 160.026 6.84394H131.446C130.889 6.84394 130.736 6.4982 131.108 6.07562L132.259 4.76832C132.63 4.34574 132.478 4 131.92 4H119.434C118.882 4 118.142 4.33922 117.781 4.75768Z" stroke="#FF774C" stroke-width="0.25" shape-rendering="crispEdges"/>
</g>
<path d="M84.5 51.4952H54" stroke="black" stroke-width="0.25"/>
<path d="M84.5 59.5H54" stroke="black" stroke-width="0.25"/>
<path d="M84.5 68.486H54" stroke="black" stroke-width="0.25"/>
<path d="M84.5 43.5L54 43.5" stroke="black" stroke-width="0.25"/>
<g filter="url(#filter12_d_718_794)">
<rect width="46.6638" height="6.25581" transform="matrix(1 0 -0.652628 0.757679 176.083 9)" fill="#FAFAFA"/>
<rect x="0.0868431" y="0.18942" width="46.1638" height="5.75581" transform="matrix(1 0 -0.652628 0.757679 176.206 9.0459)" stroke="black" stroke-width="0.5" stroke-dasharray="2 2"/>
</g>
<path d="M333.964 68.7273H334.475C334.452 68.0689 333.844 67.5767 333.001 67.5767C332.165 67.5767 331.509 68.0625 331.509 68.7955C331.509 69.3835 331.935 69.733 332.617 69.929L333.154 70.0824C333.614 70.2102 334.023 70.3722 334.023 70.8068C334.023 71.2841 333.563 71.5994 332.958 71.5994C332.438 71.5994 331.978 71.3693 331.935 70.875H331.39C331.441 71.5909 332.02 72.0767 332.958 72.0767C333.964 72.0767 334.535 71.5227 334.535 70.8153C334.535 69.9972 333.759 69.733 333.307 69.6136L332.864 69.4943C332.54 69.4091 332.02 69.2386 332.02 68.7699C332.02 68.3523 332.404 68.0455 332.983 68.0455C333.512 68.0455 333.912 68.2969 333.964 68.7273ZM338.267 67.6364V70.483C338.267 71.1222 337.828 71.5824 337.099 71.5824C336.371 71.5824 335.932 71.1222 335.932 70.483V67.6364H335.403V70.5256C335.403 71.4205 336.072 72.0767 337.099 72.0767C338.126 72.0767 338.795 71.4205 338.795 70.5256V67.6364H338.267ZM339.851 72H341.427C342.459 72 342.885 71.4972 342.885 70.8409C342.885 70.1506 342.407 69.7756 342.007 69.75V69.7074C342.382 69.6051 342.714 69.358 342.714 68.7955C342.714 68.1562 342.288 67.6364 341.376 67.6364H339.851V72ZM340.379 71.5312V70.0142H341.453C342.024 70.0142 342.382 70.3977 342.382 70.8409C342.382 71.2244 342.118 71.5312 341.427 71.5312H340.379ZM340.379 69.554V68.1051H341.376C341.956 68.1051 342.211 68.4119 342.211 68.7955C342.211 69.2557 341.836 69.554 341.359 69.554H340.379ZM343.753 67.6364V72H344.247V68.6847H344.29L345.654 72H346.131L347.494 68.6847H347.537V72H348.031V67.6364H347.401L345.918 71.2585H345.867L344.384 67.6364H343.753ZM349.619 67.6364H349.091V72H349.619V67.6364ZM350.44 68.1051H351.812V72H352.341V68.1051H353.713V67.6364H350.44V68.1051Z" fill="black"/>
<path d="M333.883 98L334.322 96.7642H336.086L336.525 98H337.079L335.477 93.6364H334.931L333.329 98H333.883ZM334.488 96.2955L335.187 94.3267H335.221L335.92 96.2955H334.488ZM337.759 98H339.336C340.367 98 340.793 97.4972 340.793 96.8409C340.793 96.1506 340.316 95.7756 339.915 95.75V95.7074C340.29 95.6051 340.623 95.358 340.623 94.7955C340.623 94.1562 340.196 93.6364 339.284 93.6364H337.759V98ZM338.287 97.5312V96.0142H339.361C339.932 96.0142 340.29 96.3977 340.29 96.8409C340.29 97.2244 340.026 97.5312 339.336 97.5312H338.287ZM338.287 95.554V94.1051H339.284C339.864 94.1051 340.12 94.4119 340.12 94.7955C340.12 95.2557 339.745 95.554 339.267 95.554H338.287ZM345.343 95.8182C345.343 94.4375 344.533 93.5767 343.417 93.5767C342.3 93.5767 341.491 94.4375 341.491 95.8182C341.491 97.1989 342.3 98.0597 343.417 98.0597C344.533 98.0597 345.343 97.1989 345.343 95.8182ZM344.832 95.8182C344.832 96.9517 344.21 97.5653 343.417 97.5653C342.624 97.5653 342.002 96.9517 342.002 95.8182C342.002 94.6847 342.624 94.071 343.417 94.071C344.21 94.071 344.832 94.6847 344.832 95.8182ZM349.095 93.6364V96.483C349.095 97.1222 348.656 97.5824 347.928 97.5824C347.199 97.5824 346.76 97.1222 346.76 96.483V93.6364H346.232V96.5256C346.232 97.4205 346.901 98.0767 347.928 98.0767C348.955 98.0767 349.624 97.4205 349.624 96.5256V93.6364H349.095ZM350.44 94.1051H351.812V98H352.341V94.1051H353.713V93.6364H350.44V94.1051Z" fill="black"/>
<path d="M291 21H366C366.552 21 367 21.4477 367 22V32" stroke="black" stroke-width="0.5"/>
<g filter="url(#filter13_d_718_794)">
<rect x="0.0868431" y="0.18942" width="162.151" height="102.095" transform="matrix(1 0 -0.652628 0.757679 424.08 20.0459)" fill="#FF774C" stroke="black" stroke-width="0.5"/>
</g>
<g filter="url(#filter14_d_718_794)">
<rect x="0.0868431" y="0.18942" width="162.151" height="102.095" transform="matrix(1 0 -0.652628 0.757679 422.08 -5.9541)" fill="white" stroke="black" stroke-width="0.5"/>
</g>
<g filter="url(#filter15_d_718_794)">
<rect x="0.0868431" y="0.18942" width="162.151" height="102.095" transform="matrix(1 0 -0.652628 0.757679 422.08 -31.9541)" fill="white" stroke="black" stroke-width="0.5"/>
</g>
<path d="M336.593 46H337.121V44.0483H339.448V46H339.976V41.6364H339.448V43.5795H337.121V41.6364H336.593V46ZM344.716 43.8182C344.716 42.4375 343.906 41.5767 342.79 41.5767C341.673 41.5767 340.864 42.4375 340.864 43.8182C340.864 45.1989 341.673 46.0597 342.79 46.0597C343.906 46.0597 344.716 45.1989 344.716 43.8182ZM344.205 43.8182C344.205 44.9517 343.583 45.5653 342.79 45.5653C341.997 45.5653 341.375 44.9517 341.375 43.8182C341.375 42.6847 341.997 42.071 342.79 42.071C343.583 42.071 344.205 42.6847 344.205 43.8182ZM345.605 41.6364V46H346.099V42.6847H346.142L347.505 46H347.982L349.346 42.6847H349.389V46H349.883V41.6364H349.252L347.769 45.2585H347.718L346.235 41.6364H345.605ZM350.942 46H353.61V45.5312H351.471V44.0483H353.44V43.5795H351.471V42.1051H353.576V41.6364H350.942V46Z" fill="black"/>
<path d="M41.1062 96.1051H42.4783V100H43.0067V96.1051H44.3789V95.6364H41.1062V96.1051ZM48.6946 97.8182C48.6946 96.4375 47.8849 95.5767 46.7685 95.5767C45.652 95.5767 44.8423 96.4375 44.8423 97.8182C44.8423 99.1989 45.652 100.06 46.7685 100.06C47.8849 100.06 48.6946 99.1989 48.6946 97.8182ZM48.1832 97.8182C48.1832 98.9517 47.5611 99.5653 46.7685 99.5653C45.9759 99.5653 45.3537 98.9517 45.3537 97.8182C45.3537 96.6847 45.9759 96.071 46.7685 96.071C47.5611 96.071 48.1832 96.6847 48.1832 97.8182ZM53.2649 97.8182C53.2649 96.4375 52.4553 95.5767 51.3388 95.5767C50.2223 95.5767 49.4126 96.4375 49.4126 97.8182C49.4126 99.1989 50.2223 100.06 51.3388 100.06C52.4553 100.06 53.2649 99.1989 53.2649 97.8182ZM52.7536 97.8182C52.7536 98.9517 52.1314 99.5653 51.3388 99.5653C50.5462 99.5653 49.924 98.9517 49.924 97.8182C49.924 96.6847 50.5462 96.071 51.3388 96.071C52.1314 96.071 52.7536 96.6847 52.7536 97.8182ZM54.1534 100H56.7102V99.5312H54.6818V95.6364H54.1534V100Z" fill="black"/>
<circle cx="6" cy="15" r="6" fill="black"/>
<path d="M5.05176 16.125C5.16243 16.2161 5.30566 16.2617 5.48145 16.2617C5.65723 16.2617 5.8265 16.2096 5.98926 16.1055C6.15202 15.9948 6.2334 15.8841 6.2334 15.7734V14.7676C6.18132 14.7936 6.05436 14.8392 5.85254 14.9043C5.65072 14.9694 5.49121 15.028 5.37402 15.0801C5.26335 15.1257 5.15267 15.207 5.04199 15.3242C4.93783 15.4349 4.88574 15.5651 4.88574 15.7148C4.88574 15.8906 4.94108 16.0273 5.05176 16.125ZM5.96973 12.4922C6.3278 12.4922 6.58496 12.5801 6.74121 12.7559C6.89746 12.9251 6.97559 13.2018 6.97559 13.5859V15.8418C6.97559 15.9785 7.01139 16.0924 7.08301 16.1836C7.15462 16.2747 7.25228 16.3203 7.37598 16.3203C7.46712 16.3203 7.58105 16.2747 7.71777 16.1836C7.74382 16.1836 7.75684 16.2096 7.75684 16.2617C7.75684 16.3464 7.74056 16.4147 7.70801 16.4668C7.44108 16.6947 7.21322 16.8086 7.02441 16.8086C6.87467 16.8086 6.73145 16.7467 6.59473 16.623C6.45801 16.4993 6.36361 16.3691 6.31152 16.2324C6.30501 16.2324 6.27897 16.2552 6.2334 16.3008C6.19434 16.3398 6.139 16.3887 6.06738 16.4473C5.99577 16.4993 5.91113 16.5547 5.81348 16.6133C5.72233 16.6719 5.61165 16.7207 5.48145 16.7598C5.35775 16.7988 5.23079 16.8184 5.10059 16.8184C4.80111 16.8184 4.55371 16.7402 4.3584 16.584C4.16309 16.4212 4.06543 16.1803 4.06543 15.8613C4.06543 15.7181 4.10124 15.5846 4.17285 15.4609C4.24447 15.3307 4.3291 15.2266 4.42676 15.1484C4.52441 15.0638 4.65788 14.9792 4.82715 14.8945C4.99642 14.8099 5.13965 14.748 5.25684 14.709C5.38053 14.6634 5.54004 14.6081 5.73535 14.543C5.93066 14.4779 6.06738 14.429 6.14551 14.3965C6.2041 14.377 6.2334 14.3281 6.2334 14.25V13.5176C6.2334 13.3092 6.16829 13.1497 6.03809 13.0391C5.90788 12.9219 5.75163 12.8633 5.56934 12.8633C5.37402 12.8633 5.21126 12.9316 5.08105 13.0684C4.95085 13.1986 4.88574 13.3711 4.88574 13.5859C4.88574 13.8138 4.75228 13.9277 4.48535 13.9277C4.30306 13.9277 4.17611 13.8659 4.10449 13.7422C4.10449 13.4622 4.30957 13.1855 4.71973 12.9121C5.12988 12.6322 5.54655 12.4922 5.96973 12.4922Z" fill="white"/>
<circle cx="251" cy="85" r="6" fill="black"/>
<path d="M251.028 82.4922C251.744 82.4922 252.239 82.6582 252.513 82.9902C252.513 83.4264 252.392 83.6445 252.151 83.6445C252.041 83.6445 251.956 83.6217 251.897 83.5762C251.839 83.5241 251.764 83.4329 251.673 83.3027C251.471 83.0033 251.23 82.8535 250.95 82.8535C250.683 82.8535 250.439 82.9805 250.218 83.2344C250.003 83.4883 249.896 83.8659 249.896 84.3672C249.896 84.888 250.022 85.321 250.276 85.666C250.537 86.0111 250.895 86.1836 251.351 86.1836C251.487 86.1836 251.618 86.1706 251.741 86.1445C251.865 86.1185 251.969 86.0892 252.054 86.0566C252.145 86.0176 252.22 85.9818 252.278 85.9492C252.343 85.9102 252.399 85.8743 252.444 85.8418L252.513 85.793C252.552 85.793 252.571 85.8353 252.571 85.9199C252.571 85.972 252.552 86.0306 252.513 86.0957C252.382 86.278 252.19 86.444 251.937 86.5938C251.683 86.737 251.406 86.8086 251.106 86.8086C250.566 86.8086 250.101 86.6068 249.71 86.2031C249.326 85.793 249.134 85.2949 249.134 84.709C249.134 84.11 249.297 83.5924 249.622 83.1562C249.948 82.7135 250.416 82.4922 251.028 82.4922Z" fill="white"/>
<circle cx="229" cy="12" r="6" fill="black"/>
<path d="M228.745 10.8633C228.368 10.8633 228.071 11.0326 227.856 11.3711C227.642 11.7096 227.534 12.1035 227.534 12.5527C227.534 13.028 227.661 13.4414 227.915 13.793C228.169 14.138 228.521 14.3105 228.97 14.3105C229.191 14.3105 229.364 14.2617 229.487 14.1641C229.611 14.0599 229.673 13.9232 229.673 13.7539V11.4297C229.673 11.293 229.598 11.166 229.448 11.0488C229.305 10.9251 229.071 10.8633 228.745 10.8633ZM228.872 10.4531C229.152 10.4531 229.396 10.5085 229.604 10.6191C229.65 10.6191 229.673 10.5605 229.673 10.4434V9.38867C229.673 9.16732 229.653 8.95898 229.614 8.76367C229.582 8.65951 229.416 8.60742 229.116 8.60742H229.028C228.989 8.60742 228.97 8.57161 228.97 8.5C228.97 8.39583 228.989 8.34375 229.028 8.34375C229.224 8.32422 229.403 8.29818 229.565 8.26562C229.735 8.23307 229.865 8.20052 229.956 8.16797C230.054 8.13542 230.135 8.10612 230.2 8.08008C230.265 8.04753 230.314 8.02148 230.347 8.00195L230.386 7.97266H230.405C230.431 7.97266 230.457 7.99219 230.483 8.03125C230.509 8.0638 230.526 8.09635 230.532 8.12891C230.461 8.33724 230.425 8.62044 230.425 8.97852V13.373C230.425 13.6855 230.444 13.9329 230.483 14.1152C230.496 14.1608 230.532 14.1966 230.591 14.2227C230.649 14.2487 230.708 14.265 230.767 14.2715C230.832 14.278 230.894 14.2812 230.952 14.2812L231.04 14.291C231.06 14.2975 231.069 14.3366 231.069 14.4082C231.069 14.5059 231.05 14.5547 231.011 14.5547C230.913 14.5612 230.802 14.5742 230.679 14.5938C230.562 14.6133 230.448 14.6361 230.337 14.6621C230.233 14.6816 230.135 14.7044 230.044 14.7305C229.953 14.75 229.878 14.7695 229.819 14.7891L229.731 14.8086C229.692 14.8086 229.673 14.7533 229.673 14.6426V14.5254C229.673 14.4863 229.66 14.4733 229.634 14.4863C229.269 14.6882 228.924 14.7891 228.599 14.7891C228.058 14.7891 227.606 14.597 227.241 14.2129C226.877 13.8288 226.694 13.3698 226.694 12.8359C226.694 12.2044 226.916 11.651 227.358 11.1758C227.808 10.694 228.312 10.4531 228.872 10.4531Z" fill="white"/>
<circle cx="291" cy="31" r="6" fill="black"/>
<path d="M290.813 29.4727C291.438 29.4727 291.927 29.6875 292.278 30.1172C292.636 30.5404 292.815 30.9928 292.815 31.4746C292.815 32.0931 292.584 32.6367 292.122 33.1055C291.666 33.5742 291.162 33.8086 290.608 33.8086C290.368 33.8086 290.136 33.7891 289.915 33.75C289.7 33.7044 289.576 33.6816 289.544 33.6816C289.485 33.6816 289.41 33.7012 289.319 33.7402C289.235 33.7728 289.186 33.7891 289.173 33.7891C289.147 33.7891 289.104 33.7793 289.046 33.7598C288.994 33.7402 288.968 33.7174 288.968 33.6914C288.968 33.6849 288.978 33.6328 288.997 33.5352C289.017 33.431 289.036 33.2812 289.056 33.0859C289.075 32.8906 289.085 32.6725 289.085 32.4316V28.3887C289.085 28.1673 289.065 27.959 289.026 27.7637C288.994 27.6595 288.828 27.6074 288.528 27.6074H288.44C288.401 27.6074 288.382 27.5716 288.382 27.5C288.382 27.3958 288.401 27.3438 288.44 27.3438C288.636 27.3242 288.815 27.2982 288.978 27.2656C289.147 27.2331 289.277 27.2005 289.368 27.168C289.466 27.1354 289.547 27.1061 289.612 27.0801C289.677 27.0475 289.726 27.0215 289.759 27.002L289.798 26.9727H289.817C289.843 26.9727 289.869 26.9922 289.896 27.0312C289.922 27.0638 289.938 27.0964 289.944 27.1289C289.873 27.3372 289.837 27.6204 289.837 27.9785V29.6875C289.837 29.7591 289.847 29.7949 289.866 29.7949C289.873 29.7949 289.882 29.7917 289.896 29.7852C289.987 29.7201 290.127 29.6517 290.315 29.5801C290.504 29.5085 290.67 29.4727 290.813 29.4727ZM290.501 29.9512C290.319 29.9512 290.162 30.0033 290.032 30.1074C289.902 30.2051 289.837 30.3483 289.837 30.5371V32.8125C289.837 33.0143 289.931 33.1641 290.12 33.2617C290.315 33.3529 290.54 33.3984 290.794 33.3984C291.165 33.3984 291.455 33.2227 291.663 32.8711C291.871 32.5195 291.976 32.1224 291.976 31.6797C291.976 31.1654 291.839 30.7487 291.565 30.4297C291.299 30.1107 290.944 29.9512 290.501 29.9512Z" fill="white"/>
</g>
<defs>
<filter id="filter0_d_718_794" x="190.986" y="28.7675" width="87.8387" height="49.0419" filterUnits="userSpaceOnUse" color-interpolation-filters="sRGB">
<feFlood flood-opacity="0" result="BackgroundImageFix"/>
<feColorMatrix in="SourceAlpha" type="matrix" values="0 0 0 0 0 0 0 0 0 0 0 0 0 0 0 0 0 0 127 0" result="hardAlpha"/>
<feOffset dy="2"/>
<feGaussianBlur stdDeviation="1"/>
<feComposite in2="hardAlpha" operator="out"/>
<feColorMatrix type="matrix" values="0 0 0 0 0 0 0 0 0 0 0 0 0 0 0 0 0 0 0.25 0"/>
<feBlend mode="normal" in2="BackgroundImageFix" result="effect1_dropShadow_718_794"/>
<feBlend mode="normal" in="SourceGraphic" in2="effect1_dropShadow_718_794" result="shape"/>
</filter>
<filter id="filter1_d_718_794" x="81.9246" y="28.7675" width="94.3049" height="56.549" filterUnits="userSpaceOnUse" color-interpolation-filters="sRGB">
<feFlood flood-opacity="0" result="BackgroundImageFix"/>
<feColorMatrix in="SourceAlpha" type="matrix" values="0 0 0 0 0 0 0 0 0 0 0 0 0 0 0 0 0 0 127 0" result="hardAlpha"/>
<feOffset dy="2"/>
<feGaussianBlur stdDeviation="1"/>
<feComposite in2="hardAlpha" operator="out"/>
<feColorMatrix type="matrix" values="0 0 0 0 0 0 0 0 0 0 0 0 0 0 0 0 0 0 0.25 0"/>
<feBlend mode="normal" in2="BackgroundImageFix" result="effect1_dropShadow_718_794"/>
<feBlend mode="normal" in="SourceGraphic" in2="effect1_dropShadow_718_794" result="shape"/>
</filter>
<filter id="filter2_d_718_794" x="208.504" y="40" width="55.809" height="16.7582" filterUnits="userSpaceOnUse" color-interpolation-filters="sRGB">
<feFlood flood-opacity="0" result="BackgroundImageFix"/>
<feColorMatrix in="SourceAlpha" type="matrix" values="0 0 0 0 0 0 0 0 0 0 0 0 0 0 0 0 0 0 127 0" result="hardAlpha"/>
<feOffset dy="4"/>
<feGaussianBlur stdDeviation="2"/>
<feComposite in2="hardAlpha" operator="out"/>
<feColorMatrix type="matrix" values="0 0 0 0 0 0 0 0 0 0 0 0 0 0 0 0 0 0 0.25 0"/>
<feBlend mode="normal" in2="BackgroundImageFix" result="effect1_dropShadow_718_794"/>
<feBlend mode="normal" in="SourceGraphic" in2="effect1_dropShadow_718_794" result="shape"/>
</filter>
<filter id="filter3_d_718_794" x="200.749" y="50.0094" width="55.809" height="16.7582" filterUnits="userSpaceOnUse" color-interpolation-filters="sRGB">
<feFlood flood-opacity="0" result="BackgroundImageFix"/>
<feColorMatrix in="SourceAlpha" type="matrix" values="0 0 0 0 0 0 0 0 0 0 0 0 0 0 0 0 0 0 127 0" result="hardAlpha"/>
<feOffset dy="4"/>
<feGaussianBlur stdDeviation="2"/>
<feComposite in2="hardAlpha" operator="out"/>
<feColorMatrix type="matrix" values="0 0 0 0 0 0 0 0 0 0 0 0 0 0 0 0 0 0 0.25 0"/>
<feBlend mode="normal" in2="BackgroundImageFix" result="effect1_dropShadow_718_794"/>
<feBlend mode="normal" in="SourceGraphic" in2="effect1_dropShadow_718_794" result="shape"/>
</filter>
<filter id="filter4_d_718_794" x="189" y="65.1361" width="57.1246" height="12.7399" filterUnits="userSpaceOnUse" color-interpolation-filters="sRGB">
<feFlood flood-opacity="0" result="BackgroundImageFix"/>
<feColorMatrix in="SourceAlpha" type="matrix" values="0 0 0 0 0 0 0 0 0 0 0 0 0 0 0 0 0 0 127 0" result="hardAlpha"/>
<feOffset dy="4"/>
<feGaussianBlur stdDeviation="2"/>
<feComposite in2="hardAlpha" operator="out"/>
<feColorMatrix type="matrix" values="0 0 0 0 0 0 0 0 0 0 0 0 0 0 0 0 0 0 0.25 0"/>
<feBlend mode="normal" in2="BackgroundImageFix" result="effect1_dropShadow_718_794"/>
<feBlend mode="normal" in="SourceGraphic" in2="effect1_dropShadow_718_794" result="shape"/>
</filter>
<filter id="filter5_d_718_794" x="189.232" y="77.5629" width="50.4114" height="20.1156" filterUnits="userSpaceOnUse" color-interpolation-filters="sRGB">
<feFlood flood-opacity="0" result="BackgroundImageFix"/>
<feColorMatrix in="SourceAlpha" type="matrix" values="0 0 0 0 0 0 0 0 0 0 0 0 0 0 0 0 0 0 127 0" result="hardAlpha"/>
<feOffset dy="2"/>
<feGaussianBlur stdDeviation="1"/>
<feComposite in2="hardAlpha" operator="out"/>
<feColorMatrix type="matrix" values="0 0 0 0 0.136816 0 0 0 0 0.136816 0 0 0 0 0.136816 0 0 0 0.2 0"/>
<feBlend mode="normal" in2="BackgroundImageFix" result="effect1_dropShadow_718_794"/>
<feBlend mode="normal" in="SourceGraphic" in2="effect1_dropShadow_718_794" result="shape"/>
</filter>
<filter id="filter6_d_718_794" x="61.2221" y="96.3302" width="166.807" height="4.50232" filterUnits="userSpaceOnUse" color-interpolation-filters="sRGB">
<feFlood flood-opacity="0" result="BackgroundImageFix"/>
<feColorMatrix in="SourceAlpha" type="matrix" values="0 0 0 0 0 0 0 0 0 0 0 0 0 0 0 0 0 0 127 0" result="hardAlpha"/>
<feOffset dy="1"/>
<feGaussianBlur stdDeviation="0.5"/>
<feComposite in2="hardAlpha" operator="out"/>
<feColorMatrix type="matrix" values="0 0 0 0 0 0 0 0 0 0 0 0 0 0 0 0 0 0 0.4 0"/>
<feBlend mode="normal" in2="BackgroundImageFix" result="effect1_dropShadow_718_794"/>
<feBlend mode="normal" in="SourceGraphic" in2="effect1_dropShadow_718_794" result="shape"/>
</filter>
<filter id="filter7_d_718_794" x="125" y="20" width="167.917" height="5.79187" filterUnits="userSpaceOnUse" color-interpolation-filters="sRGB">
<feFlood flood-opacity="0" result="BackgroundImageFix"/>
<feColorMatrix in="SourceAlpha" type="matrix" values="0 0 0 0 0 0 0 0 0 0 0 0 0 0 0 0 0 0 127 0" result="hardAlpha"/>
<feOffset dy="1"/>
<feGaussianBlur stdDeviation="0.5"/>
<feComposite in2="hardAlpha" operator="out"/>
<feColorMatrix type="matrix" values="0 0 0 0 0 0 0 0 0 0 0 0 0 0 0 0 0 0 0.4 0"/>
<feBlend mode="normal" in2="BackgroundImageFix" result="effect1_dropShadow_718_794"/>
<feBlend mode="normal" in="SourceGraphic" in2="effect1_dropShadow_718_794" result="shape"/>
</filter>
<filter id="filter8_d_718_794" x="80.4484" y="28.9053" width="86.7185" height="48.0046" filterUnits="userSpaceOnUse" color-interpolation-filters="sRGB">
<feFlood flood-opacity="0" result="BackgroundImageFix"/>
<feColorMatrix in="SourceAlpha" type="matrix" values="0 0 0 0 0 0 0 0 0 0 0 0 0 0 0 0 0 0 127 0" result="hardAlpha"/>
<feOffset dy="4"/>
<feGaussianBlur stdDeviation="2"/>
<feComposite in2="hardAlpha" operator="out"/>
<feColorMatrix type="matrix" values="0 0 0 0 0 0 0 0 0 0 0 0 0 0 0 0 0 0 0.25 0"/>
<feBlend mode="normal" in2="BackgroundImageFix" result="effect1_dropShadow_718_794"/>
<feBlend mode="normal" in="SourceGraphic" in2="effect1_dropShadow_718_794" result="shape"/>
</filter>
<filter id="filter9_d_718_794" x="83.4484" y="19.9147" width="78.2689" height="42.0046" filterUnits="userSpaceOnUse" color-interpolation-filters="sRGB">
<feFlood flood-opacity="0" result="BackgroundImageFix"/>
<feColorMatrix in="SourceAlpha" type="matrix" values="0 0 0 0 0 0 0 0 0 0 0 0 0 0 0 0 0 0 127 0" result="hardAlpha"/>
<feOffset dy="1"/>
<feGaussianBlur stdDeviation="0.5"/>
<feComposite in2="hardAlpha" operator="out"/>
<feColorMatrix type="matrix" values="0 0 0 0 0 0 0 0 0 0 0 0 0 0 0 0 0 0 0.4 0"/>
<feBlend mode="normal" in2="BackgroundImageFix" result="effect1_dropShadow_718_794"/>
<feBlend mode="normal" in="SourceGraphic" in2="effect1_dropShadow_718_794" result="shape"/>
</filter>
<filter id="filter10_d_718_794" x="83.4484" y="11.9053" width="78.2689" height="42.0046" filterUnits="userSpaceOnUse" color-interpolation-filters="sRGB">
<feFlood flood-opacity="0" result="BackgroundImageFix"/>
<feColorMatrix in="SourceAlpha" type="matrix" values="0 0 0 0 0 0 0 0 0 0 0 0 0 0 0 0 0 0 127 0" result="hardAlpha"/>
<feOffset dy="1"/>
<feGaussianBlur stdDeviation="0.5"/>
<feComposite in2="hardAlpha" operator="out"/>
<feColorMatrix type="matrix" values="0 0 0 0 0 0 0 0 0 0 0 0 0 0 0 0 0 0 0.4 0"/>
<feBlend mode="normal" in2="BackgroundImageFix" result="effect1_dropShadow_718_794"/>
<feBlend mode="normal" in="SourceGraphic" in2="effect1_dropShadow_718_794" result="shape"/>
</filter>
<filter id="filter11_d_718_794" x="83.4484" y="3.90527" width="78.2689" height="42.0046" filterUnits="userSpaceOnUse" color-interpolation-filters="sRGB">
<feFlood flood-opacity="0" result="BackgroundImageFix"/>
<feColorMatrix in="SourceAlpha" type="matrix" values="0 0 0 0 0 0 0 0 0 0 0 0 0 0 0 0 0 0 127 0" result="hardAlpha"/>
<feOffset dy="1"/>
<feGaussianBlur stdDeviation="0.5"/>
<feComposite in2="hardAlpha" operator="out"/>
<feColorMatrix type="matrix" values="0 0 0 0 0 0 0 0 0 0 0 0 0 0 0 0 0 0 0.4 0"/>
<feBlend mode="normal" in2="BackgroundImageFix" result="effect1_dropShadow_718_794"/>
<feBlend mode="normal" in="SourceGraphic" in2="effect1_dropShadow_718_794" result="shape"/>
</filter>
<filter id="filter12_d_718_794" x="168" y="9" width="58.7465" height="12.7399" filterUnits="userSpaceOnUse" color-interpolation-filters="sRGB">
<feFlood flood-opacity="0" result="BackgroundImageFix"/>
<feColorMatrix in="SourceAlpha" type="matrix" values="0 0 0 0 0 0 0 0 0 0 0 0 0 0 0 0 0 0 127 0" result="hardAlpha"/>
<feOffset dy="4"/>
<feGaussianBlur stdDeviation="2"/>
<feComposite in2="hardAlpha" operator="out"/>
<feColorMatrix type="matrix" values="0 0 0 0 0 0 0 0 0 0 0 0 0 0 0 0 0 0 0.25 0"/>
<feBlend mode="normal" in2="BackgroundImageFix" result="effect1_dropShadow_718_794"/>
<feBlend mode="normal" in="SourceGraphic" in2="effect1_dropShadow_718_794" result="shape"/>
</filter>
<filter id="filter13_d_718_794" x="353" y="20" width="237.608" height="85.7344" filterUnits="userSpaceOnUse" color-interpolation-filters="sRGB">
<feFlood flood-opacity="0" result="BackgroundImageFix"/>
<feColorMatrix in="SourceAlpha" type="matrix" values="0 0 0 0 0 0 0 0 0 0 0 0 0 0 0 0 0 0 127 0" result="hardAlpha"/>
<feOffset dy="4"/>
<feGaussianBlur stdDeviation="2"/>
<feComposite in2="hardAlpha" operator="out"/>
<feColorMatrix type="matrix" values="0 0 0 0 0 0 0 0 0 0 0 0 0 0 0 0 0 0 0.25 0"/>
<feBlend mode="normal" in2="BackgroundImageFix" result="effect1_dropShadow_718_794"/>
<feBlend mode="normal" in="SourceGraphic" in2="effect1_dropShadow_718_794" result="shape"/>
</filter>
<filter id="filter14_d_718_794" x="351" y="-6" width="237.608" height="85.7344" filterUnits="userSpaceOnUse" color-interpolation-filters="sRGB">
<feFlood flood-opacity="0" result="BackgroundImageFix"/>
<feColorMatrix in="SourceAlpha" type="matrix" values="0 0 0 0 0 0 0 0 0 0 0 0 0 0 0 0 0 0 127 0" result="hardAlpha"/>
<feOffset dy="4"/>
<feGaussianBlur stdDeviation="2"/>
<feComposite in2="hardAlpha" operator="out"/>
<feColorMatrix type="matrix" values="0 0 0 0 0 0 0 0 0 0 0 0 0 0 0 0 0 0 0.25 0"/>
<feBlend mode="normal" in2="BackgroundImageFix" result="effect1_dropShadow_718_794"/>
<feBlend mode="normal" in="SourceGraphic" in2="effect1_dropShadow_718_794" result="shape"/>
</filter>
<filter id="filter15_d_718_794" x="351" y="-32" width="237.608" height="85.7344" filterUnits="userSpaceOnUse" color-interpolation-filters="sRGB">
<feFlood flood-opacity="0" result="BackgroundImageFix"/>
<feColorMatrix in="SourceAlpha" type="matrix" values="0 0 0 0 0 0 0 0 0 0 0 0 0 0 0 0 0 0 127 0" result="hardAlpha"/>
<feOffset dy="4"/>
<feGaussianBlur stdDeviation="2"/>
<feComposite in2="hardAlpha" operator="out"/>
<feColorMatrix type="matrix" values="0 0 0 0 0 0 0 0 0 0 0 0 0 0 0 0 0 0 0.25 0"/>
<feBlend mode="normal" in2="BackgroundImageFix" result="effect1_dropShadow_718_794"/>
<feBlend mode="normal" in="SourceGraphic" in2="effect1_dropShadow_718_794" result="shape"/>
</filter>
<clipPath id="clip0_718_794">
<rect width="377" height="104" fill="white"/>
</clipPath>
</defs>
</svg>
