<svg width="55" height="34" viewBox="0 0 55 34" fill="none" xmlns="http://www.w3.org/2000/svg">
<path d="M17.0781 8.51136C17.9929 8.51136 18.7287 8.09375 18.7287 7.10938V3.18182H18.1619V3.78835H18.1023C17.973 3.58949 17.7344 3.1321 16.9886 3.1321C16.0241 3.1321 15.358 3.89773 15.358 5.07102C15.358 6.2642 16.054 6.94034 16.9787 6.94034C17.7244 6.94034 17.9631 6.50284 18.0923 6.29403H18.142V7.0696C18.142 7.70597 17.6946 7.99432 17.0781 7.99432C16.3846 7.99432 16.141 7.62891 15.9844 7.41761L15.517 7.74574C15.7557 8.14595 16.2255 8.51136 17.0781 8.51136ZM17.0582 6.41335C16.3224 6.41335 15.9446 5.85653 15.9446 5.06108C15.9446 4.28551 16.3125 3.65909 17.0582 3.65909C17.7741 3.65909 18.152 4.2358 18.152 5.06108C18.152 5.90625 17.7642 6.41335 17.0582 6.41335ZM22.2088 5.43892C22.2088 6.15483 21.6619 6.48295 21.2244 6.48295C20.7372 6.48295 20.3892 6.125 20.3892 5.56818V3.18182H19.8026V5.60795C19.8026 6.58239 20.3196 7.04972 21.0355 7.04972C21.6122 7.04972 21.9901 6.74148 22.169 6.35369H22.2088V7H22.7955V3.18182H22.2088V5.43892ZM23.8699 7H24.4566V3.18182H23.8699V7ZM24.1682 2.54545C24.3969 2.54545 24.5858 2.36648 24.5858 2.14773C24.5858 1.92898 24.3969 1.75 24.1682 1.75C23.9395 1.75 23.7506 1.92898 23.7506 2.14773C23.7506 2.36648 23.9395 2.54545 24.1682 2.54545ZM26.9728 7.07955C27.7086 7.07955 27.9572 6.62216 28.0865 6.41335H28.1561V7H28.7228V1.90909H28.1362V3.78835H28.0865C27.9572 3.58949 27.7285 3.1321 26.9828 3.1321C26.0183 3.1321 25.3521 3.89773 25.3521 5.10085C25.3521 6.31392 26.0183 7.07955 26.9728 7.07955ZM27.0524 6.55256C26.3166 6.55256 25.9387 5.90625 25.9387 5.09091C25.9387 4.28551 26.3066 3.65909 27.0524 3.65909C27.7683 3.65909 28.1461 4.2358 28.1461 5.09091C28.1461 5.95597 27.7583 6.55256 27.0524 6.55256ZM31.4796 7.07955C32.2551 7.07955 32.8219 6.69176 33.0009 6.11506L32.4341 5.95597C32.285 6.35369 31.9395 6.55256 31.4796 6.55256C30.791 6.55256 30.3162 6.1076 30.2889 5.28977H33.0605V5.04119C33.0605 3.61932 32.2154 3.1321 31.4199 3.1321C30.3858 3.1321 29.6998 3.94744 29.6998 5.12074C29.6998 6.29403 30.3759 7.07955 31.4796 7.07955ZM30.2889 4.78267C30.3287 4.18857 30.7488 3.65909 31.4199 3.65909C32.0563 3.65909 32.464 4.13636 32.464 4.78267H30.2889ZM35.3947 7.07955C36.1305 7.07955 36.3791 6.62216 36.5083 6.41335H36.5779V7H37.1447V1.90909H36.5581V3.78835H36.5083C36.3791 3.58949 36.1504 3.1321 35.4047 3.1321C34.4402 3.1321 33.774 3.89773 33.774 5.10085C33.774 6.31392 34.4402 7.07955 35.3947 7.07955ZM35.4743 6.55256C34.7385 6.55256 34.3606 5.90625 34.3606 5.09091C34.3606 4.28551 34.7285 3.65909 35.4743 3.65909C36.1902 3.65909 36.568 4.2358 36.568 5.09091C36.568 5.95597 36.1802 6.55256 35.4743 6.55256Z" fill="black"/>
<path d="M1 7L12 7V1L1 1V7Z" fill="black" stroke="black" stroke-width="0.5" stroke-miterlimit="10"/>
<path d="M17.0881 20.0795C18.1222 20.0795 18.8182 19.294 18.8182 18.1108C18.8182 16.9176 18.1222 16.1321 17.0881 16.1321C16.054 16.1321 15.358 16.9176 15.358 18.1108C15.358 19.294 16.054 20.0795 17.0881 20.0795ZM17.0881 19.5526C16.3026 19.5526 15.9446 18.8764 15.9446 18.1108C15.9446 17.3452 16.3026 16.6591 17.0881 16.6591C17.8736 16.6591 18.2315 17.3452 18.2315 18.1108C18.2315 18.8764 17.8736 19.5526 17.0881 19.5526ZM19.7137 21.4318H20.3003V19.4134H20.3501C20.4793 19.6222 20.7279 20.0795 21.4637 20.0795C22.4182 20.0795 23.0844 19.3139 23.0844 18.1009C23.0844 16.8977 22.4182 16.1321 21.4537 16.1321C20.708 16.1321 20.4793 16.5895 20.3501 16.7884H20.2805V16.1818H19.7137V21.4318ZM20.2904 18.0909C20.2904 17.2358 20.6682 16.6591 21.3841 16.6591C22.1299 16.6591 22.4978 17.2855 22.4978 18.0909C22.4978 18.9062 22.1199 19.5526 21.3841 19.5526C20.6782 19.5526 20.2904 18.956 20.2904 18.0909ZM25.5802 20.0795C26.3557 20.0795 26.9225 19.6918 27.1015 19.1151L26.5347 18.956C26.3856 19.3537 26.04 19.5526 25.5802 19.5526C24.8916 19.5526 24.4168 19.1076 24.3895 18.2898H27.1611V18.0412C27.1611 16.6193 26.316 16.1321 25.5205 16.1321C24.4864 16.1321 23.8003 16.9474 23.8003 18.1207C23.8003 19.294 24.4765 20.0795 25.5802 20.0795ZM24.3895 17.7827C24.4292 17.1886 24.8493 16.6591 25.5205 16.6591C26.1569 16.6591 26.5645 17.1364 26.5645 17.7827H24.3895ZM28.6402 17.7031C28.6402 17.0369 29.0528 16.6591 29.6146 16.6591C30.159 16.6591 30.4896 17.0146 30.4896 17.6136V20H31.0763V17.5739C31.0763 16.5994 30.5567 16.1321 29.7836 16.1321C29.2069 16.1321 28.849 16.3906 28.67 16.7784H28.6203V16.1818H28.0535V20H28.6402V17.7031ZM35.7179 20.0795C36.4934 20.0795 37.0602 19.6918 37.2392 19.1151L36.6724 18.956C36.5233 19.3537 36.1777 19.5526 35.7179 19.5526C35.0293 19.5526 34.5545 19.1076 34.5272 18.2898H37.2988V18.0412C37.2988 16.6193 36.4537 16.1321 35.6582 16.1321C34.6241 16.1321 33.938 16.9474 33.938 18.1207C33.938 19.294 34.6142 20.0795 35.7179 20.0795ZM34.5272 17.7827C34.5669 17.1886 34.987 16.6591 35.6582 16.6591C36.2946 16.6591 36.7022 17.1364 36.7022 17.7827H34.5272ZM38.7779 17.7031C38.7779 17.0369 39.1905 16.6591 39.7523 16.6591C40.2967 16.6591 40.6273 17.0146 40.6273 17.6136V20H41.214V17.5739C41.214 16.5994 40.6944 16.1321 39.9213 16.1321C39.3446 16.1321 38.9867 16.3906 38.8077 16.7784H38.758V16.1818H38.1912V20H38.7779V17.7031ZM43.7277 20.0795C44.4635 20.0795 44.7121 19.6222 44.8414 19.4134H44.911V20H45.4777V14.9091H44.8911V16.7884H44.8414C44.7121 16.5895 44.4834 16.1321 43.7377 16.1321C42.7732 16.1321 42.107 16.8977 42.107 18.1009C42.107 19.3139 42.7732 20.0795 43.7277 20.0795ZM43.8073 19.5526C43.0715 19.5526 42.6936 18.9062 42.6936 18.0909C42.6936 17.2855 43.0615 16.6591 43.8073 16.6591C44.5232 16.6591 44.901 17.2358 44.901 18.0909C44.901 18.956 44.5132 19.5526 43.8073 19.5526ZM48.2345 20.0795C49.01 20.0795 49.5768 19.6918 49.7558 19.1151L49.189 18.956C49.0399 19.3537 48.6943 19.5526 48.2345 19.5526C47.5459 19.5526 47.0711 19.1076 47.0438 18.2898H49.8154V18.0412C49.8154 16.6193 48.9703 16.1321 48.1748 16.1321C47.1407 16.1321 46.4546 16.9474 46.4546 18.1207C46.4546 19.294 47.1308 20.0795 48.2345 20.0795ZM47.0438 17.7827C47.0835 17.1886 47.5036 16.6591 48.1748 16.6591C48.8112 16.6591 49.2188 17.1364 49.2188 17.7827H47.0438ZM52.1496 20.0795C52.8854 20.0795 53.134 19.6222 53.2632 19.4134H53.3328V20H53.8996V14.9091H53.3129V16.7884H53.2632C53.134 16.5895 52.9053 16.1321 52.1595 16.1321C51.195 16.1321 50.5289 16.8977 50.5289 18.1009C50.5289 19.3139 51.195 20.0795 52.1496 20.0795ZM52.2291 19.5526C51.4933 19.5526 51.1155 18.9062 51.1155 18.0909C51.1155 17.2855 51.4834 16.6591 52.2291 16.6591C52.945 16.6591 53.3229 17.2358 53.3229 18.0909C53.3229 18.956 52.9351 19.5526 52.2291 19.5526Z" fill="black"/>
<path d="M1 20L12 20V14L1 14V20Z" fill="#FAFAFA" stroke="black" stroke-width="0.5" stroke-miterlimit="10"/>
<path d="M15.5369 33H16.1236V30.6136C16.1236 30.0543 16.5312 29.6591 16.9886 29.6591C17.4336 29.6591 17.7443 29.9499 17.7443 30.3849V33H18.3409V30.5142C18.3409 30.022 18.6491 29.6591 19.1861 29.6591C19.6037 29.6591 19.9616 29.8803 19.9616 30.4446V33H20.5483V30.4446C20.5483 29.5472 20.0661 29.1321 19.3849 29.1321C18.8381 29.1321 18.4379 29.3832 18.2415 29.7784H18.2017C18.0128 29.3707 17.6797 29.1321 17.1776 29.1321C16.6804 29.1321 16.3125 29.3707 16.1534 29.7784H16.1037V29.1818H15.5369V33ZM21.6209 33H22.2076V29.1818H21.6209V33ZM21.9192 28.5455C22.1479 28.5455 22.3368 28.3665 22.3368 28.1477C22.3368 27.929 22.1479 27.75 21.9192 27.75C21.6905 27.75 21.5016 27.929 21.5016 28.1477C21.5016 28.3665 21.6905 28.5455 21.9192 28.5455ZM23.7195 29.1818H23.0434L24.2565 31.0909L23.0434 33H23.7195L24.6343 31.5185L25.5491 33H26.2252L24.9923 31.0909L26.2252 29.1818H25.5491L24.6343 30.7429L23.7195 29.1818ZM28.6632 33.0795C29.4387 33.0795 30.0055 32.6918 30.1845 32.1151L29.6177 31.956C29.4686 32.3537 29.123 32.5526 28.6632 32.5526C27.9746 32.5526 27.4998 32.1076 27.4725 31.2898H30.2441V31.0412C30.2441 29.6193 29.399 29.1321 28.6035 29.1321C27.5694 29.1321 26.8833 29.9474 26.8833 31.1207C26.8833 32.294 27.5595 33.0795 28.6632 33.0795ZM27.4725 30.7827C27.5123 30.1886 27.9324 29.6591 28.6035 29.6591C29.2399 29.6591 29.6475 30.1364 29.6475 30.7827H27.4725ZM32.5783 33.0795C33.3141 33.0795 33.5627 32.6222 33.6919 32.4134H33.7615V33H34.3283V27.9091H33.7417V29.7884H33.6919C33.5627 29.5895 33.334 29.1321 32.5882 29.1321C31.6238 29.1321 30.9576 29.8977 30.9576 31.1009C30.9576 32.3139 31.6238 33.0795 32.5783 33.0795ZM32.6578 32.5526C31.9221 32.5526 31.5442 31.9062 31.5442 31.0909C31.5442 30.2855 31.9121 29.6591 32.6578 29.6591C33.3738 29.6591 33.7516 30.2358 33.7516 31.0909C33.7516 31.956 33.3638 32.5526 32.6578 32.5526Z" fill="black"/>
<path d="M1 33H12V27L1 27V33Z" fill="#5C5C5C" stroke="black" stroke-width="0.5" stroke-miterlimit="10"/>
</svg>
