<svg width="53" height="30" viewBox="0 0 53 30" fill="none" xmlns="http://www.w3.org/2000/svg">
<circle cx="12.8889" cy="17.1111" r="12.6389" fill="#FAFAFA" stroke="black" stroke-width="0.5"/>
<circle cx="12.8888" cy="23.5555" r="6.19444" fill="#FAFAFA" stroke="black" stroke-width="0.5"/>
<path d="M12.0835 17.1111H28.1946" stroke="black" stroke-width="0.25" stroke-dasharray="0.5 0.5"/>
<path d="M11.2778 4.22217H27.3889" stroke="black" stroke-width="0.25" stroke-dasharray="0.5 0.5"/>
<path d="M30.3168 0.909091H29.7003L28.4276 1.75426V2.38068L29.6705 1.5554H29.7003V6H30.3168V0.909091ZM33.4414 6.0696C34.565 6.0696 35.2113 5.11754 35.2113 3.45455C35.2113 1.80398 34.555 0.839488 33.4414 0.839488C32.3278 0.839488 31.6715 1.80398 31.6715 3.45455C31.6715 5.11754 32.3178 6.0696 33.4414 6.0696ZM33.4414 5.52273C32.7006 5.52273 32.2681 4.77947 32.2681 3.45455C32.2681 2.1321 32.7056 1.37642 33.4414 1.37642C34.1772 1.37642 34.6147 2.1321 34.6147 3.45455C34.6147 4.77947 34.1822 5.52273 33.4414 5.52273ZM39.6857 6.07955C40.7198 6.07955 41.4158 5.29403 41.4158 4.1108C41.4158 2.91761 40.7198 2.1321 39.6857 2.1321C38.6516 2.1321 37.9556 2.91761 37.9556 4.1108C37.9556 5.29403 38.6516 6.07955 39.6857 6.07955ZM39.6857 5.55256C38.9002 5.55256 38.5423 4.87642 38.5423 4.1108C38.5423 3.34517 38.9002 2.65909 39.6857 2.65909C40.4712 2.65909 40.8292 3.34517 40.8292 4.1108C40.8292 4.87642 40.4712 5.55256 39.6857 5.55256ZM43.8625 6.07955C44.7077 6.07955 45.2645 5.5625 45.3639 4.88636H44.7773C44.6679 5.30398 44.3199 5.55256 43.8625 5.55256C43.1665 5.55256 42.719 4.97585 42.719 4.09091C42.719 3.22585 43.1764 2.65909 43.8625 2.65909C44.3795 2.65909 44.6878 2.97727 44.7773 3.32528H45.3639C45.2645 2.60937 44.6579 2.1321 43.8525 2.1321C42.8184 2.1321 42.1324 2.94744 42.1324 4.1108C42.1324 5.25426 42.7886 6.07955 43.8625 6.07955ZM47.7726 6.07955C48.6178 6.07955 49.1746 5.5625 49.2741 4.88636H48.6874C48.578 5.30398 48.23 5.55256 47.7726 5.55256C47.0766 5.55256 46.6292 4.97585 46.6292 4.09091C46.6292 3.22585 47.0866 2.65909 47.7726 2.65909C48.2897 2.65909 48.5979 2.97727 48.6874 3.32528H49.2741C49.1746 2.60937 48.5681 2.1321 47.7627 2.1321C46.7286 2.1321 46.0425 2.94744 46.0425 4.1108C46.0425 5.25426 46.6988 6.07955 47.7726 6.07955ZM50.5592 6.03977C50.8053 6.03977 51.0067 5.83842 51.0067 5.59233C51.0067 5.34624 50.8053 5.14489 50.5592 5.14489C50.3131 5.14489 50.1118 5.34624 50.1118 5.59233C50.1118 5.83842 50.3131 6.03977 50.5592 6.03977Z" fill="black"/>
<path d="M32.3168 13.9091H31.7003L30.4276 14.7543V15.3807L31.6705 14.5554H31.7003V19H32.3168V13.9091ZM37.3107 19.0795C38.3448 19.0795 39.0408 18.294 39.0408 17.1108C39.0408 15.9176 38.3448 15.1321 37.3107 15.1321C36.2766 15.1321 35.5806 15.9176 35.5806 17.1108C35.5806 18.294 36.2766 19.0795 37.3107 19.0795ZM37.3107 18.5526C36.5252 18.5526 36.1673 17.8764 36.1673 17.1108C36.1673 16.3452 36.5252 15.6591 37.3107 15.6591C38.0962 15.6591 38.4542 16.3452 38.4542 17.1108C38.4542 17.8764 38.0962 18.5526 37.3107 18.5526ZM41.4875 19.0795C42.3327 19.0795 42.8895 18.5625 42.9889 17.8864H42.4023C42.2929 18.304 41.9449 18.5526 41.4875 18.5526C40.7915 18.5526 40.344 17.9759 40.344 17.0909C40.344 16.2259 40.8014 15.6591 41.4875 15.6591C42.0045 15.6591 42.3128 15.9773 42.4023 16.3253H42.9889C42.8895 15.6094 42.2829 15.1321 41.4775 15.1321C40.4434 15.1321 39.7574 15.9474 39.7574 17.1108C39.7574 18.2543 40.4136 19.0795 41.4875 19.0795ZM45.3976 19.0795C46.2428 19.0795 46.7996 18.5625 46.8991 17.8864H46.3124C46.203 18.304 45.855 18.5526 45.3976 18.5526C44.7016 18.5526 44.2542 17.9759 44.2542 17.0909C44.2542 16.2259 44.7116 15.6591 45.3976 15.6591C45.9147 15.6591 46.2229 15.9773 46.3124 16.3253H46.8991C46.7996 15.6094 46.1931 15.1321 45.3877 15.1321C44.3536 15.1321 43.6675 15.9474 43.6675 17.1108C43.6675 18.2543 44.3238 19.0795 45.3976 19.0795ZM48.1842 19.0398C48.4303 19.0398 48.6317 18.8384 48.6317 18.5923C48.6317 18.3462 48.4303 18.1449 48.1842 18.1449C47.9381 18.1449 47.7368 18.3462 47.7368 18.5923C47.7368 18.8384 47.9381 19.0398 48.1842 19.0398Z" fill="black"/>
</svg>
