<svg width="176" height="52" viewBox="0 0 176 52" fill="none" xmlns="http://www.w3.org/2000/svg">
<path d="M115 31H47V41V51H115V31Z" fill="#7886FF"/>
<path d="M47 31H115V51H47M47 31V41V51M47 31V51" stroke="black" stroke-width="0.5" stroke-miterlimit="10"/>
<path d="M69.961 23H47V25V27H69.961V23Z" fill="#FAFAFA"/>
<path d="M47 23H69.961V27H47M47 23V25V27M47 23V27" stroke="black" stroke-width="0.5" stroke-miterlimit="10"/>
<path d="M92.0389 23H69.9609V25V27H92.0389V23Z" fill="#FAFAFA"/>
<path d="M69.9609 23H92.0389V27H69.9609M69.9609 23V25V27M69.9609 23V27" stroke="black" stroke-width="0.5" stroke-miterlimit="10"/>
<path d="M115 23H92.0391V25V27H115V23Z" fill="black"/>
<path d="M92.0391 23H115V27H92.0391M92.0391 23V25V27M92.0391 23V27" stroke="black" stroke-width="0.5" stroke-miterlimit="10"/>
<path d="M81 9L81 23" stroke="black" stroke-width="0.25" stroke-dasharray="0.5 0.5"/>
<path d="M68.3679 7.07955C69.1036 7.07955 69.3522 6.62216 69.4815 6.41335H69.5511V7H70.1179V1.90909H69.5312V3.78835H69.4815C69.3522 3.58949 69.1235 3.1321 68.3778 3.1321C67.4133 3.1321 66.7471 3.89773 66.7471 5.10085C66.7471 6.31392 67.4133 7.07955 68.3679 7.07955ZM68.4474 6.55256C67.7116 6.55256 67.3338 5.90625 67.3338 5.09091C67.3338 4.28551 67.7017 3.65909 68.4474 3.65909C69.1633 3.65909 69.5411 4.2358 69.5411 5.09091C69.5411 5.95597 69.1534 6.55256 68.4474 6.55256ZM71.2737 7H71.8604V3.18182H71.2737V7ZM71.572 2.54545C71.8007 2.54545 71.9897 2.36648 71.9897 2.14773C71.9897 1.92898 71.8007 1.75 71.572 1.75C71.3434 1.75 71.1544 1.92898 71.1544 2.14773C71.1544 2.36648 71.3434 2.54545 71.572 2.54545ZM74.0585 7.08949C74.7247 7.08949 75.0727 6.73153 75.192 6.48295H75.2218V7H75.8085V4.48437C75.8085 3.27131 74.8837 3.1321 74.3965 3.1321C73.8198 3.1321 73.1636 3.33097 72.8653 4.02699L73.4221 4.22585C73.5514 3.94744 73.8571 3.64915 74.4164 3.64915C74.9558 3.64915 75.2218 3.93501 75.2218 4.42472V4.4446C75.2218 4.72798 74.9335 4.70312 74.2374 4.79261C73.529 4.88459 72.7559 5.04119 72.7559 5.91619C72.7559 6.66193 73.3326 7.08949 74.0585 7.08949ZM74.1479 6.5625C73.6806 6.5625 73.3426 6.35369 73.3426 5.94602C73.3426 5.49858 73.7502 5.35938 74.2076 5.29972C74.4562 5.26989 75.1224 5.20028 75.2218 5.08097V5.6179C75.2218 6.09517 74.844 6.5625 74.1479 6.5625ZM78.4204 8.51136C79.3352 8.51136 80.071 8.09375 80.071 7.10937V3.18182H79.5042V3.78835H79.4446C79.3153 3.58949 79.0767 3.1321 78.3309 3.1321C77.3664 3.1321 76.7002 3.89773 76.7002 5.07102C76.7002 6.2642 77.3963 6.94034 78.321 6.94034C79.0667 6.94034 79.3054 6.50284 79.4346 6.29403H79.4843V7.0696C79.4843 7.70597 79.0369 7.99432 78.4204 7.99432C77.7269 7.99432 77.4833 7.62891 77.3267 7.41761L76.8593 7.74574C77.098 8.14595 77.5678 8.51136 78.4204 8.51136ZM78.4005 6.41335C77.6647 6.41335 77.2869 5.85653 77.2869 5.06108C77.2869 4.28551 77.6548 3.65909 78.4005 3.65909C79.1164 3.65909 79.4943 4.2358 79.4943 5.06108C79.4943 5.90625 79.1065 6.41335 78.4005 6.41335ZM81.7315 4.70312C81.7315 4.03693 82.1441 3.65909 82.7059 3.65909C83.2503 3.65909 83.5809 4.01456 83.5809 4.61364V7H84.1676V4.57386C84.1676 3.59943 83.648 3.1321 82.875 3.1321C82.2983 3.1321 81.9403 3.39062 81.7613 3.77841H81.7116V3.18182H81.1448V7H81.7315V4.70312ZM86.7907 7.07955C87.8248 7.07955 88.5208 6.29403 88.5208 5.1108C88.5208 3.91761 87.8248 3.1321 86.7907 3.1321C85.7566 3.1321 85.0606 3.91761 85.0606 5.1108C85.0606 6.29403 85.7566 7.07955 86.7907 7.07955ZM86.7907 6.55256C86.0052 6.55256 85.6472 5.87642 85.6472 5.1108C85.6472 4.34517 86.0052 3.65909 86.7907 3.65909C87.5762 3.65909 87.9342 4.34517 87.9342 5.1108C87.9342 5.87642 87.5762 6.55256 86.7907 6.55256ZM92.1209 4.03693C91.9369 3.49503 91.5243 3.1321 90.7686 3.1321C89.9632 3.1321 89.3666 3.58949 89.3666 4.2358C89.3666 4.76278 89.6798 5.11577 90.3808 5.27983L91.0172 5.42898C91.4025 5.51847 91.5839 5.70241 91.5839 5.96591C91.5839 6.29403 91.2359 6.5625 90.6891 6.5625C90.2093 6.5625 89.9085 6.35618 89.8041 5.94602L89.2473 6.08523C89.384 6.73402 89.9185 7.07955 90.699 7.07955C91.5864 7.07955 92.1905 6.59482 92.1905 5.93608C92.1905 5.40412 91.8574 5.06854 91.1763 4.90199L90.6095 4.76278C90.1571 4.65092 89.9533 4.49929 89.9533 4.20597C89.9533 3.87784 90.3013 3.6392 90.7686 3.6392C91.2807 3.6392 91.492 3.92259 91.5939 4.18608L92.1209 4.03693ZM94.6744 7.07955C95.45 7.07955 96.0167 6.69176 96.1957 6.11506L95.629 5.95597C95.4798 6.35369 95.1343 6.55256 94.6744 6.55256C93.9858 6.55256 93.5111 6.1076 93.4837 5.28977H96.2554V5.04119C96.2554 3.61932 95.4102 3.1321 94.6147 3.1321C93.5807 3.1321 92.8946 3.94744 92.8946 5.12074C92.8946 6.29403 93.5707 7.07955 94.6744 7.07955ZM93.4837 4.78267C93.5235 4.18857 93.9436 3.65909 94.6147 3.65909C95.2511 3.65909 95.6588 4.13636 95.6588 4.78267H93.4837Z" fill="black"/>
<path d="M95.0213 17H95.608V14.5838C95.608 14.0668 96.0156 13.6889 96.5724 13.6889C96.729 13.6889 96.8906 13.7188 96.9304 13.7287V13.1321C96.8633 13.1271 96.7092 13.1222 96.6222 13.1222C96.1648 13.1222 95.767 13.3807 95.6278 13.7585H95.5881V13.1818H95.0213V17ZM99.2267 17.0795C100.002 17.0795 100.569 16.6918 100.748 16.1151L100.181 15.956C100.032 16.3537 99.6865 16.5526 99.2267 16.5526C98.5381 16.5526 98.0633 16.1076 98.036 15.2898H100.808V15.0412C100.808 13.6193 99.9624 13.1321 99.167 13.1321C98.1329 13.1321 97.4468 13.9474 97.4468 15.1207C97.4468 16.294 98.123 17.0795 99.2267 17.0795ZM98.036 14.7827C98.0757 14.1886 98.4958 13.6591 99.167 13.6591C99.8034 13.6591 100.211 14.1364 100.211 14.7827H98.036ZM103.4 13.1818H102.545V12.794C102.545 12.4162 102.704 12.2173 103.092 12.2173C103.261 12.2173 103.361 12.2571 103.42 12.277L103.589 11.7699C103.5 11.7301 103.321 11.6705 103.032 11.6705C102.486 11.6705 101.959 11.9986 101.959 12.6548V13.1818H101.342V13.679H101.959V17H102.545V13.679H103.4V13.1818ZM104.222 17H104.809V13.1818H104.222V17ZM104.521 12.5455C104.749 12.5455 104.938 12.3665 104.938 12.1477C104.938 11.929 104.749 11.75 104.521 11.75C104.292 11.75 104.103 11.929 104.103 12.1477C104.103 12.3665 104.292 12.5455 104.521 12.5455ZM106.47 14.7031C106.47 14.0369 106.883 13.6591 107.445 13.6591C107.989 13.6591 108.32 14.0146 108.32 14.6136V17H108.906V14.5739C108.906 13.5994 108.387 13.1321 107.614 13.1321C107.037 13.1321 106.679 13.3906 106.5 13.7784H106.45V13.1818H105.884V17H106.47V14.7031ZM111.579 17.0795C112.355 17.0795 112.922 16.6918 113.1 16.1151L112.534 15.956C112.385 16.3537 112.039 16.5526 111.579 16.5526C110.891 16.5526 110.416 16.1076 110.388 15.2898H113.16V15.0412C113.16 13.6193 112.315 13.1321 111.52 13.1321C110.485 13.1321 109.799 13.9474 109.799 15.1207C109.799 16.294 110.475 17.0795 111.579 17.0795ZM110.388 14.7827C110.428 14.1886 110.848 13.6591 111.52 13.6591C112.156 13.6591 112.564 14.1364 112.564 14.7827H110.388Z" fill="black"/>
<path d="M43.0555 17.4389C43.0555 18.1548 42.5086 18.483 42.0711 18.483C41.5839 18.483 41.2359 18.125 41.2359 17.5682V15.1818H40.6492V17.608C40.6492 18.5824 41.1663 19.0497 41.8822 19.0497C42.4589 19.0497 42.8367 18.7415 43.0157 18.3537H43.0555V19H43.6421V15.1818H43.0555V17.4389ZM45.3033 16.7031C45.3033 16.0369 45.7159 15.6591 46.2777 15.6591C46.8221 15.6591 47.1527 16.0146 47.1527 16.6136V19H47.7393V16.5739C47.7393 15.5994 47.2198 15.1321 46.4467 15.1321C45.87 15.1321 45.5121 15.3906 45.3331 15.7784H45.2834V15.1818H44.7166V19H45.3033V16.7031ZM50.2531 19.0795C50.9889 19.0795 51.2375 18.6222 51.3667 18.4134H51.4363V19H52.0031V13.9091H51.4165V15.7884H51.3667C51.2375 15.5895 51.0088 15.1321 50.2631 15.1321C49.2986 15.1321 48.6324 15.8977 48.6324 17.1009C48.6324 18.3139 49.2986 19.0795 50.2531 19.0795ZM50.3327 18.5526C49.5969 18.5526 49.219 17.9062 49.219 17.0909C49.219 16.2855 49.5869 15.6591 50.3327 15.6591C51.0486 15.6591 51.4264 16.2358 51.4264 17.0909C51.4264 17.956 51.0386 18.5526 50.3327 18.5526ZM54.7599 19.0795C55.5354 19.0795 56.1022 18.6918 56.2812 18.1151L55.7144 17.956C55.5653 18.3537 55.2197 18.5526 54.7599 18.5526C54.0713 18.5526 53.5965 18.1076 53.5692 17.2898H56.3408V17.0412C56.3408 15.6193 55.4956 15.1321 54.7002 15.1321C53.6661 15.1321 52.98 15.9474 52.98 17.1207C52.98 18.294 53.6562 19.0795 54.7599 19.0795ZM53.5692 16.7827C53.6089 16.1886 54.029 15.6591 54.7002 15.6591C55.3366 15.6591 55.7442 16.1364 55.7442 16.7827H53.5692ZM57.2332 19H57.8199V16.5838C57.8199 16.0668 58.2275 15.6889 58.7844 15.6889C58.941 15.6889 59.1025 15.7188 59.1423 15.7287V15.1321C59.0752 15.1271 58.9211 15.1222 58.8341 15.1222C58.3767 15.1222 57.979 15.3807 57.8398 15.7585H57.8V15.1818H57.2332V19ZM62.5423 16.0369C62.3583 15.495 61.9457 15.1321 61.19 15.1321C60.3846 15.1321 59.788 15.5895 59.788 16.2358C59.788 16.7628 60.1012 17.1158 60.8022 17.2798L61.4386 17.429C61.8239 17.5185 62.0053 17.7024 62.0053 17.9659C62.0053 18.294 61.6573 18.5625 61.1104 18.5625C60.6307 18.5625 60.3299 18.3562 60.2255 17.946L59.6687 18.0852C59.8054 18.734 60.3398 19.0795 61.1204 19.0795C62.0078 19.0795 62.6119 18.5948 62.6119 17.9361C62.6119 17.4041 62.2788 17.0685 61.5977 16.902L61.0309 16.7628C60.5785 16.6509 60.3746 16.4993 60.3746 16.206C60.3746 15.8778 60.7227 15.6392 61.19 15.6392C61.7021 15.6392 61.9134 15.9226 62.0153 16.1861L62.5423 16.0369ZM65.1555 15.1818H64.3401V14.267H63.7535V15.1818H63.1768V15.679H63.7535V18.0653C63.7535 18.7315 64.2904 19.0497 64.7876 19.0497C65.0063 19.0497 65.1455 19.0099 65.2251 18.9801L65.1057 18.4531C65.056 18.4631 64.9765 18.483 64.8472 18.483C64.5887 18.483 64.3401 18.4034 64.3401 17.9062V15.679H65.1555V15.1818ZM67.1615 19.0895C67.8277 19.0895 68.1757 18.7315 68.295 18.483H68.3248V19H68.9115V16.4844C68.9115 15.2713 67.9868 15.1321 67.4996 15.1321C66.9229 15.1321 66.2666 15.331 65.9683 16.027L66.5251 16.2259C66.6544 15.9474 66.9601 15.6491 67.5194 15.6491C68.0589 15.6491 68.3248 15.935 68.3248 16.4247V16.4446C68.3248 16.728 68.0365 16.7031 67.3405 16.7926C66.632 16.8846 65.8589 17.0412 65.8589 17.9162C65.8589 18.6619 66.4356 19.0895 67.1615 19.0895ZM67.251 18.5625C66.7836 18.5625 66.4456 18.3537 66.4456 17.946C66.4456 17.4986 66.8532 17.3594 67.3106 17.2997C67.5592 17.2699 68.2254 17.2003 68.3248 17.081V17.6179C68.3248 18.0952 67.947 18.5625 67.251 18.5625ZM70.5689 16.7031C70.5689 16.0369 70.9815 15.6591 71.5433 15.6591C72.0877 15.6591 72.4183 16.0146 72.4183 16.6136V19H73.005V16.5739C73.005 15.5994 72.4854 15.1321 71.7124 15.1321C71.1357 15.1321 70.7777 15.3906 70.5987 15.7784H70.549V15.1818H69.9822V19H70.5689V16.7031ZM75.5187 19.0795C76.2545 19.0795 76.5031 18.6222 76.6324 18.4134H76.702V19H77.2687V13.9091H76.6821V15.7884H76.6324C76.5031 15.5895 76.2744 15.1321 75.5287 15.1321C74.5642 15.1321 73.898 15.8977 73.898 17.1009C73.898 18.3139 74.5642 19.0795 75.5187 19.0795ZM75.5983 18.5526C74.8625 18.5526 74.4846 17.9062 74.4846 17.0909C74.4846 16.2855 74.8525 15.6591 75.5983 15.6591C76.3142 15.6591 76.692 16.2358 76.692 17.0909C76.692 17.956 76.3042 18.5526 75.5983 18.5526Z" fill="black"/>
<path d="M60 20.5L60 23" stroke="black" stroke-width="0.25" stroke-dasharray="0.5 0.5"/>
<path d="M104 18L104 23" stroke="black" stroke-width="0.25" stroke-dasharray="0.5 0.5"/>
<path d="M2.31676 39.8181H1.70028L0.427557 40.6633L0.427557 41.2897L1.67045 40.4645H1.70028L1.70028 44.9091H2.31676L2.31676 39.8181ZM5.75959 44.9091H6.34624V42.5227C6.34624 41.9634 6.75391 41.5681 7.21129 41.5681C7.65625 41.5681 7.96697 41.859 7.96697 42.294V44.9091H8.56357V42.4233C8.56357 41.9311 8.8718 41.5681 9.40874 41.5681C9.82635 41.5681 10.1843 41.7894 10.1843 42.3537V44.9091H10.771V42.3537C10.771 41.4563 10.2887 41.0412 9.6076 41.0412C9.06072 41.0412 8.66051 41.2922 8.46413 41.6875H8.42436C8.23544 41.2798 7.90234 41.0412 7.40021 41.0412C6.90305 41.0412 6.53516 41.2798 6.37607 41.6875H6.32635V41.0909H5.75959V44.9091ZM13.4444 44.9886C14.22 44.9886 14.7868 44.6008 14.9657 44.0241L14.399 43.865C14.2498 44.2628 13.9043 44.4616 13.4444 44.4616C12.7559 44.4616 12.2811 44.0167 12.2537 43.1988H15.0254V42.9503C15.0254 41.5284 14.1802 41.0412 13.3848 41.0412C12.3507 41.0412 11.6646 41.8565 11.6646 43.0298C11.6646 44.2031 12.3407 44.9886 13.4444 44.9886ZM12.2537 42.6917C12.2935 42.0976 12.7136 41.5681 13.3848 41.5681C14.0211 41.5681 14.4288 42.0454 14.4288 42.6917H12.2537ZM17.3596 44.9886C18.0953 44.9886 18.3439 44.5312 18.4732 44.3224H18.5428V44.9091H19.1096V39.8181H18.5229V41.6974H18.4732C18.3439 41.4985 18.1152 41.0412 17.3695 41.0412C16.405 41.0412 15.7388 41.8068 15.7388 43.0099C15.7388 44.223 16.405 44.9886 17.3596 44.9886ZM17.4391 44.4616C16.7033 44.4616 16.3255 43.8153 16.3255 43C16.3255 42.1946 16.6934 41.5681 17.4391 41.5681C18.155 41.5681 18.5328 42.1449 18.5328 43C18.5328 43.865 18.1451 44.4616 17.4391 44.4616ZM20.2654 44.9091H20.8521V41.0909H20.2654V44.9091ZM20.5637 40.4545C20.7924 40.4545 20.9814 40.2755 20.9814 40.0568C20.9814 39.838 20.7924 39.6591 20.5637 39.6591C20.335 39.6591 20.1461 39.838 20.1461 40.0568C20.1461 40.2755 20.335 40.4545 20.5637 40.4545ZM24.3328 43.348C24.3328 44.0639 23.786 44.392 23.3485 44.392C22.8612 44.392 22.5132 44.0341 22.5132 43.4772V41.0909H21.9266V43.517C21.9266 44.4914 22.4436 44.9588 23.1595 44.9588C23.7362 44.9588 24.1141 44.6505 24.2931 44.2628H24.3328V44.9091H24.9195V41.0909H24.3328V43.348ZM25.994 44.9091H26.5806V42.5227C26.5806 41.9634 26.9883 41.5681 27.4457 41.5681C27.8906 41.5681 28.2013 41.859 28.2013 42.294V44.9091H28.7979V42.4233C28.7979 41.9311 29.1062 41.5681 29.6431 41.5681C30.0607 41.5681 30.4187 41.7894 30.4187 42.3537V44.9091H31.0053V42.3537C31.0053 41.4563 30.5231 41.0412 29.842 41.0412C29.2951 41.0412 28.8949 41.2922 28.6985 41.6875H28.6587C28.4698 41.2798 28.1367 41.0412 27.6346 41.0412C27.1374 41.0412 26.7695 41.2798 26.6104 41.6875H26.5607V41.0909H25.994V44.9091Z" fill="black"/>
<path d="M0.526989 34H3.73864V33.4531H1.37216V33.4134L2.51562 32.1903C3.39062 31.2532 3.64915 30.8157 3.64915 30.2514C3.64915 29.4659 3.01278 28.8395 2.1179 28.8395C1.2255 28.8395 0.546875 29.446 0.546875 30.3409H1.13352C1.13352 29.7617 1.50888 29.3764 2.09801 29.3764C2.64986 29.3764 3.07244 29.7145 3.07244 30.2514C3.07244 30.7212 2.79652 31.0692 2.20739 31.7131L0.526989 33.5526V34ZM6.74396 34H7.33061V31.6136C7.33061 31.0543 7.73828 30.6591 8.19567 30.6591C8.64062 30.6591 8.95135 30.9499 8.95135 31.3849V34H9.54794V31.5142C9.54794 31.022 9.85618 30.6591 10.3931 30.6591C10.8107 30.6591 11.1687 30.8803 11.1687 31.4446V34H11.7553V31.4446C11.7553 30.5472 11.2731 30.1321 10.592 30.1321C10.0451 30.1321 9.64489 30.3832 9.44851 30.7784H9.40874C9.21982 30.3707 8.88672 30.1321 8.38459 30.1321C7.88743 30.1321 7.51953 30.3707 7.36044 30.7784H7.31072V30.1818H6.74396V34ZM14.4288 34.0795C15.2044 34.0795 15.7711 33.6918 15.9501 33.1151L15.3833 32.956C15.2342 33.3537 14.8887 33.5526 14.4288 33.5526C13.7402 33.5526 13.2654 33.1076 13.2381 32.2898H16.0098V32.0412C16.0098 30.6193 15.1646 30.1321 14.3691 30.1321C13.335 30.1321 12.649 30.9474 12.649 32.1207C12.649 33.294 13.3251 34.0795 14.4288 34.0795ZM13.2381 31.7827C13.2779 31.1886 13.698 30.6591 14.3691 30.6591C15.0055 30.6591 15.4132 31.1364 15.4132 31.7827H13.2381ZM18.3439 34.0795C19.0797 34.0795 19.3283 33.6222 19.4576 33.4134H19.5272V34H20.0939V28.9091H19.5073V30.7884H19.4576C19.3283 30.5895 19.0996 30.1321 18.3539 30.1321C17.3894 30.1321 16.7232 30.8977 16.7232 32.1009C16.7232 33.3139 17.3894 34.0795 18.3439 34.0795ZM18.4235 33.5526C17.6877 33.5526 17.3098 32.9062 17.3098 32.0909C17.3098 31.2855 17.6777 30.6591 18.4235 30.6591C19.1394 30.6591 19.5172 31.2358 19.5172 32.0909C19.5172 32.956 19.1294 33.5526 18.4235 33.5526ZM21.2498 34H21.8365V30.1818H21.2498V34ZM21.5481 29.5455C21.7768 29.5455 21.9657 29.3665 21.9657 29.1477C21.9657 28.929 21.7768 28.75 21.5481 28.75C21.3194 28.75 21.1305 28.929 21.1305 29.1477C21.1305 29.3665 21.3194 29.5455 21.5481 29.5455ZM24.0345 34.0895C24.7007 34.0895 25.0487 33.7315 25.1681 33.483H25.1979V34H25.7845V31.4844C25.7845 30.2713 24.8598 30.1321 24.3726 30.1321C23.7959 30.1321 23.1396 30.331 22.8414 31.027L23.3982 31.2259C23.5274 30.9474 23.8332 30.6491 24.3925 30.6491C24.9319 30.6491 25.1979 30.935 25.1979 31.4247V31.4446C25.1979 31.728 24.9095 31.7031 24.2135 31.7926C23.5051 31.8846 22.732 32.0412 22.732 32.9162C22.732 33.6619 23.3087 34.0895 24.0345 34.0895ZM24.124 33.5625C23.6567 33.5625 23.3186 33.3537 23.3186 32.946C23.3186 32.4986 23.7263 32.3594 24.1837 32.2997C24.4323 32.2699 25.0985 32.2003 25.1979 32.081V32.6179C25.1979 33.0952 24.82 33.5625 24.124 33.5625Z" fill="black"/>
<path d="M125 25H113" stroke="black" stroke-width="0.25" stroke-dasharray="0.5 0.5"/>
<path d="M35 44H114" stroke="black" stroke-width="0.25" stroke-dasharray="0.5 0.5"/>
<path d="M35 37H114" stroke="black" stroke-width="0.25" stroke-dasharray="0.5 0.5"/>
<path d="M128.749 21.724L129.547 20.982L128.63 20.8L128.833 20.387L129.631 20.814L129.666 19.82H130.065L129.771 20.814L130.709 20.387L130.772 20.8L129.799 20.982L130.345 21.724L129.96 21.976L129.652 21.108L129.057 21.976L128.749 21.724ZM133.672 20.905C133.564 20.905 133.471 20.8653 133.392 20.786C133.312 20.7067 133.273 20.6133 133.273 20.506C133.273 20.3987 133.312 20.3053 133.392 20.226C133.471 20.1467 133.564 20.107 133.672 20.107C133.779 20.107 133.872 20.1467 133.952 20.226C134.031 20.3053 134.071 20.3987 134.071 20.506C134.071 20.6133 134.031 20.7067 133.952 20.786C133.872 20.8653 133.779 20.905 133.672 20.905ZM133.175 25.07C133.011 25.07 132.899 25.007 132.839 24.881C132.778 24.755 132.766 24.587 132.804 24.377L133.175 22.27L132.566 22.032V21.99L133.777 21.78H133.798L133.371 24.167C133.347 24.307 133.343 24.4073 133.357 24.468C133.371 24.5287 133.41 24.559 133.476 24.559C133.555 24.559 133.641 24.517 133.735 24.433C133.828 24.3443 133.917 24.2113 134.001 24.034L134.092 24.076C133.956 24.426 133.809 24.6803 133.651 24.839C133.497 24.993 133.338 25.07 133.175 25.07ZM133.777 26.68C133.67 26.68 133.586 26.6543 133.525 26.603C133.465 26.5563 133.434 26.5027 133.434 26.442C133.434 26.4 133.448 26.351 133.476 26.295L133.574 26.085H133.616L133.749 26.162C133.819 26.204 133.915 26.225 134.036 26.225C134.246 26.225 134.41 26.1223 134.526 25.917C134.648 25.7117 134.734 25.4457 134.785 25.119L135.219 22.158H134.666V21.85H135.261L135.303 21.57C135.317 21.4767 135.359 21.3553 135.429 21.206C135.499 21.0567 135.593 20.9003 135.709 20.737C135.826 20.569 135.959 20.4103 136.108 20.261C136.262 20.1117 136.426 19.9903 136.598 19.897C136.776 19.799 136.958 19.75 137.144 19.75C137.186 19.75 137.231 19.757 137.277 19.771C137.324 19.7803 137.361 19.792 137.389 19.806C137.45 19.8387 137.492 19.869 137.515 19.897C137.539 19.9203 137.55 19.9483 137.55 19.981C137.55 19.9997 137.543 20.0253 137.529 20.058C137.52 20.086 137.508 20.1117 137.494 20.135L137.382 20.345H137.333L137.172 20.268C137.056 20.2167 136.916 20.191 136.752 20.191C136.51 20.191 136.316 20.2937 136.171 20.499C136.027 20.7043 135.931 20.968 135.884 21.29L135.8 21.85H136.591V22.158H135.758L135.359 24.853C135.345 24.9417 135.308 25.0607 135.247 25.21C135.187 25.364 135.105 25.525 135.002 25.693C134.904 25.861 134.79 26.0197 134.659 26.169C134.533 26.3183 134.396 26.4397 134.246 26.533C134.097 26.631 133.941 26.68 133.777 26.68ZM137.681 26.68C137.573 26.68 137.489 26.6543 137.429 26.603C137.368 26.5563 137.338 26.5027 137.338 26.442C137.338 26.4 137.352 26.351 137.38 26.295L137.478 26.085H137.52L137.653 26.162C137.723 26.204 137.818 26.225 137.94 26.225C138.15 26.225 138.313 26.1223 138.43 25.917C138.551 25.7117 138.637 25.4457 138.689 25.119L139.123 22.158H138.57V21.85H139.165L139.207 21.57C139.221 21.4767 139.263 21.3553 139.333 21.206C139.403 21.0567 139.496 20.9003 139.613 20.737C139.729 20.569 139.862 20.4103 140.012 20.261C140.166 20.1117 140.329 19.9903 140.502 19.897C140.679 19.799 140.861 19.75 141.048 19.75C141.09 19.75 141.134 19.757 141.181 19.771C141.227 19.7803 141.265 19.792 141.293 19.806C141.353 19.8387 141.395 19.869 141.419 19.897C141.442 19.9203 141.454 19.9483 141.454 19.981C141.454 19.9997 141.447 20.0253 141.433 20.058C141.423 20.086 141.412 20.1117 141.398 20.135L141.286 20.345H141.237L141.076 20.268C140.959 20.2167 140.819 20.191 140.656 20.191C140.413 20.191 140.219 20.2937 140.075 20.499C139.93 20.7043 139.834 20.968 139.788 21.29L139.704 21.85H140.495V22.158H139.662L139.263 24.853C139.249 24.9417 139.211 25.0607 139.151 25.21C139.09 25.364 139.008 25.525 138.906 25.693C138.808 25.861 138.693 26.0197 138.563 26.169C138.437 26.3183 138.299 26.4397 138.15 26.533C138 26.631 137.844 26.68 137.681 26.68ZM141.568 25.07C141.395 25.07 141.253 25.0023 141.141 24.867C141.034 24.7317 140.98 24.5473 140.98 24.314C140.98 24.2673 140.982 24.2207 140.987 24.174C140.996 24.1273 141.003 24.0807 141.008 24.034L141.323 22.277L140.777 22.032V21.99L141.897 21.78H141.925L141.561 23.922C141.542 24.0387 141.533 24.1227 141.533 24.174C141.533 24.3047 141.563 24.4167 141.624 24.51C141.689 24.5987 141.794 24.643 141.939 24.643C142.037 24.643 142.135 24.608 142.233 24.538C142.336 24.468 142.434 24.384 142.527 24.286C142.62 24.188 142.704 24.097 142.779 24.013L143.08 22.277L142.597 22.032V21.99L143.661 21.78H143.689L143.269 24.167C143.246 24.307 143.241 24.4073 143.255 24.468C143.274 24.5287 143.318 24.559 143.388 24.559C143.467 24.559 143.554 24.517 143.647 24.433C143.74 24.3443 143.829 24.2113 143.913 24.034L144.004 24.076C143.869 24.426 143.722 24.6803 143.563 24.839C143.409 24.993 143.25 25.07 143.087 25.07C142.924 25.07 142.812 25.007 142.751 24.881C142.695 24.755 142.683 24.587 142.716 24.377L142.723 24.335H142.702C142.543 24.5123 142.406 24.6547 142.289 24.762C142.172 24.8693 142.058 24.9487 141.946 25C141.839 25.0467 141.713 25.07 141.568 25.07ZM144.819 25.07C144.656 25.07 144.544 25.007 144.483 24.881C144.423 24.755 144.411 24.587 144.448 24.377L145.169 20.24L144.56 20.002V19.96L145.771 19.75H145.792L145.015 24.167C144.992 24.307 144.987 24.4073 145.001 24.468C145.015 24.5287 145.055 24.559 145.12 24.559C145.2 24.559 145.286 24.517 145.379 24.433C145.473 24.3443 145.561 24.2113 145.645 24.034L145.736 24.076C145.601 24.426 145.454 24.6803 145.295 24.839C145.141 24.993 144.983 25.07 144.819 25.07ZM146.624 25.07C146.461 25.07 146.349 25.007 146.288 24.881C146.227 24.755 146.216 24.587 146.253 24.377L146.974 20.24L146.365 20.002V19.96L147.576 19.75H147.597L146.82 24.167C146.797 24.307 146.792 24.4073 146.806 24.468C146.82 24.5287 146.86 24.559 146.925 24.559C147.004 24.559 147.091 24.517 147.184 24.433C147.277 24.3443 147.366 24.2113 147.45 24.034L147.541 24.076C147.406 24.426 147.259 24.6803 147.1 24.839C146.946 24.993 146.787 25.07 146.624 25.07ZM149.831 21.626L152.54 22.921L152.484 23.271L149.32 24.566L149.383 24.202L152.127 23.075L149.775 21.955L149.831 21.626ZM155.475 25.07C155.321 25.07 155.204 25.021 155.125 24.923C155.045 24.825 155.006 24.6873 155.006 24.51C155.006 24.4727 155.008 24.4307 155.013 24.384C155.017 24.3373 155.024 24.2907 155.034 24.244L155.405 22.158H154.887V22.116L155.482 21.85L156.084 21.08H156.126L155.993 21.85H156.868V22.158H155.937L155.622 23.936C155.612 23.9967 155.605 24.0527 155.601 24.104C155.596 24.1507 155.594 24.1927 155.594 24.23C155.594 24.342 155.612 24.4213 155.65 24.468C155.687 24.5147 155.736 24.538 155.797 24.538C155.904 24.538 156.018 24.4773 156.14 24.356C156.266 24.2347 156.38 24.0597 156.483 23.831L156.574 23.873C156.42 24.3163 156.247 24.6267 156.056 24.804C155.869 24.9813 155.675 25.07 155.475 25.07ZM157.501 25H156.969L157.802 20.254L157.256 20.009V19.967L158.404 19.757H158.425L157.942 22.515H157.956C158.119 22.333 158.261 22.1883 158.383 22.081C158.509 21.9737 158.63 21.8967 158.747 21.85C158.868 21.8033 159.003 21.78 159.153 21.78C159.381 21.78 159.556 21.8733 159.678 22.06C159.804 22.2467 159.839 22.4987 159.783 22.816L159.538 24.167C159.514 24.307 159.51 24.4073 159.524 24.468C159.538 24.5287 159.577 24.559 159.643 24.559C159.722 24.559 159.808 24.517 159.902 24.433C159.995 24.3443 160.084 24.2113 160.168 24.034L160.259 24.076C160.123 24.426 159.976 24.6803 159.818 24.839C159.664 24.993 159.505 25.07 159.342 25.07C159.178 25.07 159.066 25.007 159.006 24.881C158.945 24.755 158.933 24.587 158.971 24.377L159.244 22.837C159.267 22.6737 159.246 22.529 159.181 22.403C159.12 22.2723 158.987 22.207 158.782 22.207C158.679 22.207 158.574 22.242 158.467 22.312C158.359 22.3773 158.254 22.459 158.152 22.557C158.049 22.6503 157.96 22.739 157.886 22.823L157.501 25ZM161.7 25.07C161.34 25.07 161.077 24.972 160.909 24.776C160.741 24.5753 160.657 24.3047 160.657 23.964C160.657 23.6887 160.701 23.4227 160.79 23.166C160.883 22.9047 161.009 22.6713 161.168 22.466C161.331 22.256 161.518 22.0903 161.728 21.969C161.942 21.843 162.173 21.78 162.421 21.78C162.654 21.78 162.829 21.8337 162.946 21.941C163.067 22.0483 163.128 22.1743 163.128 22.319C163.128 22.4777 163.072 22.6247 162.96 22.76C162.848 22.8907 162.652 23.012 162.372 23.124C162.096 23.2313 161.707 23.327 161.203 23.411C161.193 23.5043 161.189 23.6023 161.189 23.705C161.189 23.9897 161.249 24.216 161.371 24.384C161.492 24.552 161.683 24.636 161.945 24.636C162.099 24.636 162.25 24.594 162.4 24.51C162.549 24.426 162.703 24.2883 162.862 24.097H162.876L162.946 24.153C162.787 24.4283 162.596 24.65 162.372 24.818C162.152 24.986 161.928 25.07 161.7 25.07ZM162.232 22.025C161.98 22.025 161.765 22.13 161.588 22.34C161.415 22.5453 161.298 22.8183 161.238 23.159C161.588 23.0983 161.861 23.033 162.057 22.963C162.253 22.893 162.39 22.8113 162.47 22.718C162.549 22.62 162.589 22.4987 162.589 22.354C162.589 22.2607 162.558 22.1837 162.498 22.123C162.437 22.0577 162.348 22.025 162.232 22.025ZM127.811 35.61V35.498L128.196 35.302L128.91 31.277L128.364 31.032V30.99L129.358 30.78H129.379V31.655H129.407C129.58 31.3843 129.764 31.172 129.96 31.018C130.161 30.8593 130.368 30.78 130.583 30.78C130.77 30.78 130.919 30.8617 131.031 31.025C131.148 31.1883 131.206 31.4287 131.206 31.746C131.206 32.0353 131.159 32.3177 131.066 32.593C130.977 32.8683 130.851 33.118 130.688 33.342C130.529 33.566 130.345 33.7433 130.135 33.874C129.925 34.0047 129.701 34.07 129.463 34.07C129.374 34.07 129.288 34.0607 129.204 34.042C129.12 34.028 129.043 34.007 128.973 33.979L128.756 35.295L129.316 35.498V35.61H127.811ZM130.254 31.242C130.142 31.242 130.03 31.2793 129.918 31.354C129.806 31.4287 129.699 31.5243 129.596 31.641C129.493 31.7577 129.4 31.879 129.316 32.005L129.071 33.426C129.16 33.5473 129.246 33.6407 129.33 33.706C129.419 33.7667 129.531 33.797 129.666 33.797C129.867 33.797 130.042 33.7107 130.191 33.538C130.345 33.3653 130.464 33.1437 130.548 32.873C130.632 32.6023 130.674 32.3177 130.674 32.019C130.674 31.7577 130.644 31.564 130.583 31.438C130.527 31.3073 130.417 31.242 130.254 31.242ZM131.856 34L132.339 31.277L131.793 31.032V30.99L132.78 30.78H132.801V31.641H132.829C132.978 31.3657 133.104 31.1697 133.207 31.053C133.314 30.9317 133.407 30.857 133.487 30.829C133.571 30.7963 133.645 30.78 133.711 30.78C133.795 30.78 133.872 30.808 133.942 30.864C134.012 30.9153 134.047 30.976 134.047 31.046C134.047 31.0693 134.04 31.095 134.026 31.123L133.851 31.48H133.809L133.732 31.424C133.694 31.396 133.652 31.3773 133.606 31.368C133.564 31.354 133.522 31.347 133.48 31.347C133.396 31.347 133.319 31.3657 133.249 31.403C133.183 31.4357 133.109 31.508 133.025 31.62C132.945 31.7273 132.843 31.8907 132.717 32.11L132.388 34H131.856ZM135.371 34.07C134.965 34.07 134.664 33.944 134.468 33.692C134.277 33.44 134.181 33.1133 134.181 32.712C134.181 32.4927 134.221 32.271 134.3 32.047C134.379 31.8183 134.494 31.6083 134.643 31.417C134.792 31.2257 134.97 31.0717 135.175 30.955C135.38 30.8383 135.607 30.78 135.854 30.78C136.26 30.78 136.559 30.906 136.75 31.158C136.946 31.41 137.044 31.7367 137.044 32.138C137.044 32.348 137.004 32.5673 136.925 32.796C136.85 33.02 136.738 33.23 136.589 33.426C136.444 33.6173 136.269 33.7737 136.064 33.895C135.859 34.0117 135.628 34.07 135.371 34.07ZM135.448 33.804C135.649 33.804 135.824 33.727 135.973 33.573C136.122 33.4143 136.237 33.2067 136.316 32.95C136.395 32.6887 136.435 32.404 136.435 32.096C136.435 31.7507 136.388 31.4893 136.295 31.312C136.206 31.13 136.038 31.039 135.791 31.039C135.595 31.039 135.42 31.1113 135.266 31.256C135.117 31.396 135 31.592 134.916 31.844C134.832 32.096 134.79 32.3923 134.79 32.733C134.79 33.0783 134.837 33.3443 134.93 33.531C135.023 33.713 135.196 33.804 135.448 33.804ZM138.765 29.905C138.657 29.905 138.564 29.8653 138.485 29.786C138.405 29.7067 138.366 29.6133 138.366 29.506C138.366 29.3987 138.405 29.3053 138.485 29.226C138.564 29.1467 138.657 29.107 138.765 29.107C138.872 29.107 138.965 29.1467 139.045 29.226C139.124 29.3053 139.164 29.3987 139.164 29.506C139.164 29.6133 139.124 29.7067 139.045 29.786C138.965 29.8653 138.872 29.905 138.765 29.905ZM136.861 35.61V35.498C137.019 35.3953 137.159 35.281 137.281 35.155C137.397 35.0337 137.495 34.8867 137.575 34.714C137.659 34.5413 137.724 34.3267 137.771 34.07L138.268 31.27L137.659 31.032V30.99L138.87 30.78H138.891L138.317 34C138.251 34.3453 138.09 34.651 137.834 34.917C137.582 35.1877 137.257 35.4187 136.861 35.61ZM140.802 34.07C140.443 34.07 140.179 33.972 140.011 33.776C139.843 33.5753 139.759 33.3047 139.759 32.964C139.759 32.6887 139.804 32.4227 139.892 32.166C139.986 31.9047 140.112 31.6713 140.27 31.466C140.434 31.256 140.62 31.0903 140.83 30.969C141.045 30.843 141.276 30.78 141.523 30.78C141.757 30.78 141.932 30.8337 142.048 30.941C142.17 31.0483 142.23 31.1743 142.23 31.319C142.23 31.4777 142.174 31.6247 142.062 31.76C141.95 31.8907 141.754 32.012 141.474 32.124C141.199 32.2313 140.809 32.327 140.305 32.411C140.296 32.5043 140.291 32.6023 140.291 32.705C140.291 32.9897 140.352 33.216 140.473 33.384C140.595 33.552 140.786 33.636 141.047 33.636C141.201 33.636 141.353 33.594 141.502 33.51C141.652 33.426 141.806 33.2883 141.964 33.097H141.978L142.048 33.153C141.89 33.4283 141.698 33.65 141.474 33.818C141.255 33.986 141.031 34.07 140.802 34.07ZM141.334 31.025C141.082 31.025 140.868 31.13 140.69 31.34C140.518 31.5453 140.401 31.8183 140.34 32.159C140.69 32.0983 140.963 32.033 141.159 31.963C141.355 31.893 141.493 31.8113 141.572 31.718C141.652 31.62 141.691 31.4987 141.691 31.354C141.691 31.2607 141.661 31.1837 141.6 31.123C141.54 31.0577 141.451 31.025 141.334 31.025ZM143.899 34.07C143.563 34.07 143.306 33.9697 143.129 33.769C142.951 33.5637 142.863 33.2673 142.863 32.88C142.863 32.6373 142.909 32.3947 143.003 32.152C143.101 31.9047 143.231 31.6783 143.395 31.473C143.563 31.263 143.749 31.095 143.955 30.969C144.165 30.843 144.379 30.78 144.599 30.78C144.771 30.78 144.911 30.8127 145.019 30.878C145.126 30.9387 145.212 31.0203 145.278 31.123C145.306 31.165 145.324 31.2 145.334 31.228C145.343 31.256 145.348 31.2863 145.348 31.319C145.348 31.3517 145.338 31.3843 145.32 31.417C145.306 31.4497 145.28 31.4777 145.243 31.501L145.04 31.62H144.991L144.851 31.417C144.776 31.305 144.699 31.2233 144.62 31.172C144.545 31.116 144.435 31.088 144.291 31.088C144.137 31.088 143.99 31.1627 143.85 31.312C143.714 31.4613 143.602 31.6527 143.514 31.886C143.43 32.1147 143.388 32.355 143.388 32.607C143.388 32.9383 143.444 33.1927 143.556 33.37C143.672 33.5473 143.859 33.636 144.116 33.636C144.195 33.636 144.284 33.622 144.382 33.594C144.48 33.5613 144.587 33.4983 144.704 33.405C144.82 33.307 144.949 33.16 145.089 32.964H145.103L145.173 33.02C144.972 33.3747 144.769 33.6383 144.564 33.811C144.358 33.9837 144.137 34.07 143.899 34.07ZM146.417 34.07C146.263 34.07 146.146 34.021 146.067 33.923C145.988 33.825 145.948 33.6873 145.948 33.51C145.948 33.4727 145.95 33.4307 145.955 33.384C145.96 33.3373 145.967 33.2907 145.976 33.244L146.347 31.158H145.829V31.116L146.424 30.85L147.026 30.08H147.068L146.935 30.85H147.81V31.158H146.879L146.564 32.936C146.555 32.9967 146.548 33.0527 146.543 33.104C146.538 33.1507 146.536 33.1927 146.536 33.23C146.536 33.342 146.555 33.4213 146.592 33.468C146.629 33.5147 146.678 33.538 146.739 33.538C146.846 33.538 146.961 33.4773 147.082 33.356C147.208 33.2347 147.322 33.0597 147.425 32.831L147.516 32.873C147.362 33.3163 147.189 33.6267 146.998 33.804C146.811 33.9813 146.618 34.07 146.417 34.07ZM150.741 29.905C150.634 29.905 150.54 29.8653 150.461 29.786C150.382 29.7067 150.342 29.6133 150.342 29.506C150.342 29.3987 150.382 29.3053 150.461 29.226C150.54 29.1467 150.634 29.107 150.741 29.107C150.848 29.107 150.942 29.1467 151.021 29.226C151.1 29.3053 151.14 29.3987 151.14 29.506C151.14 29.6133 151.1 29.7067 151.021 29.786C150.942 29.8653 150.848 29.905 150.741 29.905ZM150.244 34.07C150.081 34.07 149.969 34.007 149.908 33.881C149.847 33.755 149.836 33.587 149.873 33.377L150.244 31.27L149.635 31.032V30.99L150.846 30.78H150.867L150.44 33.167C150.417 33.307 150.412 33.4073 150.426 33.468C150.44 33.5287 150.48 33.559 150.545 33.559C150.624 33.559 150.711 33.517 150.804 33.433C150.897 33.3443 150.986 33.2113 151.07 33.034L151.161 33.076C151.026 33.426 150.879 33.6803 150.72 33.839C150.566 33.993 150.407 34.07 150.244 34.07ZM152.373 34.07C152.135 34.07 151.941 34.0373 151.792 33.972C151.642 33.902 151.535 33.8157 151.47 33.713C151.442 33.671 151.423 33.636 151.414 33.608C151.404 33.58 151.4 33.5497 151.4 33.517C151.4 33.489 151.404 33.461 151.414 33.433C151.423 33.4003 151.446 33.3747 151.484 33.356L151.638 33.272H151.687L151.806 33.475C151.876 33.5917 151.969 33.6803 152.086 33.741C152.202 33.797 152.319 33.825 152.436 33.825C152.613 33.825 152.758 33.7783 152.87 33.685C152.986 33.5917 153.045 33.4563 153.045 33.279C153.045 33.097 152.984 32.957 152.863 32.859C152.746 32.761 152.613 32.6677 152.464 32.579C152.286 32.4717 152.153 32.3737 152.065 32.285C151.976 32.1963 151.915 32.1053 151.883 32.012C151.85 31.9187 151.834 31.8067 151.834 31.676C151.834 31.5407 151.885 31.4053 151.988 31.27C152.09 31.13 152.226 31.0133 152.394 30.92C152.562 30.8267 152.739 30.78 152.926 30.78C153.131 30.78 153.292 30.8127 153.409 30.878C153.525 30.9387 153.616 31.018 153.682 31.116C153.724 31.1813 153.745 31.242 153.745 31.298C153.745 31.3307 153.735 31.3633 153.717 31.396C153.703 31.4287 153.679 31.4543 153.647 31.473L153.514 31.543H153.465L153.311 31.326C153.245 31.2327 153.171 31.1627 153.087 31.116C153.007 31.0647 152.907 31.039 152.786 31.039C152.65 31.039 152.534 31.081 152.436 31.165C152.342 31.2443 152.296 31.3493 152.296 31.48C152.296 31.6293 152.34 31.753 152.429 31.851C152.522 31.949 152.629 32.033 152.751 32.103C152.919 32.201 153.056 32.2943 153.164 32.383C153.276 32.4717 153.36 32.572 153.416 32.684C153.472 32.796 153.5 32.9383 153.5 33.111C153.5 33.2743 153.451 33.4307 153.353 33.58C153.255 33.7247 153.119 33.8437 152.947 33.937C152.779 34.0257 152.587 34.07 152.373 34.07ZM156.473 34.07C156.287 34.07 156.135 33.9907 156.018 33.832C155.906 33.6687 155.85 33.426 155.85 33.104C155.85 32.8147 155.895 32.5323 155.983 32.257C156.077 31.9817 156.203 31.732 156.361 31.508C156.525 31.284 156.711 31.1067 156.921 30.976C157.131 30.8453 157.355 30.78 157.593 30.78C157.71 30.78 157.822 30.794 157.929 30.822C158.037 30.85 158.132 30.8873 158.216 30.934L158.461 30.78H158.636L158.209 33.167C158.186 33.307 158.181 33.4073 158.195 33.468C158.214 33.5287 158.254 33.559 158.314 33.559C158.394 33.559 158.48 33.517 158.573 33.433C158.667 33.3443 158.755 33.2113 158.839 33.034L158.93 33.076C158.795 33.426 158.648 33.6803 158.489 33.839C158.335 33.993 158.177 34.07 158.013 34.07C157.85 34.07 157.738 34.007 157.677 33.881C157.617 33.755 157.605 33.587 157.642 33.377L157.677 33.195H157.649C157.472 33.4657 157.285 33.6803 157.089 33.839C156.893 33.993 156.688 34.07 156.473 34.07ZM156.382 32.831C156.382 33.0923 156.41 33.2883 156.466 33.419C156.527 33.545 156.639 33.608 156.802 33.608C156.914 33.608 157.026 33.5707 157.138 33.496C157.25 33.4213 157.358 33.3257 157.46 33.209C157.563 33.0923 157.654 32.9733 157.733 32.852L157.992 31.41C157.904 31.2933 157.813 31.2047 157.719 31.144C157.631 31.0833 157.521 31.053 157.39 31.053C157.19 31.053 157.012 31.1393 156.858 31.312C156.709 31.4847 156.592 31.7063 156.508 31.977C156.424 32.2477 156.382 32.5323 156.382 32.831ZM160.441 29.905C160.334 29.905 160.241 29.8653 160.161 29.786C160.082 29.7067 160.042 29.6133 160.042 29.506C160.042 29.3987 160.082 29.3053 160.161 29.226C160.241 29.1467 160.334 29.107 160.441 29.107C160.549 29.107 160.642 29.1467 160.721 29.226C160.801 29.3053 160.84 29.3987 160.84 29.506C160.84 29.6133 160.801 29.7067 160.721 29.786C160.642 29.8653 160.549 29.905 160.441 29.905ZM159.944 34.07C159.781 34.07 159.669 34.007 159.608 33.881C159.548 33.755 159.536 33.587 159.573 33.377L159.944 31.27L159.335 31.032V30.99L160.546 30.78H160.567L160.14 33.167C160.117 33.307 160.112 33.4073 160.126 33.468C160.14 33.5287 160.18 33.559 160.245 33.559C160.325 33.559 160.411 33.517 160.504 33.433C160.598 33.3443 160.686 33.2113 160.77 33.034L160.861 33.076C160.726 33.426 160.579 33.6803 160.42 33.839C160.266 33.993 160.108 34.07 159.944 34.07ZM161.387 34L161.87 31.277L161.324 31.032V30.99L162.318 30.78H162.339V31.515H162.367C162.53 31.333 162.67 31.1883 162.787 31.081C162.904 30.9737 163.018 30.8967 163.13 30.85C163.242 30.8033 163.373 30.78 163.522 30.78C163.695 30.78 163.837 30.8453 163.949 30.976C164.061 31.1067 164.122 31.2863 164.131 31.515H164.166C164.329 31.333 164.469 31.1883 164.586 31.081C164.703 30.9737 164.815 30.8967 164.922 30.85C165.034 30.8033 165.167 30.78 165.321 30.78C165.531 30.78 165.694 30.8733 165.811 31.06C165.928 31.2467 165.958 31.4987 165.902 31.816L165.657 33.167C165.634 33.307 165.629 33.4073 165.643 33.468C165.657 33.5287 165.697 33.559 165.762 33.559C165.841 33.559 165.928 33.517 166.021 33.433C166.114 33.3443 166.203 33.2113 166.287 33.034L166.378 33.076C166.243 33.426 166.096 33.6803 165.937 33.839C165.783 33.993 165.624 34.07 165.461 34.07C165.298 34.07 165.186 34.007 165.125 33.881C165.064 33.755 165.053 33.587 165.09 33.377L165.363 31.837C165.391 31.6737 165.375 31.529 165.314 31.403C165.258 31.2723 165.137 31.207 164.95 31.207C164.847 31.207 164.745 31.242 164.642 31.312C164.544 31.3773 164.448 31.459 164.355 31.557C164.262 31.6503 164.178 31.739 164.103 31.823L163.711 34H163.179L163.564 31.837C163.592 31.6737 163.576 31.529 163.515 31.403C163.459 31.2723 163.338 31.207 163.151 31.207C163.048 31.207 162.946 31.242 162.843 31.312C162.74 31.382 162.64 31.466 162.542 31.564C162.449 31.6573 162.365 31.7483 162.29 31.837L161.919 34H161.387ZM167.825 34.07C167.465 34.07 167.202 33.972 167.034 33.776C166.866 33.5753 166.782 33.3047 166.782 32.964C166.782 32.6887 166.826 32.4227 166.915 32.166C167.008 31.9047 167.134 31.6713 167.293 31.466C167.456 31.256 167.643 31.0903 167.853 30.969C168.067 30.843 168.298 30.78 168.546 30.78C168.779 30.78 168.954 30.8337 169.071 30.941C169.192 31.0483 169.253 31.1743 169.253 31.319C169.253 31.4777 169.197 31.6247 169.085 31.76C168.973 31.8907 168.777 32.012 168.497 32.124C168.221 32.2313 167.832 32.327 167.328 32.411C167.318 32.5043 167.314 32.6023 167.314 32.705C167.314 32.9897 167.374 33.216 167.496 33.384C167.617 33.552 167.808 33.636 168.07 33.636C168.224 33.636 168.375 33.594 168.525 33.51C168.674 33.426 168.828 33.2883 168.987 33.097H169.001L169.071 33.153C168.912 33.4283 168.721 33.65 168.497 33.818C168.277 33.986 168.053 34.07 167.825 34.07ZM168.357 31.025C168.105 31.025 167.89 31.13 167.713 31.34C167.54 31.5453 167.423 31.8183 167.363 32.159C167.713 32.0983 167.986 32.033 168.182 31.963C168.378 31.893 168.515 31.8113 168.595 31.718C168.674 31.62 168.714 31.4987 168.714 31.354C168.714 31.2607 168.683 31.1837 168.623 31.123C168.562 31.0577 168.473 31.025 168.357 31.025ZM170.508 34.07C170.321 34.07 170.17 33.9907 170.053 33.832C169.941 33.6687 169.885 33.426 169.885 33.104C169.885 32.8147 169.929 32.5323 170.018 32.257C170.111 31.9817 170.237 31.732 170.396 31.508C170.559 31.284 170.746 31.1067 170.956 30.976C171.166 30.8453 171.39 30.78 171.628 30.78C171.796 30.78 171.957 30.8103 172.111 30.871L172.398 29.24L171.789 29.002V28.96L173 28.75H173.021L172.244 33.167C172.221 33.307 172.216 33.4073 172.23 33.468C172.244 33.5287 172.284 33.559 172.349 33.559C172.428 33.559 172.515 33.517 172.608 33.433C172.701 33.3443 172.79 33.2113 172.874 33.034L172.965 33.076C172.83 33.426 172.683 33.6803 172.524 33.839C172.37 33.993 172.211 34.07 172.048 34.07C171.885 34.07 171.773 34.007 171.712 33.881C171.651 33.755 171.64 33.587 171.677 33.377L171.712 33.195H171.684C171.292 33.7783 170.9 34.07 170.508 34.07ZM170.417 32.831C170.417 33.125 170.45 33.328 170.515 33.44C170.58 33.552 170.688 33.608 170.837 33.608C170.972 33.608 171.124 33.5403 171.292 33.405C171.46 33.265 171.619 33.0807 171.768 32.852L172.02 31.417C171.922 31.2863 171.826 31.193 171.733 31.137C171.644 31.081 171.542 31.053 171.425 31.053C171.238 31.053 171.068 31.1347 170.914 31.298C170.765 31.4613 170.643 31.6783 170.55 31.949C170.461 32.215 170.417 32.509 170.417 32.831ZM128.952 43.07C128.765 43.07 128.614 42.9907 128.497 42.832C128.385 42.6687 128.329 42.426 128.329 42.104C128.329 41.8147 128.373 41.5323 128.462 41.257C128.555 40.9817 128.681 40.732 128.84 40.508C129.003 40.284 129.19 40.1067 129.4 39.976C129.61 39.8453 129.834 39.78 130.072 39.78C130.189 39.78 130.301 39.794 130.408 39.822C130.515 39.85 130.611 39.8873 130.695 39.934L130.94 39.78H131.115L130.688 42.167C130.665 42.307 130.66 42.4073 130.674 42.468C130.693 42.5287 130.732 42.559 130.793 42.559C130.872 42.559 130.959 42.517 131.052 42.433C131.145 42.3443 131.234 42.2113 131.318 42.034L131.409 42.076C131.274 42.426 131.127 42.6803 130.968 42.839C130.814 42.993 130.655 43.07 130.492 43.07C130.329 43.07 130.217 43.007 130.156 42.881C130.095 42.755 130.084 42.587 130.121 42.377L130.156 42.195H130.128C129.951 42.4657 129.764 42.6803 129.568 42.839C129.372 42.993 129.167 43.07 128.952 43.07ZM128.861 41.831C128.861 42.0923 128.889 42.2883 128.945 42.419C129.006 42.545 129.118 42.608 129.281 42.608C129.393 42.608 129.505 42.5707 129.617 42.496C129.729 42.4213 129.836 42.3257 129.939 42.209C130.042 42.0923 130.133 41.9733 130.212 41.852L130.471 40.41C130.382 40.2933 130.291 40.2047 130.198 40.144C130.109 40.0833 130 40.053 129.869 40.053C129.668 40.053 129.491 40.1393 129.337 40.312C129.188 40.4847 129.071 40.7063 128.987 40.977C128.903 41.2477 128.861 41.5323 128.861 41.831ZM132.465 43.07C132.311 43.07 132.194 43.021 132.115 42.923C132.036 42.825 131.996 42.6873 131.996 42.51C131.996 42.4727 131.998 42.4307 132.003 42.384C132.008 42.3373 132.015 42.2907 132.024 42.244L132.395 40.158H131.877V40.116L132.472 39.85L133.074 39.08H133.116L132.983 39.85H133.858V40.158H132.927L132.612 41.936C132.603 41.9967 132.596 42.0527 132.591 42.104C132.586 42.1507 132.584 42.1927 132.584 42.23C132.584 42.342 132.603 42.4213 132.64 42.468C132.677 42.5147 132.726 42.538 132.787 42.538C132.894 42.538 133.009 42.4773 133.13 42.356C133.256 42.2347 133.37 42.0597 133.473 41.831L133.564 41.873C133.41 42.3163 133.237 42.6267 133.046 42.804C132.859 42.9813 132.666 43.07 132.465 43.07ZM136.334 43.07C136.18 43.07 136.063 43.021 135.984 42.923C135.905 42.825 135.865 42.6873 135.865 42.51C135.865 42.4727 135.867 42.4307 135.872 42.384C135.877 42.3373 135.884 42.2907 135.893 42.244L136.264 40.158H135.746V40.116L136.341 39.85L136.943 39.08H136.985L136.852 39.85H137.727V40.158H136.796L136.481 41.936C136.472 41.9967 136.465 42.0527 136.46 42.104C136.455 42.1507 136.453 42.1927 136.453 42.23C136.453 42.342 136.472 42.4213 136.509 42.468C136.546 42.5147 136.595 42.538 136.656 42.538C136.763 42.538 136.878 42.4773 136.999 42.356C137.125 42.2347 137.239 42.0597 137.342 41.831L137.433 41.873C137.279 42.3163 137.106 42.6267 136.915 42.804C136.728 42.9813 136.535 43.07 136.334 43.07ZM138.36 43H137.828L138.661 38.254L138.115 38.009V37.967L139.263 37.757H139.284L138.801 40.515H138.815C138.978 40.333 139.121 40.1883 139.242 40.081C139.368 39.9737 139.489 39.8967 139.606 39.85C139.727 39.8033 139.863 39.78 140.012 39.78C140.241 39.78 140.416 39.8733 140.537 40.06C140.663 40.2467 140.698 40.4987 140.642 40.816L140.397 42.167C140.374 42.307 140.369 42.4073 140.383 42.468C140.397 42.5287 140.437 42.559 140.502 42.559C140.581 42.559 140.668 42.517 140.761 42.433C140.854 42.3443 140.943 42.2113 141.027 42.034L141.118 42.076C140.983 42.426 140.836 42.6803 140.677 42.839C140.523 42.993 140.364 43.07 140.201 43.07C140.038 43.07 139.926 43.007 139.865 42.881C139.804 42.755 139.793 42.587 139.83 42.377L140.103 40.837C140.126 40.6737 140.105 40.529 140.04 40.403C139.979 40.2723 139.846 40.207 139.641 40.207C139.538 40.207 139.433 40.242 139.326 40.312C139.219 40.3773 139.114 40.459 139.011 40.557C138.908 40.6503 138.82 40.739 138.745 40.823L138.36 43ZM142.118 43.07C141.931 43.07 141.78 42.9907 141.663 42.832C141.551 42.6687 141.495 42.426 141.495 42.104C141.495 41.8147 141.539 41.5323 141.628 41.257C141.721 40.9817 141.847 40.732 142.006 40.508C142.169 40.284 142.356 40.1067 142.566 39.976C142.776 39.8453 143 39.78 143.238 39.78C143.355 39.78 143.467 39.794 143.574 39.822C143.681 39.85 143.777 39.8873 143.861 39.934L144.106 39.78H144.281L143.854 42.167C143.831 42.307 143.826 42.4073 143.84 42.468C143.859 42.5287 143.898 42.559 143.959 42.559C144.038 42.559 144.125 42.517 144.218 42.433C144.311 42.3443 144.4 42.2113 144.484 42.034L144.575 42.076C144.44 42.426 144.293 42.6803 144.134 42.839C143.98 42.993 143.821 43.07 143.658 43.07C143.495 43.07 143.383 43.007 143.322 42.881C143.261 42.755 143.25 42.587 143.287 42.377L143.322 42.195H143.294C143.117 42.4657 142.93 42.6803 142.734 42.839C142.538 42.993 142.333 43.07 142.118 43.07ZM142.027 41.831C142.027 42.0923 142.055 42.2883 142.111 42.419C142.172 42.545 142.284 42.608 142.447 42.608C142.559 42.608 142.671 42.5707 142.783 42.496C142.895 42.4213 143.002 42.3257 143.105 42.209C143.208 42.0923 143.299 41.9733 143.378 41.852L143.637 40.41C143.548 40.2933 143.457 40.2047 143.364 40.144C143.275 40.0833 143.166 40.053 143.035 40.053C142.834 40.053 142.657 40.1393 142.503 40.312C142.354 40.4847 142.237 40.7063 142.153 40.977C142.069 41.2477 142.027 41.5323 142.027 41.831ZM147.425 43.07C147.201 43.07 147.028 43.0047 146.907 42.874C146.786 42.7433 146.725 42.552 146.725 42.3C146.725 42.2533 146.727 42.202 146.732 42.146C146.741 42.09 146.748 42.0317 146.753 41.971L147.082 40.116H146.627L146.648 40.018L147.397 39.668L148.034 39.066H148.16L148.034 39.808H148.881V40.116H147.978L147.691 41.747C147.677 41.8263 147.668 41.887 147.663 41.929C147.658 41.971 147.656 42.0083 147.656 42.041C147.656 42.251 147.738 42.356 147.901 42.356C148.008 42.356 148.116 42.307 148.223 42.209C148.335 42.1063 148.438 41.9407 148.531 41.712L148.664 41.761C148.524 42.1857 148.349 42.51 148.139 42.734C147.929 42.958 147.691 43.07 147.425 43.07ZM149.698 43.07C149.507 43.07 149.35 42.993 149.229 42.839C149.108 42.6803 149.047 42.454 149.047 42.16C149.047 41.824 149.105 41.509 149.222 41.215C149.339 40.921 149.495 40.6643 149.691 40.445C149.892 40.2257 150.111 40.053 150.349 39.927C150.592 39.801 150.837 39.738 151.084 39.738C151.331 39.738 151.537 39.7963 151.7 39.913L152.057 39.78H152.197L151.784 42.118C151.747 42.3373 151.786 42.447 151.903 42.447C151.973 42.447 152.048 42.4097 152.127 42.335C152.206 42.2557 152.288 42.125 152.372 41.943L152.498 41.985C152.367 42.3303 152.218 42.5987 152.05 42.79C151.882 42.9767 151.686 43.07 151.462 43.07C151.252 43.07 151.096 43.0023 150.993 42.867C150.89 42.7317 150.851 42.538 150.874 42.286H150.853C150.652 42.5567 150.463 42.755 150.286 42.881C150.109 43.007 149.913 43.07 149.698 43.07ZM149.978 41.782C149.978 42.006 149.999 42.1693 150.041 42.272C150.083 42.3747 150.16 42.426 150.272 42.426C150.393 42.426 150.508 42.3747 150.615 42.272C150.727 42.1693 150.832 42.048 150.93 41.908L151.217 40.235C151.166 40.179 151.11 40.137 151.049 40.109C150.988 40.0763 150.916 40.06 150.832 40.06C150.664 40.06 150.515 40.1417 150.384 40.305C150.258 40.4683 150.158 40.6807 150.083 40.942C150.013 41.2033 149.978 41.4833 149.978 41.782ZM153.569 43.07C153.378 43.07 153.219 43.0467 153.093 43C152.972 42.9487 152.876 42.888 152.806 42.818C152.704 42.7293 152.652 42.6453 152.652 42.566C152.652 42.538 152.657 42.51 152.666 42.482C152.676 42.454 152.697 42.4307 152.729 42.412L152.988 42.223H153.037L153.156 42.391C153.32 42.6197 153.52 42.734 153.758 42.734C153.912 42.734 154.029 42.699 154.108 42.629C154.192 42.5543 154.234 42.4587 154.234 42.342C154.234 42.202 154.188 42.09 154.094 42.006C154.001 41.922 153.838 41.8147 153.604 41.684C153.455 41.6 153.334 41.5183 153.24 41.439C153.152 41.3597 153.086 41.2687 153.044 41.166C153.002 41.0633 152.981 40.935 152.981 40.781C152.981 40.6643 153.019 40.5453 153.093 40.424C153.168 40.298 153.268 40.1837 153.394 40.081C153.52 39.9783 153.663 39.8967 153.821 39.836C153.985 39.7707 154.15 39.738 154.318 39.738C154.496 39.738 154.631 39.7637 154.724 39.815C154.818 39.8663 154.892 39.927 154.948 39.997C155.018 40.0857 155.053 40.1627 155.053 40.228C155.053 40.2887 155.035 40.3307 154.997 40.354L154.724 40.557H154.675L154.5 40.347C154.43 40.2583 154.363 40.1907 154.297 40.144C154.237 40.0973 154.157 40.074 154.059 40.074C153.952 40.074 153.863 40.1067 153.793 40.172C153.728 40.2373 153.695 40.3213 153.695 40.424C153.695 40.5313 153.73 40.627 153.8 40.711C153.875 40.795 154.008 40.886 154.199 40.984C154.405 41.096 154.573 41.215 154.703 41.341C154.834 41.467 154.899 41.649 154.899 41.887C154.899 42.0877 154.843 42.279 154.731 42.461C154.624 42.643 154.47 42.79 154.269 42.902C154.069 43.014 153.835 43.07 153.569 43.07ZM155.402 43L156.214 38.324L155.71 38.093V38.002L157.201 37.75H157.222L156.627 41.145C156.963 40.795 157.239 40.5173 157.453 40.312C157.673 40.1067 157.852 39.9597 157.992 39.871C158.137 39.7823 158.258 39.738 158.356 39.738C158.412 39.738 158.459 39.745 158.496 39.759C158.538 39.7683 158.571 39.7823 158.594 39.801C158.627 39.8243 158.65 39.8547 158.664 39.892C158.683 39.9247 158.683 39.962 158.664 40.004L158.482 40.466L158.447 40.473L158.342 40.431C158.31 40.417 158.265 40.4053 158.209 40.396C158.158 40.382 158.095 40.375 158.02 40.375C157.876 40.375 157.74 40.424 157.614 40.522L157.306 40.767L157.957 42.125C158.009 42.2277 158.055 42.307 158.097 42.363C158.139 42.419 158.193 42.447 158.258 42.447C158.328 42.447 158.391 42.4097 158.447 42.335C158.508 42.2603 158.569 42.132 158.629 41.95L158.755 41.992C158.648 42.3747 158.524 42.65 158.384 42.818C158.244 42.986 158.072 43.07 157.866 43.07C157.661 43.07 157.509 43.0093 157.411 42.888C157.318 42.762 157.232 42.6103 157.152 42.433L156.62 41.208L156.305 43H155.402ZM159.432 43.035C159.315 43.035 159.229 43.0023 159.173 42.937C159.121 42.8717 159.096 42.7877 159.096 42.685C159.096 42.5683 159.135 42.4633 159.215 42.37C159.294 42.2767 159.397 42.23 159.523 42.23C159.639 42.23 159.723 42.2627 159.775 42.328C159.831 42.3933 159.859 42.4773 159.859 42.58C159.859 42.7013 159.819 42.8087 159.74 42.902C159.665 42.9907 159.562 43.035 159.432 43.035Z" fill="black"/>
</svg>
