<svg width="31" height="31" viewBox="0 0 31 31" fill="none" xmlns="http://www.w3.org/2000/svg">
<circle cx="16" cy="16" r="12" fill="black"/>
<path d="M16.1333 13.0176C17.4458 13.0176 18.4712 13.4688 19.2095 14.3711C19.9614 15.2598 20.3374 16.21 20.3374 17.2217C20.3374 18.5205 19.8521 19.6621 18.8813 20.6465C17.9243 21.6309 16.8647 22.123 15.7026 22.123C15.1968 22.123 14.7114 22.082 14.2466 22C13.7954 21.9043 13.5356 21.8564 13.4673 21.8564C13.3442 21.8564 13.187 21.8975 12.9956 21.9795C12.8179 22.0479 12.7153 22.082 12.688 22.082C12.6333 22.082 12.5444 22.0615 12.4214 22.0205C12.312 21.9795 12.2573 21.9316 12.2573 21.877C12.2573 21.8633 12.2778 21.7539 12.3188 21.5488C12.3599 21.3301 12.4009 21.0156 12.4419 20.6055C12.4829 20.1953 12.5034 19.7373 12.5034 19.2314V10.7412C12.5034 10.2764 12.4624 9.83887 12.3804 9.42871C12.312 9.20996 11.9634 9.10059 11.3345 9.10059H11.1499C11.0679 9.10059 11.0269 9.02539 11.0269 8.875C11.0269 8.65625 11.0679 8.54688 11.1499 8.54688C11.5601 8.50586 11.936 8.45117 12.2778 8.38281C12.6333 8.31445 12.9067 8.24609 13.0981 8.17773C13.3032 8.10938 13.4741 8.04785 13.6108 7.99316C13.7476 7.9248 13.8501 7.87012 13.9185 7.8291L14.0005 7.76758H14.0415C14.0962 7.76758 14.1509 7.80859 14.2056 7.89062C14.2603 7.95898 14.2944 8.02734 14.3081 8.0957C14.1577 8.5332 14.0825 9.12793 14.0825 9.87988V13.4688C14.0825 13.6191 14.103 13.6943 14.144 13.6943C14.1577 13.6943 14.1782 13.6875 14.2056 13.6738C14.397 13.5371 14.6909 13.3936 15.0874 13.2432C15.4839 13.0928 15.8325 13.0176 16.1333 13.0176ZM15.4771 14.0225C15.0942 14.0225 14.7661 14.1318 14.4927 14.3506C14.2192 14.5557 14.0825 14.8564 14.0825 15.2529V20.0312C14.0825 20.4551 14.2808 20.7695 14.6772 20.9746C15.0874 21.166 15.5591 21.2617 16.0923 21.2617C16.8716 21.2617 17.48 20.8926 17.9175 20.1543C18.355 19.416 18.5737 18.582 18.5737 17.6523C18.5737 16.5723 18.2866 15.6973 17.7124 15.0273C17.1519 14.3574 16.4067 14.0225 15.4771 14.0225Z" fill="white"/>
</svg>
