<svg width="31" height="31" viewBox="0 0 31 31" fill="none" xmlns="http://www.w3.org/2000/svg">
<circle cx="16" cy="16" r="12" fill="black"/>
<path d="M14.2004 19.3542C14.4328 19.5456 14.7336 19.6413 15.1027 19.6413C15.4718 19.6413 15.8273 19.5319 16.1691 19.3132C16.5109 19.0807 16.6818 18.8483 16.6818 18.6159V16.5036C16.5724 16.5583 16.3058 16.654 15.882 16.7907C15.4582 16.9274 15.1232 17.0505 14.8771 17.1599C14.6447 17.2556 14.4123 17.4265 14.1799 17.6725C13.9611 17.905 13.8517 18.1784 13.8517 18.4929C13.8517 18.862 13.9679 19.1491 14.2004 19.3542ZM16.1281 11.7253C16.8801 11.7253 17.4201 11.9099 17.7482 12.279C18.0763 12.6345 18.2404 13.2155 18.2404 14.0222V18.7595C18.2404 19.0466 18.3156 19.2858 18.466 19.4772C18.6164 19.6686 18.8215 19.7643 19.0812 19.7643C19.2726 19.7643 19.5119 19.6686 19.799 19.4772C19.8537 19.4772 19.881 19.5319 19.881 19.6413C19.881 19.819 19.8468 19.9626 19.7785 20.072C19.2179 20.5505 18.7394 20.7897 18.3429 20.7897C18.0285 20.7897 17.7277 20.6599 17.4406 20.4001C17.1535 20.1403 16.9552 19.8669 16.8459 19.5798C16.8322 19.5798 16.7775 19.6276 16.6818 19.7233C16.5998 19.8054 16.4836 19.9079 16.3332 20.0309C16.1828 20.1403 16.0051 20.2565 15.8 20.3796C15.6086 20.5026 15.3761 20.6052 15.1027 20.6872C14.8429 20.7692 14.5763 20.8102 14.3029 20.8102C13.674 20.8102 13.1545 20.6462 12.7443 20.3181C12.3342 19.9763 12.1291 19.4704 12.1291 18.8005C12.1291 18.4997 12.2043 18.2194 12.3547 17.9597C12.5051 17.6862 12.6828 17.4675 12.8879 17.3034C13.0929 17.1257 13.3732 16.9479 13.7287 16.7702C14.0842 16.5925 14.3849 16.4626 14.631 16.3806C14.8908 16.2849 15.2258 16.1686 15.6359 16.0319C16.0461 15.8952 16.3332 15.7927 16.4972 15.7243C16.6203 15.6833 16.6818 15.5807 16.6818 15.4167V13.8786C16.6818 13.4411 16.5451 13.1061 16.2717 12.8737C15.9982 12.6276 15.6701 12.5046 15.2873 12.5046C14.8771 12.5046 14.5353 12.6481 14.2619 12.9352C13.9884 13.2087 13.8517 13.571 13.8517 14.0222C13.8517 14.5007 13.5715 14.7399 13.0109 14.7399C12.6281 14.7399 12.3615 14.61 12.2111 14.3503C12.2111 13.7624 12.6418 13.1813 13.5031 12.6071C14.3644 12.0192 15.2394 11.7253 16.1281 11.7253Z" fill="white"/>
</svg>
