<svg width="31" height="31" viewBox="0 0 31 31" fill="none" xmlns="http://www.w3.org/2000/svg">
<circle cx="16" cy="16" r="12" fill="black"/>
<path d="M16.5845 12.0586C18.0884 12.0586 19.1274 12.4072 19.7017 13.1045C19.7017 14.0205 19.4487 14.4785 18.9429 14.4785C18.7104 14.4785 18.5327 14.4307 18.4097 14.335C18.2866 14.2256 18.1294 14.0342 17.938 13.7607C17.5142 13.1318 17.0083 12.8174 16.4204 12.8174C15.8599 12.8174 15.3472 13.084 14.8823 13.6172C14.4312 14.1504 14.2056 14.9434 14.2056 15.9961C14.2056 17.0898 14.4722 17.999 15.0054 18.7236C15.5522 19.4482 16.3042 19.8105 17.2612 19.8105C17.5483 19.8105 17.8218 19.7832 18.0815 19.7285C18.3413 19.6738 18.5601 19.6123 18.7378 19.5439C18.9292 19.4619 19.0864 19.3867 19.2095 19.3184C19.3462 19.2363 19.4624 19.1611 19.5581 19.0928L19.7017 18.9902C19.7837 18.9902 19.8247 19.0791 19.8247 19.2568C19.8247 19.3662 19.7837 19.4893 19.7017 19.626C19.4282 20.0088 19.0249 20.3574 18.4917 20.6719C17.9585 20.9727 17.3774 21.123 16.7485 21.123C15.6138 21.123 14.6362 20.6992 13.8159 19.8516C13.0093 18.9902 12.606 17.9443 12.606 16.7139C12.606 15.4561 12.9478 14.3691 13.6313 13.4531C14.3149 12.5234 15.2993 12.0586 16.5845 12.0586Z" fill="white"/>
</svg>
