<svg width="31" height="31" viewBox="0 0 31 31" fill="none" xmlns="http://www.w3.org/2000/svg">
<circle cx="16" cy="16" r="12" fill="black"/>
<path d="M15.9897 13.8379C15.1968 13.8379 14.5747 14.1934 14.1235 14.9043C13.6724 15.6152 13.4468 16.4424 13.4468 17.3857C13.4468 18.3838 13.7134 19.252 14.2466 19.9902C14.7798 20.7148 15.5181 21.0771 16.4614 21.0771C16.9263 21.0771 17.2886 20.9746 17.5483 20.7695C17.8081 20.5508 17.938 20.2637 17.938 19.9082V15.0273C17.938 14.7402 17.7808 14.4736 17.4663 14.2275C17.1655 13.9678 16.6733 13.8379 15.9897 13.8379ZM16.2563 12.9766C16.8442 12.9766 17.3569 13.0928 17.7944 13.3252C17.8901 13.3252 17.938 13.2021 17.938 12.9561V10.7412C17.938 10.2764 17.897 9.83887 17.8149 9.42871C17.7466 9.20996 17.3979 9.10059 16.769 9.10059H16.5845C16.5024 9.10059 16.4614 9.02539 16.4614 8.875C16.4614 8.65625 16.5024 8.54688 16.5845 8.54688C16.9946 8.50586 17.3706 8.45117 17.7124 8.38281C18.0679 8.31445 18.3413 8.24609 18.5327 8.17773C18.7378 8.10938 18.9087 8.04785 19.0454 7.99316C19.1821 7.9248 19.2847 7.87012 19.353 7.8291L19.4351 7.76758H19.4761C19.5308 7.76758 19.5854 7.80859 19.6401 7.89062C19.6948 7.95898 19.729 8.02734 19.7427 8.0957C19.5923 8.5332 19.5171 9.12793 19.5171 9.87988V19.1084C19.5171 19.7646 19.5581 20.2842 19.6401 20.667C19.6675 20.7627 19.7427 20.8379 19.8657 20.8926C19.9888 20.9473 20.1118 20.9814 20.2349 20.9951C20.3716 21.0088 20.5015 21.0156 20.6245 21.0156L20.8091 21.0361C20.8501 21.0498 20.8706 21.1318 20.8706 21.2822C20.8706 21.4873 20.8296 21.5898 20.7476 21.5898C20.5425 21.6035 20.3101 21.6309 20.0503 21.6719C19.8042 21.7129 19.5649 21.7607 19.3325 21.8154C19.1138 21.8564 18.9087 21.9043 18.7173 21.959C18.5259 22 18.3687 22.041 18.2456 22.082L18.061 22.123C17.979 22.123 17.938 22.0068 17.938 21.7744V21.5283C17.938 21.4463 17.9106 21.4189 17.856 21.4463C17.0903 21.8701 16.3657 22.082 15.6821 22.082C14.5474 22.082 13.5972 21.6787 12.8315 20.8721C12.0659 20.0654 11.6831 19.1016 11.6831 17.9805C11.6831 16.6543 12.1479 15.4922 13.0776 14.4941C14.021 13.4824 15.0806 12.9766 16.2563 12.9766Z" fill="white"/>
</svg>
