<svg width="77" height="59" viewBox="0 0 77 59" fill="none" xmlns="http://www.w3.org/2000/svg">
<path d="M60 18.1503C60 19.7242 61.3431 21 63 21C64.6569 21 66 19.7242 66 18.1503L66 17.8497C66 16.2758 64.6569 15 63 15C61.3431 15 60 16.2758 60 17.8497L60 18.1503Z" fill="black"/>
<path d="M41 18.1503C41 19.7242 42.3431 21 44 21C45.6569 21 47 19.7242 47 18.1503L47 17.8497C47 16.2758 45.6569 15 44 15C42.3431 15 41 16.2758 41 17.8497L41 18.1503Z" fill="black"/>
<path d="M23 18.1503C23 19.7242 24.3431 21 26 21C27.6569 21 29 19.7242 29 18.1503L29 17.8497C29 16.2758 27.6569 15 26 15C24.3431 15 23 16.2758 23 17.8497L23 18.1503Z" fill="black"/>
<path d="M9 20.75C7.46895 20.75 6.25 19.5741 6.25 18.1503L6.25 17.8497C6.25 16.4259 7.46895 15.25 9 15.25C10.531 15.25 11.75 16.4259 11.75 17.8497L11.75 18.1503C11.75 19.5741 10.531 20.75 9 20.75Z" fill="#FAFAFA" stroke="black" stroke-width="0.5"/>
<path d="M6.97869 7.07955C7.71449 7.07955 7.96307 6.62216 8.09233 6.41335H8.16193V7H8.72869V1.90909H8.14205V3.78835H8.09233C7.96307 3.58949 7.73438 3.1321 6.98864 3.1321C6.02415 3.1321 5.35795 3.89773 5.35795 5.10085C5.35795 6.31392 6.02415 7.07955 6.97869 7.07955ZM7.05824 6.55256C6.32244 6.55256 5.9446 5.90625 5.9446 5.09091C5.9446 4.28551 6.3125 3.65909 7.05824 3.65909C7.77415 3.65909 8.15199 4.2358 8.15199 5.09091C8.15199 5.95597 7.7642 6.55256 7.05824 6.55256ZM11.4357 7.07955C12.4698 7.07955 13.1658 6.29403 13.1658 5.1108C13.1658 3.91761 12.4698 3.1321 11.4357 3.1321C10.4016 3.1321 9.70561 3.91761 9.70561 5.1108C9.70561 6.29403 10.4016 7.07955 11.4357 7.07955ZM11.4357 6.55256C10.6502 6.55256 10.2923 5.87642 10.2923 5.1108C10.2923 4.34517 10.6502 3.65909 11.4357 3.65909C12.2212 3.65909 12.5792 4.34517 12.5792 5.1108C12.5792 5.87642 12.2212 6.55256 11.4357 6.55256ZM14.0613 7H14.648V4.61364C14.648 4.05433 15.0557 3.65909 15.5131 3.65909C15.958 3.65909 16.2687 3.94993 16.2687 4.38494V7H16.8653V4.5142C16.8653 4.02202 17.1736 3.65909 17.7105 3.65909C18.1281 3.65909 18.4861 3.88033 18.4861 4.4446V7H19.0727V4.4446C19.0727 3.54723 18.5905 3.1321 17.9094 3.1321C17.3625 3.1321 16.9623 3.38317 16.7659 3.77841H16.7261C16.5372 3.37074 16.2041 3.1321 15.702 3.1321C15.2048 3.1321 14.8369 3.37074 14.6778 3.77841H14.6281V3.18182H14.0613V7ZM21.2689 7.08949C21.9351 7.08949 22.2831 6.73153 22.4024 6.48295H22.4323V7H23.0189V4.48438C23.0189 3.27131 22.0942 3.1321 21.607 3.1321C21.0303 3.1321 20.374 3.33097 20.0757 4.02699L20.6325 4.22585C20.7618 3.94744 21.0676 3.64915 21.6269 3.64915C22.1663 3.64915 22.4323 3.93501 22.4323 4.42472V4.4446C22.4323 4.72798 22.1439 4.70313 21.4479 4.79261C20.7394 4.88459 19.9664 5.04119 19.9664 5.91619C19.9664 6.66193 20.5431 7.08949 21.2689 7.08949ZM21.3584 6.5625C20.8911 6.5625 20.553 6.35369 20.553 5.94602C20.553 5.49858 20.9607 5.35938 21.4181 5.29972C21.6666 5.26989 22.3328 5.20028 22.4323 5.08097V5.6179C22.4323 6.09517 22.0544 6.5625 21.3584 6.5625ZM24.0897 7H24.6763V3.18182H24.0897V7ZM24.388 2.54545C24.6167 2.54545 24.8056 2.36648 24.8056 2.14773C24.8056 1.92898 24.6167 1.75 24.388 1.75C24.1593 1.75 23.9703 1.92898 23.9703 2.14773C23.9703 2.36648 24.1593 2.54545 24.388 2.54545ZM26.3374 4.70313C26.3374 4.03693 26.7501 3.65909 27.3119 3.65909C27.8563 3.65909 28.1869 4.01456 28.1869 4.61364V7H28.7735V4.57386C28.7735 3.59943 28.254 3.1321 27.4809 3.1321C26.9042 3.1321 26.5463 3.39063 26.3673 3.77841H26.3176V3.18182H25.7508V7H26.3374V4.70313ZM33.4151 7.07955C34.1907 7.07955 34.7575 6.69176 34.9364 6.11506L34.3697 5.95597C34.2205 6.35369 33.875 6.55256 33.4151 6.55256C32.7266 6.55256 32.2518 6.1076 32.2244 5.28977H34.9961V5.04119C34.9961 3.61932 34.1509 3.1321 33.3555 3.1321C32.3214 3.1321 31.6353 3.94744 31.6353 5.12074C31.6353 6.29403 32.3114 7.07955 33.4151 7.07955ZM32.2244 4.78267C32.2642 4.18857 32.6843 3.65909 33.3555 3.65909C33.9918 3.65909 34.3995 4.13636 34.3995 4.78267H32.2244ZM36.326 3.18182H35.6499L36.8629 5.09091L35.6499 7H36.326L37.2408 5.51847L38.1555 7H38.8317L37.5987 5.09091L38.8317 3.18182H38.1555L37.2408 4.7429L36.326 3.18182ZM39.6688 8.43182H40.2554V6.41335H40.3051C40.4344 6.62216 40.683 7.07955 41.4188 7.07955C42.3733 7.07955 43.0395 6.31392 43.0395 5.10085C43.0395 3.89773 42.3733 3.1321 41.4088 3.1321C40.6631 3.1321 40.4344 3.58949 40.3051 3.78835H40.2355V3.18182H39.6688V8.43182ZM40.2455 5.09091C40.2455 4.2358 40.6233 3.65909 41.3392 3.65909C42.085 3.65909 42.4529 4.28551 42.4529 5.09091C42.4529 5.90625 42.075 6.55256 41.3392 6.55256C40.6333 6.55256 40.2455 5.95597 40.2455 5.09091ZM45.5352 7.07955C46.3108 7.07955 46.8776 6.69176 47.0566 6.11506L46.4898 5.95597C46.3406 6.35369 45.9951 6.55256 45.5352 6.55256C44.8467 6.55256 44.3719 6.1076 44.3445 5.28977H47.1162V5.04119C47.1162 3.61932 46.271 3.1321 45.4756 3.1321C44.4415 3.1321 43.7554 3.94744 43.7554 5.12074C43.7554 6.29403 44.4316 7.07955 45.5352 7.07955ZM44.3445 4.78267C44.3843 4.18857 44.8044 3.65909 45.4756 3.65909C46.1119 3.65909 46.5196 4.13636 46.5196 4.78267H44.3445ZM48.0086 7H48.5953V4.58381C48.5953 4.06676 49.0029 3.68892 49.5597 3.68892C49.7164 3.68892 49.8779 3.71875 49.9177 3.72869V3.1321C49.8506 3.12713 49.6965 3.12216 49.6095 3.12216C49.1521 3.12216 48.7544 3.38068 48.6151 3.75852H48.5754V3.18182H48.0086V7ZM52.2736 3.18182H51.4583V2.26705H50.8716V3.18182H50.2949V3.67898H50.8716V6.06534C50.8716 6.73153 51.4086 7.04972 51.9057 7.04972C52.1245 7.04972 52.2637 7.00994 52.3432 6.98011L52.2239 6.45313C52.1742 6.46307 52.0946 6.48295 51.9654 6.48295C51.7069 6.48295 51.4583 6.40341 51.4583 5.90625V3.67898H52.2736V3.18182Z" fill="black"/>
<path d="M59.5369 1.90909V6.16477C59.5369 6.70916 59.8153 7.02983 60.3722 7.02983C60.5412 7.02983 60.7077 7 60.8097 6.97017L60.6903 6.46307C60.6332 6.48047 60.581 6.49787 60.4418 6.50284C60.1832 6.5103 60.1236 6.37607 60.1236 6.00568V1.90909H59.5369ZM62.472 7.08949C63.1382 7.08949 63.4862 6.73153 63.6056 6.48295H63.6354V7H64.222V4.48438C64.222 3.27131 63.2973 3.1321 62.8101 3.1321C62.2334 3.1321 61.5771 3.33097 61.2789 4.02699L61.8357 4.22585C61.9649 3.94744 62.2707 3.64915 62.83 3.64915C63.3694 3.64915 63.6354 3.93501 63.6354 4.42472V4.4446C63.6354 4.72798 63.347 4.70312 62.651 4.79261C61.9426 4.88459 61.1695 5.04119 61.1695 5.91619C61.1695 6.66193 61.7462 7.08949 62.472 7.08949ZM62.5615 6.5625C62.0942 6.5625 61.7561 6.35369 61.7561 5.94602C61.7561 5.49858 62.1638 5.35938 62.6212 5.29972C62.8698 5.26989 63.536 5.20028 63.6354 5.08097V5.6179C63.6354 6.09517 63.2575 6.5625 62.5615 6.5625ZM65.6706 8.43182C66.2001 8.43182 66.573 8.15092 66.7942 7.55682L68.4199 3.19176L67.7786 3.18182L66.7246 6.22443H66.6848L65.6309 3.18182H64.9945L66.4064 7.01989L66.2971 7.31818C66.0833 7.89986 65.8198 7.95455 65.3922 7.84517L65.2431 8.36222C65.3027 8.39205 65.4718 8.43182 65.6706 8.43182Z" fill="black"/>
<path d="M26 15L26 10" stroke="black" stroke-width="0.25" stroke-dasharray="0.5 0.5"/>
<path d="M9 25.5L9 20.5" stroke="black" stroke-width="0.25" stroke-dasharray="0.5 0.5"/>
<path d="M44 25.5L44 20.5" stroke="black" stroke-width="0.25" stroke-dasharray="0.5 0.5"/>
<path d="M63 15L63 10" stroke="black" stroke-width="0.25" stroke-dasharray="0.5 0.5"/>
<path d="M2.13778 31.0795C2.91335 31.0795 3.48011 30.6918 3.65909 30.1151L3.09233 29.956C2.94318 30.3537 2.59766 30.5526 2.13778 30.5526C1.44922 30.5526 0.974432 30.1076 0.947088 29.2898H3.71875V29.0412C3.71875 27.6193 2.87358 27.1321 2.07812 27.1321C1.04403 27.1321 0.357955 27.9474 0.357955 29.1207C0.357955 30.294 1.03409 31.0795 2.13778 31.0795ZM0.947088 28.7827C0.986861 28.1886 1.40696 27.6591 2.07812 27.6591C2.71449 27.6591 3.12216 28.1364 3.12216 28.7827H0.947088ZM5.04865 27.1818H4.37251L5.58558 29.0909L4.37251 31H5.04865L5.96342 29.5185L6.8782 31H7.55433L6.32138 29.0909L7.55433 27.1818H6.8782L5.96342 28.7429L5.04865 27.1818ZM8.39142 32.4318H8.97807V30.4134H9.02779C9.15705 30.6222 9.40563 31.0795 10.1414 31.0795C11.096 31.0795 11.7622 30.3139 11.7622 29.1009C11.7622 27.8977 11.096 27.1321 10.1315 27.1321C9.38574 27.1321 9.15705 27.5895 9.02779 27.7884H8.95819V27.1818H8.39142V32.4318ZM8.96813 29.0909C8.96813 28.2358 9.34597 27.6591 10.0619 27.6591C10.8076 27.6591 11.1755 28.2855 11.1755 29.0909C11.1755 29.9062 10.7977 30.5526 10.0619 30.5526C9.35591 30.5526 8.96813 29.956 8.96813 29.0909ZM14.2579 31.0795C15.0335 31.0795 15.6002 30.6918 15.7792 30.1151L15.2124 29.956C15.0633 30.3537 14.7178 30.5526 14.2579 30.5526C13.5693 30.5526 13.0945 30.1076 13.0672 29.2898H15.8389V29.0412C15.8389 27.6193 14.9937 27.1321 14.1982 27.1321C13.1642 27.1321 12.4781 27.9474 12.4781 29.1207C12.4781 30.294 13.1542 31.0795 14.2579 31.0795ZM13.0672 28.7827C13.107 28.1886 13.5271 27.6591 14.1982 27.6591C14.8346 27.6591 15.2423 28.1364 15.2423 28.7827H13.0672ZM16.7313 31H17.3179V28.5838C17.3179 28.0668 17.7256 27.6889 18.2824 27.6889C18.439 27.6889 18.6006 27.7188 18.6404 27.7287V27.1321C18.5732 27.1271 18.4191 27.1222 18.3321 27.1222C17.8747 27.1222 17.477 27.3807 17.3378 27.7585H17.298V27.1818H16.7313V31ZM20.9963 27.1818H20.1809V26.267H19.5943V27.1818H19.0176V27.679H19.5943V30.0653C19.5943 30.7315 20.1312 31.0497 20.6284 31.0497C20.8471 31.0497 20.9863 31.0099 21.0659 30.9801L20.9466 30.4531C20.8968 30.4631 20.8173 30.483 20.688 30.483C20.4295 30.483 20.1809 30.4034 20.1809 29.9062V27.679H20.9963V27.1818Z" fill="black"/>
<path d="M31.1236 28.7031C31.1236 28.0369 31.5362 27.6591 32.098 27.6591C32.6424 27.6591 32.973 28.0146 32.973 28.6136V31H33.5597V28.5739C33.5597 27.5994 33.0401 27.1321 32.267 27.1321C31.6903 27.1321 31.3324 27.3906 31.1534 27.7784H31.1037V27.1818H30.5369V31H31.1236V28.7031ZM36.2325 31.0795C37.0081 31.0795 37.5748 30.6918 37.7538 30.1151L37.1871 29.956C37.0379 30.3537 36.6924 30.5526 36.2325 30.5526C35.5439 30.5526 35.0692 30.1076 35.0418 29.2898H37.8135V29.0412C37.8135 27.6193 36.9683 27.1321 36.1729 27.1321C35.1388 27.1321 34.4527 27.9474 34.4527 29.1207C34.4527 30.294 35.1288 31.0795 36.2325 31.0795ZM35.0418 28.7827C35.0816 28.1886 35.5017 27.6591 36.1729 27.6591C36.8092 27.6591 37.2169 28.1364 37.2169 28.7827H35.0418ZM39.5709 31H40.1476L40.9829 28.0668H41.0425L41.8778 31H42.4545L43.6178 27.1818H43.0013L42.176 30.0952H42.1363L41.3309 27.1818H40.7045L39.8891 30.1051H39.8493L39.0241 27.1818H38.4076L39.5709 31ZM45.9445 31.0795C46.7897 31.0795 47.3465 30.5625 47.4459 29.8864H46.8593C46.7499 30.304 46.4019 30.5526 45.9445 30.5526C45.2485 30.5526 44.801 29.9759 44.801 29.0909C44.801 28.2259 45.2584 27.6591 45.9445 27.6591C46.4616 27.6591 46.7698 27.9773 46.8593 28.3253H47.4459C47.3465 27.6094 46.74 27.1321 45.9346 27.1321C44.9005 27.1321 44.2144 27.9474 44.2144 29.1108C44.2144 30.2543 44.8706 31.0795 45.9445 31.0795ZM49.8547 31.0795C50.8888 31.0795 51.5848 30.294 51.5848 29.1108C51.5848 27.9176 50.8888 27.1321 49.8547 27.1321C48.8206 27.1321 48.1246 27.9176 48.1246 29.1108C48.1246 30.294 48.8206 31.0795 49.8547 31.0795ZM49.8547 30.5526C49.0692 30.5526 48.7112 29.8764 48.7112 29.1108C48.7112 28.3452 49.0692 27.6591 49.8547 27.6591C50.6402 27.6591 50.9981 28.3452 50.9981 29.1108C50.9981 29.8764 50.6402 30.5526 49.8547 30.5526ZM52.4803 31H53.0669V28.6136C53.0669 28.0543 53.4746 27.6591 53.932 27.6591C54.377 27.6591 54.6877 27.9499 54.6877 28.3849V31H55.2843V28.5142C55.2843 28.022 55.5925 27.6591 56.1294 27.6591C56.5471 27.6591 56.905 27.8803 56.905 28.4446V31H57.4917V28.4446C57.4917 27.5472 57.0094 27.1321 56.3283 27.1321C55.7814 27.1321 55.3812 27.3832 55.1848 27.7784H55.1451C54.9561 27.3707 54.623 27.1321 54.1209 27.1321C53.6238 27.1321 53.2559 27.3707 53.0968 27.7784H53.0471V27.1818H52.4803V31ZM60.1651 31.0795C60.9407 31.0795 61.5075 30.6918 61.6864 30.1151L61.1197 29.956C60.9705 30.3537 60.625 30.5526 60.1651 30.5526C59.4766 30.5526 59.0018 30.1076 58.9744 29.2898H61.7461V29.0412C61.7461 27.6193 60.9009 27.1321 60.1055 27.1321C59.0714 27.1321 58.3853 27.9474 58.3853 29.1207C58.3853 30.294 59.0614 31.0795 60.1651 31.0795ZM58.9744 28.7827C59.0142 28.1886 59.4343 27.6591 60.1055 27.6591C60.7418 27.6591 61.1495 28.1364 61.1495 28.7827H58.9744ZM62.6385 31H63.2251V28.5838C63.2251 28.0668 63.6328 27.6889 64.1896 27.6889C64.3462 27.6889 64.5078 27.7188 64.5476 27.7287V27.1321C64.4805 27.1271 64.3263 27.1222 64.2393 27.1222C63.782 27.1222 63.3842 27.3807 63.245 27.7585H63.2053V27.1818H62.6385V31Z" fill="black"/>
<path d="M1.749 44.724L2.547 43.982L1.63 43.8L1.833 43.387L2.631 43.814L2.666 42.82H3.065L2.771 43.814L3.709 43.387L3.772 43.8L2.799 43.982L3.345 44.724L2.96 44.976L2.652 44.108L2.057 44.976L1.749 44.724ZM6.6718 43.905C6.56447 43.905 6.47114 43.8653 6.3918 43.786C6.31247 43.7067 6.2728 43.6133 6.2728 43.506C6.2728 43.3987 6.31247 43.3053 6.3918 43.226C6.47114 43.1467 6.56447 43.107 6.6718 43.107C6.77914 43.107 6.87247 43.1467 6.9518 43.226C7.03114 43.3053 7.0708 43.3987 7.0708 43.506C7.0708 43.6133 7.03114 43.7067 6.9518 43.786C6.87247 43.8653 6.77914 43.905 6.6718 43.905ZM6.1748 48.07C6.01147 48.07 5.89947 48.007 5.8388 47.881C5.77814 47.755 5.76647 47.587 5.8038 47.377L6.1748 45.27L5.5658 45.032V44.99L6.7768 44.78H6.7978L6.3708 47.167C6.34747 47.307 6.3428 47.4073 6.3568 47.468C6.3708 47.5287 6.41047 47.559 6.4758 47.559C6.55514 47.559 6.64147 47.517 6.7348 47.433C6.82814 47.3443 6.9168 47.2113 7.0008 47.034L7.0918 47.076C6.95647 47.426 6.80947 47.6803 6.6508 47.839C6.4968 47.993 6.33814 48.07 6.1748 48.07ZM6.77741 49.68C6.67007 49.68 6.58607 49.6543 6.52541 49.603C6.46474 49.5563 6.43441 49.5027 6.43441 49.442C6.43441 49.4 6.44841 49.351 6.47641 49.295L6.57441 49.085H6.61641L6.74941 49.162C6.81941 49.204 6.91507 49.225 7.03641 49.225C7.24641 49.225 7.40974 49.1223 7.52641 48.917C7.64774 48.7117 7.73407 48.4457 7.78541 48.119L8.21941 45.158H7.66641V44.85H8.26141L8.30341 44.57C8.31741 44.4767 8.35941 44.3553 8.42941 44.206C8.49941 44.0567 8.59274 43.9003 8.70941 43.737C8.82607 43.569 8.95907 43.4103 9.10841 43.261C9.26241 43.1117 9.42574 42.9903 9.59841 42.897C9.77574 42.799 9.95774 42.75 10.1444 42.75C10.1864 42.75 10.2307 42.757 10.2774 42.771C10.3241 42.7803 10.3614 42.792 10.3894 42.806C10.4501 42.8387 10.4921 42.869 10.5154 42.897C10.5387 42.9203 10.5504 42.9483 10.5504 42.981C10.5504 42.9997 10.5434 43.0253 10.5294 43.058C10.5201 43.086 10.5084 43.1117 10.4944 43.135L10.3824 43.345H10.3334L10.1724 43.268C10.0557 43.2167 9.91574 43.191 9.75241 43.191C9.50974 43.191 9.31607 43.2937 9.17141 43.499C9.02674 43.7043 8.93107 43.968 8.88441 44.29L8.80041 44.85H9.59141V45.158H8.75841L8.35941 47.853C8.34541 47.9417 8.30807 48.0607 8.24741 48.21C8.18674 48.364 8.10507 48.525 8.00241 48.693C7.90441 48.861 7.79007 49.0197 7.65941 49.169C7.53341 49.3183 7.39574 49.4397 7.24641 49.533C7.09707 49.631 6.94074 49.68 6.77741 49.68ZM10.6807 49.68C10.5734 49.68 10.4894 49.6543 10.4287 49.603C10.3681 49.5563 10.3377 49.5027 10.3377 49.442C10.3377 49.4 10.3517 49.351 10.3797 49.295L10.4777 49.085H10.5197L10.6527 49.162C10.7227 49.204 10.8184 49.225 10.9397 49.225C11.1497 49.225 11.3131 49.1223 11.4297 48.917C11.5511 48.7117 11.6374 48.4457 11.6887 48.119L12.1227 45.158H11.5697V44.85H12.1647L12.2067 44.57C12.2207 44.4767 12.2627 44.3553 12.3327 44.206C12.4027 44.0567 12.4961 43.9003 12.6127 43.737C12.7294 43.569 12.8624 43.4103 13.0117 43.261C13.1657 43.1117 13.3291 42.9903 13.5017 42.897C13.6791 42.799 13.8611 42.75 14.0477 42.75C14.0897 42.75 14.1341 42.757 14.1807 42.771C14.2274 42.7803 14.2647 42.792 14.2927 42.806C14.3534 42.8387 14.3954 42.869 14.4187 42.897C14.4421 42.9203 14.4537 42.9483 14.4537 42.981C14.4537 42.9997 14.4467 43.0253 14.4327 43.058C14.4234 43.086 14.4117 43.1117 14.3977 43.135L14.2857 43.345H14.2367L14.0757 43.268C13.9591 43.2167 13.8191 43.191 13.6557 43.191C13.4131 43.191 13.2194 43.2937 13.0747 43.499C12.9301 43.7043 12.8344 43.968 12.7877 44.29L12.7037 44.85H13.4947V45.158H12.6617L12.2627 47.853C12.2487 47.9417 12.2114 48.0607 12.1507 48.21C12.0901 48.364 12.0084 48.525 11.9057 48.693C11.8077 48.861 11.6934 49.0197 11.5627 49.169C11.4367 49.3183 11.2991 49.4397 11.1497 49.533C11.0004 49.631 10.8441 49.68 10.6807 49.68ZM14.5681 48.07C14.3954 48.07 14.2531 48.0023 14.1411 47.867C14.0337 47.7317 13.9801 47.5473 13.9801 47.314C13.9801 47.2673 13.9824 47.2207 13.9871 47.174C13.9964 47.1273 14.0034 47.0807 14.0081 47.034L14.3231 45.277L13.7771 45.032V44.99L14.8971 44.78H14.9251L14.5611 46.922C14.5424 47.0387 14.5331 47.1227 14.5331 47.174C14.5331 47.3047 14.5634 47.4167 14.6241 47.51C14.6894 47.5987 14.7944 47.643 14.9391 47.643C15.0371 47.643 15.1351 47.608 15.2331 47.538C15.3357 47.468 15.4337 47.384 15.5271 47.286C15.6204 47.188 15.7044 47.097 15.7791 47.013L16.0801 45.277L15.5971 45.032V44.99L16.6611 44.78H16.6891L16.2691 47.167C16.2457 47.307 16.2411 47.4073 16.2551 47.468C16.2737 47.5287 16.3181 47.559 16.3881 47.559C16.4674 47.559 16.5537 47.517 16.6471 47.433C16.7404 47.3443 16.8291 47.2113 16.9131 47.034L17.0041 47.076C16.8687 47.426 16.7217 47.6803 16.5631 47.839C16.4091 47.993 16.2504 48.07 16.0871 48.07C15.9237 48.07 15.8117 48.007 15.7511 47.881C15.6951 47.755 15.6834 47.587 15.7161 47.377L15.7231 47.335H15.7021C15.5434 47.5123 15.4057 47.6547 15.2891 47.762C15.1724 47.8693 15.0581 47.9487 14.9461 48C14.8387 48.0467 14.7127 48.07 14.5681 48.07ZM17.8193 48.07C17.656 48.07 17.544 48.007 17.4833 47.881C17.4226 47.755 17.411 47.587 17.4483 47.377L18.1693 43.24L17.5603 43.002V42.96L18.7713 42.75H18.7923L18.0153 47.167C17.992 47.307 17.9873 47.4073 18.0013 47.468C18.0153 47.5287 18.055 47.559 18.1203 47.559C18.1996 47.559 18.286 47.517 18.3793 47.433C18.4726 47.3443 18.5613 47.2113 18.6453 47.034L18.7363 47.076C18.601 47.426 18.454 47.6803 18.2953 47.839C18.1413 47.993 17.9826 48.07 17.8193 48.07ZM19.624 48.07C19.4607 48.07 19.3487 48.007 19.288 47.881C19.2273 47.755 19.2157 47.587 19.253 47.377L19.974 43.24L19.365 43.002V42.96L20.576 42.75H20.597L19.82 47.167C19.7967 47.307 19.792 47.4073 19.806 47.468C19.82 47.5287 19.8597 47.559 19.925 47.559C20.0043 47.559 20.0907 47.517 20.184 47.433C20.2773 47.3443 20.366 47.2113 20.45 47.034L20.541 47.076C20.4057 47.426 20.2587 47.6803 20.1 47.839C19.946 47.993 19.7873 48.07 19.624 48.07ZM22.8306 44.626L25.5396 45.921L25.4836 46.271L22.3196 47.566L22.3826 47.202L25.1266 46.075L22.7746 44.955L22.8306 44.626ZM28.4746 48.07C28.3206 48.07 28.204 48.021 28.1246 47.923C28.0453 47.825 28.0056 47.6873 28.0056 47.51C28.0056 47.4727 28.008 47.4307 28.0126 47.384C28.0173 47.3373 28.0243 47.2907 28.0336 47.244L28.4046 45.158H27.8866V45.116L28.4816 44.85L29.0836 44.08H29.1256L28.9926 44.85H29.8676V45.158H28.9366L28.6216 46.936C28.6123 46.9967 28.6053 47.0527 28.6006 47.104C28.596 47.1507 28.5936 47.1927 28.5936 47.23C28.5936 47.342 28.6123 47.4213 28.6496 47.468C28.687 47.5147 28.736 47.538 28.7966 47.538C28.904 47.538 29.0183 47.4773 29.1396 47.356C29.2656 47.2347 29.38 47.0597 29.4826 46.831L29.5736 46.873C29.4196 47.3163 29.247 47.6267 29.0556 47.804C28.869 47.9813 28.6753 48.07 28.4746 48.07ZM30.5008 48H29.9688L30.8018 43.254L30.2558 43.009V42.967L31.4038 42.757H31.4248L30.9418 45.515H30.9558C31.1191 45.333 31.2615 45.1883 31.3828 45.081C31.5088 44.9737 31.6301 44.8967 31.7468 44.85C31.8681 44.8033 32.0035 44.78 32.1528 44.78C32.3815 44.78 32.5565 44.8733 32.6778 45.06C32.8038 45.2467 32.8388 45.4987 32.7828 45.816L32.5378 47.167C32.5145 47.307 32.5098 47.4073 32.5238 47.468C32.5378 47.5287 32.5775 47.559 32.6428 47.559C32.7221 47.559 32.8085 47.517 32.9018 47.433C32.9951 47.3443 33.0838 47.2113 33.1678 47.034L33.2588 47.076C33.1235 47.426 32.9765 47.6803 32.8178 47.839C32.6638 47.993 32.5051 48.07 32.3418 48.07C32.1785 48.07 32.0665 48.007 32.0058 47.881C31.9451 47.755 31.9335 47.587 31.9708 47.377L32.2438 45.837C32.2671 45.6737 32.2461 45.529 32.1808 45.403C32.1201 45.2723 31.9871 45.207 31.7818 45.207C31.6791 45.207 31.5741 45.242 31.4668 45.312C31.3595 45.3773 31.2545 45.459 31.1518 45.557C31.0491 45.6503 30.9605 45.739 30.8858 45.823L30.5008 48ZM34.6996 48.07C34.3403 48.07 34.0766 47.972 33.9086 47.776C33.7406 47.5753 33.6566 47.3047 33.6566 46.964C33.6566 46.6887 33.701 46.4227 33.7896 46.166C33.883 45.9047 34.009 45.6713 34.1676 45.466C34.331 45.256 34.5176 45.0903 34.7276 44.969C34.9423 44.843 35.1733 44.78 35.4206 44.78C35.654 44.78 35.829 44.8337 35.9456 44.941C36.067 45.0483 36.1276 45.1743 36.1276 45.319C36.1276 45.4777 36.0716 45.6247 35.9596 45.76C35.8476 45.8907 35.6516 46.012 35.3716 46.124C35.0963 46.2313 34.7066 46.327 34.2026 46.411C34.1933 46.5043 34.1886 46.6023 34.1886 46.705C34.1886 46.9897 34.2493 47.216 34.3706 47.384C34.492 47.552 34.6833 47.636 34.9446 47.636C35.0986 47.636 35.2503 47.594 35.3996 47.51C35.549 47.426 35.703 47.2883 35.8616 47.097H35.8756L35.9456 47.153C35.787 47.4283 35.5956 47.65 35.3716 47.818C35.1523 47.986 34.9283 48.07 34.6996 48.07ZM35.2316 45.025C34.9796 45.025 34.765 45.13 34.5876 45.34C34.415 45.5453 34.2983 45.8183 34.2376 46.159C34.5876 46.0983 34.8606 46.033 35.0566 45.963C35.2526 45.893 35.3903 45.8113 35.4696 45.718C35.549 45.62 35.5886 45.4987 35.5886 45.354C35.5886 45.2607 35.5583 45.1837 35.4976 45.123C35.437 45.0577 35.3483 45.025 35.2316 45.025ZM37.8891 49.61V49.498L38.2741 49.302L38.9881 45.277L38.4421 45.032V44.99L39.4361 44.78H39.4571V45.655H39.4851C39.6578 45.3843 39.8421 45.172 40.0381 45.018C40.2388 44.8593 40.4465 44.78 40.6611 44.78C40.8478 44.78 40.9971 44.8617 41.1091 45.025C41.2258 45.1883 41.2841 45.4287 41.2841 45.746C41.2841 46.0353 41.2375 46.3177 41.1441 46.593C41.0555 46.8683 40.9295 47.118 40.7661 47.342C40.6075 47.566 40.4231 47.7433 40.2131 47.874C40.0031 48.0047 39.7791 48.07 39.5411 48.07C39.4525 48.07 39.3661 48.0607 39.2821 48.042C39.1981 48.028 39.1211 48.007 39.0511 47.979L38.8341 49.295L39.3941 49.498V49.61H37.8891ZM40.3321 45.242C40.2201 45.242 40.1081 45.2793 39.9961 45.354C39.8841 45.4287 39.7768 45.5243 39.6741 45.641C39.5715 45.7577 39.4781 45.879 39.3941 46.005L39.1491 47.426C39.2378 47.5473 39.3241 47.6407 39.4081 47.706C39.4968 47.7667 39.6088 47.797 39.7441 47.797C39.9448 47.797 40.1198 47.7107 40.2691 47.538C40.4231 47.3653 40.5421 47.1437 40.6261 46.873C40.7101 46.6023 40.7521 46.3177 40.7521 46.019C40.7521 45.7577 40.7218 45.564 40.6611 45.438C40.6051 45.3073 40.4955 45.242 40.3321 45.242ZM41.9338 48L42.4168 45.277L41.8708 45.032V44.99L42.8578 44.78H42.8788V45.641H42.9068C43.0561 45.3657 43.1821 45.1697 43.2848 45.053C43.3921 44.9317 43.4855 44.857 43.5648 44.829C43.6488 44.7963 43.7235 44.78 43.7888 44.78C43.8728 44.78 43.9498 44.808 44.0198 44.864C44.0898 44.9153 44.1248 44.976 44.1248 45.046C44.1248 45.0693 44.1178 45.095 44.1038 45.123L43.9288 45.48H43.8868L43.8098 45.424C43.7725 45.396 43.7305 45.3773 43.6838 45.368C43.6418 45.354 43.5998 45.347 43.5578 45.347C43.4738 45.347 43.3968 45.3657 43.3268 45.403C43.2615 45.4357 43.1868 45.508 43.1028 45.62C43.0235 45.7273 42.9208 45.8907 42.7948 46.11L42.4658 48H41.9338ZM45.4492 48.07C45.0432 48.07 44.7422 47.944 44.5462 47.692C44.3548 47.44 44.2592 47.1133 44.2592 46.712C44.2592 46.4927 44.2988 46.271 44.3782 46.047C44.4575 45.8183 44.5718 45.6083 44.7212 45.417C44.8705 45.2257 45.0478 45.0717 45.2532 44.955C45.4585 44.8383 45.6848 44.78 45.9322 44.78C46.3382 44.78 46.6368 44.906 46.8282 45.158C47.0242 45.41 47.1222 45.7367 47.1222 46.138C47.1222 46.348 47.0825 46.5673 47.0032 46.796C46.9285 47.02 46.8165 47.23 46.6672 47.426C46.5225 47.6173 46.3475 47.7737 46.1422 47.895C45.9368 48.0117 45.7058 48.07 45.4492 48.07ZM45.5262 47.804C45.7268 47.804 45.9018 47.727 46.0512 47.573C46.2005 47.4143 46.3148 47.2067 46.3942 46.95C46.4735 46.6887 46.5132 46.404 46.5132 46.096C46.5132 45.7507 46.4665 45.4893 46.3732 45.312C46.2845 45.13 46.1165 45.039 45.8692 45.039C45.6732 45.039 45.4982 45.1113 45.3442 45.256C45.1948 45.396 45.0782 45.592 44.9942 45.844C44.9102 46.096 44.8682 46.3923 44.8682 46.733C44.8682 47.0783 44.9148 47.3443 45.0082 47.531C45.1015 47.713 45.2742 47.804 45.5262 47.804ZM48.8427 43.905C48.7354 43.905 48.642 43.8653 48.5627 43.786C48.4834 43.7067 48.4437 43.6133 48.4437 43.506C48.4437 43.3987 48.4834 43.3053 48.5627 43.226C48.642 43.1467 48.7354 43.107 48.8427 43.107C48.95 43.107 49.0434 43.1467 49.1227 43.226C49.202 43.3053 49.2417 43.3987 49.2417 43.506C49.2417 43.6133 49.202 43.7067 49.1227 43.786C49.0434 43.8653 48.95 43.905 48.8427 43.905ZM46.9387 49.61V49.498C47.0974 49.3953 47.2374 49.281 47.3587 49.155C47.4754 49.0337 47.5734 48.8867 47.6527 48.714C47.7367 48.5413 47.802 48.3267 47.8487 48.07L48.3457 45.27L47.7367 45.032V44.99L48.9477 44.78H48.9687L48.3947 48C48.3294 48.3453 48.1684 48.651 47.9117 48.917C47.6597 49.1877 47.3354 49.4187 46.9387 49.61ZM50.8803 48.07C50.521 48.07 50.2573 47.972 50.0893 47.776C49.9213 47.5753 49.8373 47.3047 49.8373 46.964C49.8373 46.6887 49.8816 46.4227 49.9703 46.166C50.0636 45.9047 50.1896 45.6713 50.3483 45.466C50.5116 45.256 50.6983 45.0903 50.9083 44.969C51.123 44.843 51.354 44.78 51.6013 44.78C51.8346 44.78 52.0096 44.8337 52.1263 44.941C52.2476 45.0483 52.3083 45.1743 52.3083 45.319C52.3083 45.4777 52.2523 45.6247 52.1403 45.76C52.0283 45.8907 51.8323 46.012 51.5523 46.124C51.277 46.2313 50.8873 46.327 50.3833 46.411C50.374 46.5043 50.3693 46.6023 50.3693 46.705C50.3693 46.9897 50.43 47.216 50.5513 47.384C50.6726 47.552 50.864 47.636 51.1253 47.636C51.2793 47.636 51.431 47.594 51.5803 47.51C51.7296 47.426 51.8836 47.2883 52.0423 47.097H52.0563L52.1263 47.153C51.9676 47.4283 51.7763 47.65 51.5523 47.818C51.333 47.986 51.109 48.07 50.8803 48.07ZM51.4123 45.025C51.1603 45.025 50.9456 45.13 50.7683 45.34C50.5956 45.5453 50.479 45.8183 50.4183 46.159C50.7683 46.0983 51.0413 46.033 51.2373 45.963C51.4333 45.893 51.571 45.8113 51.6503 45.718C51.7296 45.62 51.7693 45.4987 51.7693 45.354C51.7693 45.2607 51.739 45.1837 51.6783 45.123C51.6176 45.0577 51.529 45.025 51.4123 45.025ZM53.9768 48.07C53.6408 48.07 53.3842 47.9697 53.2068 47.769C53.0295 47.5637 52.9408 47.2673 52.9408 46.88C52.9408 46.6373 52.9875 46.3947 53.0808 46.152C53.1788 45.9047 53.3095 45.6783 53.4728 45.473C53.6408 45.263 53.8275 45.095 54.0328 44.969C54.2428 44.843 54.4575 44.78 54.6768 44.78C54.8495 44.78 54.9895 44.8127 55.0968 44.878C55.2042 44.9387 55.2905 45.0203 55.3558 45.123C55.3838 45.165 55.4025 45.2 55.4118 45.228C55.4212 45.256 55.4258 45.2863 55.4258 45.319C55.4258 45.3517 55.4165 45.3843 55.3978 45.417C55.3838 45.4497 55.3582 45.4777 55.3208 45.501L55.1178 45.62H55.0688L54.9288 45.417C54.8542 45.305 54.7772 45.2233 54.6978 45.172C54.6232 45.116 54.5135 45.088 54.3688 45.088C54.2148 45.088 54.0678 45.1627 53.9278 45.312C53.7925 45.4613 53.6805 45.6527 53.5918 45.886C53.5078 46.1147 53.4658 46.355 53.4658 46.607C53.4658 46.9383 53.5218 47.1927 53.6338 47.37C53.7505 47.5473 53.9372 47.636 54.1938 47.636C54.2732 47.636 54.3618 47.622 54.4598 47.594C54.5578 47.5613 54.6652 47.4983 54.7818 47.405C54.8985 47.307 55.0268 47.16 55.1668 46.964H55.1808L55.2508 47.02C55.0502 47.3747 54.8472 47.6383 54.6418 47.811C54.4365 47.9837 54.2148 48.07 53.9768 48.07ZM56.4951 48.07C56.3411 48.07 56.2245 48.021 56.1451 47.923C56.0658 47.825 56.0261 47.6873 56.0261 47.51C56.0261 47.4727 56.0285 47.4307 56.0331 47.384C56.0378 47.3373 56.0448 47.2907 56.0541 47.244L56.4251 45.158H55.9071V45.116L56.5021 44.85L57.1041 44.08H57.1461L57.0131 44.85H57.8881V45.158H56.9571L56.6421 46.936C56.6328 46.9967 56.6258 47.0527 56.6211 47.104C56.6165 47.1507 56.6141 47.1927 56.6141 47.23C56.6141 47.342 56.6328 47.4213 56.6701 47.468C56.7075 47.5147 56.7565 47.538 56.8171 47.538C56.9245 47.538 57.0388 47.4773 57.1601 47.356C57.2861 47.2347 57.4005 47.0597 57.5031 46.831L57.5941 46.873C57.4401 47.3163 57.2675 47.6267 57.0761 47.804C56.8895 47.9813 56.6958 48.07 56.4951 48.07ZM60.8193 43.905C60.7119 43.905 60.6186 43.8653 60.5393 43.786C60.4599 43.7067 60.4203 43.6133 60.4203 43.506C60.4203 43.3987 60.4599 43.3053 60.5393 43.226C60.6186 43.1467 60.7119 43.107 60.8193 43.107C60.9266 43.107 61.0199 43.1467 61.0993 43.226C61.1786 43.3053 61.2183 43.3987 61.2183 43.506C61.2183 43.6133 61.1786 43.7067 61.0993 43.786C61.0199 43.8653 60.9266 43.905 60.8193 43.905ZM60.3223 48.07C60.1589 48.07 60.0469 48.007 59.9863 47.881C59.9256 47.755 59.9139 47.587 59.9513 47.377L60.3223 45.27L59.7133 45.032V44.99L60.9243 44.78H60.9453L60.5183 47.167C60.4949 47.307 60.4903 47.4073 60.5043 47.468C60.5183 47.5287 60.5579 47.559 60.6233 47.559C60.7026 47.559 60.7889 47.517 60.8823 47.433C60.9756 47.3443 61.0643 47.2113 61.1483 47.034L61.2393 47.076C61.1039 47.426 60.9569 47.6803 60.7983 47.839C60.6443 47.993 60.4856 48.07 60.3223 48.07ZM62.4509 48.07C62.2129 48.07 62.0192 48.0373 61.8699 47.972C61.7205 47.902 61.6132 47.8157 61.5479 47.713C61.5199 47.671 61.5012 47.636 61.4919 47.608C61.4825 47.58 61.4779 47.5497 61.4779 47.517C61.4779 47.489 61.4825 47.461 61.4919 47.433C61.5012 47.4003 61.5245 47.3747 61.5619 47.356L61.7159 47.272H61.7649L61.8839 47.475C61.9539 47.5917 62.0472 47.6803 62.1639 47.741C62.2805 47.797 62.3972 47.825 62.5139 47.825C62.6912 47.825 62.8359 47.7783 62.9479 47.685C63.0645 47.5917 63.1229 47.4563 63.1229 47.279C63.1229 47.097 63.0622 46.957 62.9409 46.859C62.8242 46.761 62.6912 46.6677 62.5419 46.579C62.3645 46.4717 62.2315 46.3737 62.1429 46.285C62.0542 46.1963 61.9935 46.1053 61.9609 46.012C61.9282 45.9187 61.9119 45.8067 61.9119 45.676C61.9119 45.5407 61.9632 45.4053 62.0659 45.27C62.1685 45.13 62.3039 45.0133 62.4719 44.92C62.6399 44.8267 62.8172 44.78 63.0039 44.78C63.2092 44.78 63.3702 44.8127 63.4869 44.878C63.6035 44.9387 63.6945 45.018 63.7599 45.116C63.8019 45.1813 63.8229 45.242 63.8229 45.298C63.8229 45.3307 63.8135 45.3633 63.7949 45.396C63.7809 45.4287 63.7575 45.4543 63.7249 45.473L63.5919 45.543H63.5429L63.3889 45.326C63.3235 45.2327 63.2489 45.1627 63.1649 45.116C63.0855 45.0647 62.9852 45.039 62.8639 45.039C62.7285 45.039 62.6119 45.081 62.5139 45.165C62.4205 45.2443 62.3739 45.3493 62.3739 45.48C62.3739 45.6293 62.4182 45.753 62.5069 45.851C62.6002 45.949 62.7075 46.033 62.8289 46.103C62.9969 46.201 63.1345 46.2943 63.2419 46.383C63.3539 46.4717 63.4379 46.572 63.4939 46.684C63.5499 46.796 63.5779 46.9383 63.5779 47.111C63.5779 47.2743 63.5289 47.4307 63.4309 47.58C63.3329 47.7247 63.1975 47.8437 63.0249 47.937C62.8569 48.0257 62.6655 48.07 62.4509 48.07ZM1.973 57.07C1.78633 57.07 1.63467 56.9907 1.518 56.832C1.406 56.6687 1.35 56.426 1.35 56.104C1.35 55.8147 1.39433 55.5323 1.483 55.257C1.57633 54.9817 1.70233 54.732 1.861 54.508C2.02433 54.284 2.211 54.1067 2.421 53.976C2.631 53.8453 2.855 53.78 3.093 53.78C3.261 53.78 3.422 53.8103 3.576 53.871L3.863 52.24L3.254 52.002V51.96L4.465 51.75H4.486L3.709 56.167C3.68567 56.307 3.681 56.4073 3.695 56.468C3.709 56.5287 3.74867 56.559 3.814 56.559C3.89333 56.559 3.97967 56.517 4.073 56.433C4.16633 56.3443 4.255 56.2113 4.339 56.034L4.43 56.076C4.29467 56.426 4.14767 56.6803 3.989 56.839C3.835 56.993 3.67633 57.07 3.513 57.07C3.34967 57.07 3.23767 57.007 3.177 56.881C3.11633 56.755 3.10467 56.587 3.142 56.377L3.177 56.195H3.149C2.757 56.7783 2.365 57.07 1.973 57.07ZM1.882 55.831C1.882 56.125 1.91467 56.328 1.98 56.44C2.04533 56.552 2.15267 56.608 2.302 56.608C2.43733 56.608 2.589 56.5403 2.757 56.405C2.925 56.265 3.08367 56.0807 3.233 55.852L3.485 54.417C3.387 54.2863 3.29133 54.193 3.198 54.137C3.10933 54.081 3.00667 54.053 2.89 54.053C2.70333 54.053 2.533 54.1347 2.379 54.298C2.22967 54.4613 2.10833 54.6783 2.015 54.949C1.92633 55.215 1.882 55.509 1.882 55.831ZM5.99554 57.07C5.63621 57.07 5.37254 56.972 5.20454 56.776C5.03654 56.5753 4.95254 56.3047 4.95254 55.964C4.95254 55.6887 4.99687 55.4227 5.08554 55.166C5.17887 54.9047 5.30487 54.6713 5.46354 54.466C5.62687 54.256 5.81354 54.0903 6.02354 53.969C6.23821 53.843 6.46921 53.78 6.71654 53.78C6.94987 53.78 7.12487 53.8337 7.24154 53.941C7.36287 54.0483 7.42354 54.1743 7.42354 54.319C7.42354 54.4777 7.36754 54.6247 7.25554 54.76C7.14354 54.8907 6.94754 55.012 6.66754 55.124C6.39221 55.2313 6.00254 55.327 5.49854 55.411C5.48921 55.5043 5.48454 55.6023 5.48454 55.705C5.48454 55.9897 5.54521 56.216 5.66654 56.384C5.78787 56.552 5.97921 56.636 6.24054 56.636C6.39454 56.636 6.54621 56.594 6.69554 56.51C6.84487 56.426 6.99887 56.2883 7.15754 56.097H7.17154L7.24154 56.153C7.08287 56.4283 6.89154 56.65 6.66754 56.818C6.44821 56.986 6.22421 57.07 5.99554 57.07ZM6.52754 54.025C6.27554 54.025 6.06087 54.13 5.88354 54.34C5.71087 54.5453 5.59421 54.8183 5.53354 55.159C5.88354 55.0983 6.15654 55.033 6.35254 54.963C6.54854 54.893 6.68621 54.8113 6.76554 54.718C6.84487 54.62 6.88454 54.4987 6.88454 54.354C6.88454 54.2607 6.85421 54.1837 6.79354 54.123C6.73287 54.0577 6.64421 54.025 6.52754 54.025ZM8.69305 57.07C8.45505 57.07 8.26139 57.0373 8.11205 56.972C7.96272 56.902 7.85539 56.8157 7.79005 56.713C7.76205 56.671 7.74339 56.636 7.73405 56.608C7.72472 56.58 7.72005 56.5497 7.72005 56.517C7.72005 56.489 7.72472 56.461 7.73405 56.433C7.74339 56.4003 7.76672 56.3747 7.80405 56.356L7.95805 56.272H8.00705L8.12605 56.475C8.19605 56.5917 8.28939 56.6803 8.40605 56.741C8.52272 56.797 8.63939 56.825 8.75605 56.825C8.93339 56.825 9.07805 56.7783 9.19005 56.685C9.30672 56.5917 9.36505 56.4563 9.36505 56.279C9.36505 56.097 9.30439 55.957 9.18305 55.859C9.06639 55.761 8.93339 55.6677 8.78405 55.579C8.60672 55.4717 8.47372 55.3737 8.38505 55.285C8.29639 55.1963 8.23572 55.1053 8.20305 55.012C8.17039 54.9187 8.15405 54.8067 8.15405 54.676C8.15405 54.5407 8.20539 54.4053 8.30805 54.27C8.41072 54.13 8.54605 54.0133 8.71405 53.92C8.88205 53.8267 9.05939 53.78 9.24605 53.78C9.45139 53.78 9.61239 53.8127 9.72905 53.878C9.84572 53.9387 9.93672 54.018 10.0021 54.116C10.0441 54.1813 10.0651 54.242 10.0651 54.298C10.0651 54.3307 10.0557 54.3633 10.0371 54.396C10.0231 54.4287 9.99972 54.4543 9.96705 54.473L9.83405 54.543H9.78505L9.63105 54.326C9.56572 54.2327 9.49105 54.1627 9.40705 54.116C9.32772 54.0647 9.22739 54.039 9.10605 54.039C8.97072 54.039 8.85405 54.081 8.75605 54.165C8.66272 54.2443 8.61605 54.3493 8.61605 54.48C8.61605 54.6293 8.66039 54.753 8.74905 54.851C8.84239 54.949 8.94972 55.033 9.07105 55.103C9.23905 55.201 9.37672 55.2943 9.48405 55.383C9.59605 55.4717 9.68005 55.572 9.73605 55.684C9.79205 55.796 9.82005 55.9383 9.82005 56.111C9.82005 56.2743 9.77105 56.4307 9.67305 56.58C9.57505 56.7247 9.43972 56.8437 9.26705 56.937C9.09905 57.0257 8.90772 57.07 8.69305 57.07ZM11.5458 52.905C11.4385 52.905 11.3452 52.8653 11.2658 52.786C11.1865 52.7067 11.1468 52.6133 11.1468 52.506C11.1468 52.3987 11.1865 52.3053 11.2658 52.226C11.3452 52.1467 11.4385 52.107 11.5458 52.107C11.6532 52.107 11.7465 52.1467 11.8258 52.226C11.9052 52.3053 11.9448 52.3987 11.9448 52.506C11.9448 52.6133 11.9052 52.7067 11.8258 52.786C11.7465 52.8653 11.6532 52.905 11.5458 52.905ZM11.0488 57.07C10.8855 57.07 10.7735 57.007 10.7128 56.881C10.6522 56.755 10.6405 56.587 10.6778 56.377L11.0488 54.27L10.4398 54.032V53.99L11.6508 53.78H11.6718L11.2448 56.167C11.2215 56.307 11.2168 56.4073 11.2308 56.468C11.2448 56.5287 11.2845 56.559 11.3498 56.559C11.4292 56.559 11.5155 56.517 11.6088 56.433C11.7022 56.3443 11.7908 56.2113 11.8748 56.034L11.9658 56.076C11.8305 56.426 11.6835 56.6803 11.5248 56.839C11.3708 56.993 11.2122 57.07 11.0488 57.07ZM13.6464 55.929C13.5064 55.929 13.3781 55.908 13.2614 55.866C13.1541 55.9173 13.0771 55.9827 13.0304 56.062C12.9884 56.1367 12.9674 56.216 12.9674 56.3C12.9674 56.3933 13.0141 56.4657 13.1074 56.517C13.2008 56.5683 13.3198 56.6103 13.4644 56.643C13.6138 56.6757 13.7724 56.7107 13.9404 56.748C14.1084 56.7807 14.2648 56.8273 14.4094 56.888C14.5588 56.944 14.6801 57.021 14.7734 57.119C14.8668 57.2217 14.9134 57.357 14.9134 57.525C14.9134 57.7117 14.8551 57.8937 14.7384 58.071C14.6218 58.2483 14.4468 58.393 14.2134 58.505C13.9848 58.6217 13.6931 58.68 13.3384 58.68C12.9231 58.68 12.6151 58.6123 12.4144 58.477C12.2184 58.3417 12.1204 58.1713 12.1204 57.966C12.1204 57.8167 12.1438 57.7 12.1904 57.616C12.2324 57.532 12.3048 57.4387 12.4074 57.336L12.9674 57.021V57.007C12.8228 56.965 12.7014 56.9067 12.6034 56.832C12.5101 56.7573 12.4634 56.6477 12.4634 56.503C12.4634 56.405 12.4751 56.3233 12.4984 56.258C12.5218 56.1927 12.5661 56.1227 12.6314 56.048L13.1004 55.81V55.789C12.9744 55.7143 12.8741 55.614 12.7994 55.488C12.7294 55.3573 12.6944 55.2103 12.6944 55.047C12.6944 54.851 12.7504 54.6573 12.8624 54.466C12.9791 54.27 13.1354 54.1067 13.3314 53.976C13.5321 53.8453 13.7608 53.78 14.0174 53.78C14.1434 53.78 14.2741 53.8033 14.4094 53.85H15.4664V54.158H14.8434L14.8154 54.179C14.9134 54.3097 14.9624 54.4823 14.9624 54.697C14.9624 54.8277 14.9321 54.9653 14.8714 55.11C14.8108 55.25 14.7221 55.383 14.6054 55.509C14.4888 55.635 14.3488 55.7377 14.1854 55.817C14.0268 55.8917 13.8471 55.929 13.6464 55.929ZM13.7724 55.656C13.9031 55.656 14.0174 55.607 14.1154 55.509C14.2181 55.411 14.2974 55.292 14.3534 55.152C14.4141 55.0073 14.4444 54.865 14.4444 54.725C14.4444 54.5243 14.3954 54.3633 14.2974 54.242C14.1994 54.116 14.0711 54.053 13.9124 54.053C13.7724 54.053 13.6488 54.0997 13.5414 54.193C13.4388 54.2817 13.3594 54.396 13.3034 54.536C13.2474 54.676 13.2194 54.8207 13.2194 54.97C13.2194 55.1753 13.2684 55.341 13.3664 55.467C13.4691 55.593 13.6044 55.656 13.7724 55.656ZM12.6454 57.889C12.6454 58.0617 12.7178 58.1993 12.8624 58.302C13.0118 58.4093 13.2101 58.463 13.4574 58.463C13.7794 58.463 14.0174 58.3907 14.1714 58.246C14.3254 58.1013 14.4024 57.9287 14.4024 57.728C14.4024 57.5973 14.3628 57.4923 14.2834 57.413C14.2088 57.3383 14.1084 57.28 13.9824 57.238C13.8564 57.196 13.7188 57.161 13.5694 57.133C13.4248 57.1097 13.2824 57.0817 13.1424 57.049C12.9278 57.1983 12.7901 57.3407 12.7294 57.476C12.6734 57.616 12.6454 57.7537 12.6454 57.889ZM15.5881 57L16.0711 54.277L15.5251 54.032V53.99L16.5191 53.78H16.5401V54.515H16.5681C16.7314 54.333 16.8761 54.1883 17.0021 54.081C17.1281 53.9737 17.2494 53.8967 17.3661 53.85C17.4828 53.8033 17.6181 53.78 17.7721 53.78C18.0008 53.78 18.1758 53.8733 18.2971 54.06C18.4231 54.2467 18.4581 54.4987 18.4021 54.816L18.1571 56.167C18.1338 56.307 18.1291 56.4073 18.1431 56.468C18.1618 56.5287 18.2014 56.559 18.2621 56.559C18.3414 56.559 18.4278 56.517 18.5211 56.433C18.6144 56.3443 18.7031 56.2113 18.7871 56.034L18.8781 56.076C18.7428 56.426 18.5958 56.6803 18.4371 56.839C18.2831 56.993 18.1244 57.07 17.9611 57.07C17.7978 57.07 17.6858 57.007 17.6251 56.881C17.5644 56.755 17.5528 56.587 17.5901 56.377L17.8631 54.837C17.8864 54.6737 17.8654 54.529 17.8001 54.403C17.7394 54.2723 17.6064 54.207 17.4011 54.207C17.2984 54.207 17.1911 54.242 17.0791 54.312C16.9718 54.382 16.8668 54.466 16.7641 54.564C16.6614 54.6573 16.5704 54.7483 16.4911 54.837L16.1201 57H15.5881ZM20.3237 57.07C19.9643 57.07 19.7007 56.972 19.5327 56.776C19.3647 56.5753 19.2807 56.3047 19.2807 55.964C19.2807 55.6887 19.325 55.4227 19.4137 55.166C19.507 54.9047 19.633 54.6713 19.7917 54.466C19.955 54.256 20.1417 54.0903 20.3517 53.969C20.5663 53.843 20.7973 53.78 21.0447 53.78C21.278 53.78 21.453 53.8337 21.5697 53.941C21.691 54.0483 21.7517 54.1743 21.7517 54.319C21.7517 54.4777 21.6957 54.6247 21.5837 54.76C21.4717 54.8907 21.2757 55.012 20.9957 55.124C20.7203 55.2313 20.3307 55.327 19.8267 55.411C19.8173 55.5043 19.8127 55.6023 19.8127 55.705C19.8127 55.9897 19.8733 56.216 19.9947 56.384C20.116 56.552 20.3073 56.636 20.5687 56.636C20.7227 56.636 20.8743 56.594 21.0237 56.51C21.173 56.426 21.327 56.2883 21.4857 56.097H21.4997L21.5697 56.153C21.411 56.4283 21.2197 56.65 20.9957 56.818C20.7763 56.986 20.5523 57.07 20.3237 57.07ZM20.8557 54.025C20.6037 54.025 20.389 54.13 20.2117 54.34C20.039 54.5453 19.9223 54.8183 19.8617 55.159C20.2117 55.0983 20.4847 55.033 20.6807 54.963C20.8767 54.893 21.0143 54.8113 21.0937 54.718C21.173 54.62 21.2127 54.4987 21.2127 54.354C21.2127 54.2607 21.1823 54.1837 21.1217 54.123C21.061 54.0577 20.9723 54.025 20.8557 54.025ZM23.0072 57.07C22.8205 57.07 22.6688 56.9907 22.5522 56.832C22.4402 56.6687 22.3842 56.426 22.3842 56.104C22.3842 55.8147 22.4285 55.5323 22.5172 55.257C22.6105 54.9817 22.7365 54.732 22.8952 54.508C23.0585 54.284 23.2452 54.1067 23.4552 53.976C23.6652 53.8453 23.8892 53.78 24.1272 53.78C24.2952 53.78 24.4562 53.8103 24.6102 53.871L24.8972 52.24L24.2882 52.002V51.96L25.4992 51.75H25.5202L24.7432 56.167C24.7198 56.307 24.7152 56.4073 24.7292 56.468C24.7432 56.5287 24.7828 56.559 24.8482 56.559C24.9275 56.559 25.0138 56.517 25.1072 56.433C25.2005 56.3443 25.2892 56.2113 25.3732 56.034L25.4642 56.076C25.3288 56.426 25.1818 56.6803 25.0232 56.839C24.8692 56.993 24.7105 57.07 24.5472 57.07C24.3838 57.07 24.2718 57.007 24.2112 56.881C24.1505 56.755 24.1388 56.587 24.1762 56.377L24.2112 56.195H24.1832C23.7912 56.7783 23.3992 57.07 23.0072 57.07ZM22.9162 55.831C22.9162 56.125 22.9488 56.328 23.0142 56.44C23.0795 56.552 23.1868 56.608 23.3362 56.608C23.4715 56.608 23.6232 56.5403 23.7912 56.405C23.9592 56.265 24.1178 56.0807 24.2672 55.852L24.5192 54.417C24.4212 54.2863 24.3255 54.193 24.2322 54.137C24.1435 54.081 24.0408 54.053 23.9242 54.053C23.7375 54.053 23.5672 54.1347 23.4132 54.298C23.2638 54.4613 23.1425 54.6783 23.0492 54.949C22.9605 55.215 22.9162 55.509 22.9162 55.831ZM26.7657 58.68C26.6584 58.68 26.5744 58.6543 26.5137 58.603C26.453 58.5563 26.4227 58.5027 26.4227 58.442C26.4227 58.4 26.4367 58.351 26.4647 58.295L26.5627 58.085H26.6047L26.7377 58.162C26.8077 58.204 26.9034 58.225 27.0247 58.225C27.2347 58.225 27.398 58.1223 27.5147 57.917C27.636 57.7117 27.7224 57.4457 27.7737 57.119L28.2077 54.158H27.6547V53.85H28.2497L28.2917 53.57C28.3057 53.4767 28.3477 53.3553 28.4177 53.206C28.4877 53.0567 28.581 52.9003 28.6977 52.737C28.8144 52.569 28.9474 52.4103 29.0967 52.261C29.2507 52.1117 29.414 51.9903 29.5867 51.897C29.764 51.799 29.946 51.75 30.1327 51.75C30.1747 51.75 30.219 51.757 30.2657 51.771C30.3124 51.7803 30.3497 51.792 30.3777 51.806C30.4384 51.8387 30.4804 51.869 30.5037 51.897C30.527 51.9203 30.5387 51.9483 30.5387 51.981C30.5387 51.9997 30.5317 52.0253 30.5177 52.058C30.5084 52.086 30.4967 52.1117 30.4827 52.135L30.3707 52.345H30.3217L30.1607 52.268C30.044 52.2167 29.904 52.191 29.7407 52.191C29.498 52.191 29.3044 52.2937 29.1597 52.499C29.015 52.7043 28.9194 52.968 28.8727 53.29L28.7887 53.85H29.5797V54.158H28.7467L28.3477 56.853C28.3337 56.9417 28.2964 57.0607 28.2357 57.21C28.175 57.364 28.0934 57.525 27.9907 57.693C27.8927 57.861 27.7784 58.0197 27.6477 58.169C27.5217 58.3183 27.384 58.4397 27.2347 58.533C27.0854 58.631 26.929 58.68 26.7657 58.68ZM31.0117 57.07C30.6057 57.07 30.3047 56.944 30.1087 56.692C29.9173 56.44 29.8217 56.1133 29.8217 55.712C29.8217 55.4927 29.8613 55.271 29.9407 55.047C30.02 54.8183 30.1343 54.6083 30.2837 54.417C30.433 54.2257 30.6103 54.0717 30.8157 53.955C31.021 53.8383 31.2473 53.78 31.4947 53.78C31.9007 53.78 32.1993 53.906 32.3907 54.158C32.5867 54.41 32.6847 54.7367 32.6847 55.138C32.6847 55.348 32.645 55.5673 32.5657 55.796C32.491 56.02 32.379 56.23 32.2297 56.426C32.085 56.6173 31.91 56.7737 31.7047 56.895C31.4993 57.0117 31.2683 57.07 31.0117 57.07ZM31.0887 56.804C31.2893 56.804 31.4643 56.727 31.6137 56.573C31.763 56.4143 31.8773 56.2067 31.9567 55.95C32.036 55.6887 32.0757 55.404 32.0757 55.096C32.0757 54.7507 32.029 54.4893 31.9357 54.312C31.847 54.13 31.679 54.039 31.4317 54.039C31.2357 54.039 31.0607 54.1113 30.9067 54.256C30.7573 54.396 30.6407 54.592 30.5567 54.844C30.4727 55.096 30.4307 55.3923 30.4307 55.733C30.4307 56.0783 30.4773 56.3443 30.5707 56.531C30.664 56.713 30.8367 56.804 31.0887 56.804ZM33.3342 57L33.8172 54.277L33.2712 54.032V53.99L34.2582 53.78H34.2792V54.641H34.3072C34.4565 54.3657 34.5825 54.1697 34.6852 54.053C34.7925 53.9317 34.8859 53.857 34.9652 53.829C35.0492 53.7963 35.1239 53.78 35.1892 53.78C35.2732 53.78 35.3502 53.808 35.4202 53.864C35.4902 53.9153 35.5252 53.976 35.5252 54.046C35.5252 54.0693 35.5182 54.095 35.5042 54.123L35.3292 54.48H35.2872L35.2102 54.424C35.1729 54.396 35.1309 54.3773 35.0842 54.368C35.0422 54.354 35.0002 54.347 34.9582 54.347C34.8742 54.347 34.7972 54.3657 34.7272 54.403C34.6619 54.4357 34.5872 54.508 34.5032 54.62C34.4239 54.7273 34.3212 54.8907 34.1952 55.11L33.8662 57H33.3342ZM38.0313 57.07C37.8773 57.07 37.7606 57.021 37.6813 56.923C37.6019 56.825 37.5623 56.6873 37.5623 56.51C37.5623 56.4727 37.5646 56.4307 37.5693 56.384C37.5739 56.3373 37.5809 56.2907 37.5903 56.244L37.9613 54.158H37.4433V54.116L38.0383 53.85L38.6403 53.08H38.6823L38.5493 53.85H39.4243V54.158H38.4933L38.1783 55.936C38.1689 55.9967 38.1619 56.0527 38.1573 56.104C38.1526 56.1507 38.1503 56.1927 38.1503 56.23C38.1503 56.342 38.1689 56.4213 38.2063 56.468C38.2436 56.5147 38.2926 56.538 38.3533 56.538C38.4606 56.538 38.5749 56.4773 38.6963 56.356C38.8223 56.2347 38.9366 56.0597 39.0393 55.831L39.1303 55.873C38.9763 56.3163 38.8036 56.6267 38.6123 56.804C38.4256 56.9813 38.2319 57.07 38.0313 57.07ZM40.0574 57H39.5254L40.3584 52.254L39.8124 52.009V51.967L40.9604 51.757H40.9814L40.4984 54.515H40.5124C40.6758 54.333 40.8181 54.1883 40.9394 54.081C41.0654 53.9737 41.1868 53.8967 41.3034 53.85C41.4248 53.8033 41.5601 53.78 41.7094 53.78C41.9381 53.78 42.1131 53.8733 42.2344 54.06C42.3604 54.2467 42.3954 54.4987 42.3394 54.816L42.0944 56.167C42.0711 56.307 42.0664 56.4073 42.0804 56.468C42.0944 56.5287 42.1341 56.559 42.1994 56.559C42.2788 56.559 42.3651 56.517 42.4584 56.433C42.5518 56.3443 42.6404 56.2113 42.7244 56.034L42.8154 56.076C42.6801 56.426 42.5331 56.6803 42.3744 56.839C42.2204 56.993 42.0618 57.07 41.8984 57.07C41.7351 57.07 41.6231 57.007 41.5624 56.881C41.5018 56.755 41.4901 56.587 41.5274 56.377L41.8004 54.837C41.8238 54.6737 41.8028 54.529 41.7374 54.403C41.6768 54.2723 41.5438 54.207 41.3384 54.207C41.2358 54.207 41.1308 54.242 41.0234 54.312C40.9161 54.3773 40.8111 54.459 40.7084 54.557C40.6058 54.6503 40.5171 54.739 40.4424 54.823L40.0574 57ZM43.8153 57.07C43.6286 57.07 43.4769 56.9907 43.3603 56.832C43.2483 56.6687 43.1923 56.426 43.1923 56.104C43.1923 55.8147 43.2366 55.5323 43.3253 55.257C43.4186 54.9817 43.5446 54.732 43.7033 54.508C43.8666 54.284 44.0533 54.1067 44.2633 53.976C44.4733 53.8453 44.6973 53.78 44.9353 53.78C45.0519 53.78 45.1639 53.794 45.2713 53.822C45.3786 53.85 45.4743 53.8873 45.5583 53.934L45.8033 53.78H45.9783L45.5513 56.167C45.5279 56.307 45.5233 56.4073 45.5373 56.468C45.5559 56.5287 45.5956 56.559 45.6563 56.559C45.7356 56.559 45.8219 56.517 45.9153 56.433C46.0086 56.3443 46.0973 56.2113 46.1813 56.034L46.2723 56.076C46.1369 56.426 45.9899 56.6803 45.8313 56.839C45.6773 56.993 45.5186 57.07 45.3553 57.07C45.1919 57.07 45.0799 57.007 45.0193 56.881C44.9586 56.755 44.9469 56.587 44.9843 56.377L45.0193 56.195H44.9913C44.8139 56.4657 44.6273 56.6803 44.4313 56.839C44.2353 56.993 44.0299 57.07 43.8153 57.07ZM43.7243 55.831C43.7243 56.0923 43.7523 56.2883 43.8083 56.419C43.8689 56.545 43.9809 56.608 44.1443 56.608C44.2563 56.608 44.3683 56.5707 44.4803 56.496C44.5923 56.4213 44.6996 56.3257 44.8023 56.209C44.9049 56.0923 44.9959 55.9733 45.0753 55.852L45.3343 54.41C45.2456 54.2933 45.1546 54.2047 45.0613 54.144C44.9726 54.0833 44.8629 54.053 44.7323 54.053C44.5316 54.053 44.3543 54.1393 44.2003 54.312C44.0509 54.4847 43.9343 54.7063 43.8503 54.977C43.7663 55.2477 43.7243 55.5323 43.7243 55.831ZM47.3281 57.07C47.1741 57.07 47.0575 57.021 46.9781 56.923C46.8988 56.825 46.8591 56.6873 46.8591 56.51C46.8591 56.4727 46.8615 56.4307 46.8661 56.384C46.8708 56.3373 46.8778 56.2907 46.8871 56.244L47.2581 54.158H46.7401V54.116L47.3351 53.85L47.9371 53.08H47.9791L47.8461 53.85H48.7211V54.158H47.7901L47.4751 55.936C47.4658 55.9967 47.4588 56.0527 47.4541 56.104C47.4495 56.1507 47.4471 56.1927 47.4471 56.23C47.4471 56.342 47.4658 56.4213 47.5031 56.468C47.5405 56.5147 47.5895 56.538 47.6501 56.538C47.7575 56.538 47.8718 56.4773 47.9931 56.356C48.1191 56.2347 48.2335 56.0597 48.3361 55.831L48.4271 55.873C48.2731 56.3163 48.1005 56.6267 47.9091 56.804C47.7225 56.9813 47.5288 57.07 47.3281 57.07ZM51.3933 57.07C51.2206 57.07 51.0783 57.0023 50.9663 56.867C50.8589 56.7317 50.8053 56.5473 50.8053 56.314C50.8053 56.2673 50.8076 56.2207 50.8123 56.174C50.8216 56.1273 50.8286 56.0807 50.8333 56.034L51.1483 54.277L50.6023 54.032V53.99L51.7223 53.78H51.7503L51.3863 55.922C51.3676 56.0387 51.3583 56.1227 51.3583 56.174C51.3583 56.3047 51.3886 56.4167 51.4493 56.51C51.5146 56.5987 51.6196 56.643 51.7643 56.643C51.8623 56.643 51.9603 56.608 52.0583 56.538C52.1609 56.468 52.2589 56.384 52.3523 56.286C52.4456 56.188 52.5296 56.097 52.6043 56.013L52.9053 54.277L52.4223 54.032V53.99L53.4863 53.78H53.5143L53.0943 56.167C53.0709 56.307 53.0663 56.4073 53.0803 56.468C53.0989 56.5287 53.1433 56.559 53.2133 56.559C53.2926 56.559 53.3789 56.517 53.4723 56.433C53.5656 56.3443 53.6543 56.2113 53.7383 56.034L53.8293 56.076C53.6939 56.426 53.5469 56.6803 53.3883 56.839C53.2343 56.993 53.0756 57.07 52.9123 57.07C52.7489 57.07 52.6369 57.007 52.5763 56.881C52.5203 56.755 52.5086 56.587 52.5413 56.377L52.5483 56.335H52.5273C52.3686 56.5123 52.2309 56.6547 52.1143 56.762C51.9976 56.8693 51.8833 56.9487 51.7713 57C51.6639 57.0467 51.5379 57.07 51.3933 57.07ZM54.9245 57.07C54.6865 57.07 54.4928 57.0373 54.3435 56.972C54.1942 56.902 54.0868 56.8157 54.0215 56.713C53.9935 56.671 53.9748 56.636 53.9655 56.608C53.9562 56.58 53.9515 56.5497 53.9515 56.517C53.9515 56.489 53.9562 56.461 53.9655 56.433C53.9748 56.4003 53.9982 56.3747 54.0355 56.356L54.1895 56.272H54.2385L54.3575 56.475C54.4275 56.5917 54.5208 56.6803 54.6375 56.741C54.7542 56.797 54.8708 56.825 54.9875 56.825C55.1648 56.825 55.3095 56.7783 55.4215 56.685C55.5382 56.5917 55.5965 56.4563 55.5965 56.279C55.5965 56.097 55.5358 55.957 55.4145 55.859C55.2978 55.761 55.1648 55.6677 55.0155 55.579C54.8382 55.4717 54.7052 55.3737 54.6165 55.285C54.5278 55.1963 54.4672 55.1053 54.4345 55.012C54.4018 54.9187 54.3855 54.8067 54.3855 54.676C54.3855 54.5407 54.4368 54.4053 54.5395 54.27C54.6422 54.13 54.7775 54.0133 54.9455 53.92C55.1135 53.8267 55.2908 53.78 55.4775 53.78C55.6828 53.78 55.8438 53.8127 55.9605 53.878C56.0772 53.9387 56.1682 54.018 56.2335 54.116C56.2755 54.1813 56.2965 54.242 56.2965 54.298C56.2965 54.3307 56.2872 54.3633 56.2685 54.396C56.2545 54.4287 56.2312 54.4543 56.1985 54.473L56.0655 54.543H56.0165L55.8625 54.326C55.7972 54.2327 55.7225 54.1627 55.6385 54.116C55.5592 54.0647 55.4588 54.039 55.3375 54.039C55.2022 54.039 55.0855 54.081 54.9875 54.165C54.8942 54.2443 54.8475 54.3493 54.8475 54.48C54.8475 54.6293 54.8918 54.753 54.9805 54.851C55.0738 54.949 55.1812 55.033 55.3025 55.103C55.4705 55.201 55.6082 55.2943 55.7155 55.383C55.8275 55.4717 55.9115 55.572 55.9675 55.684C56.0235 55.796 56.0515 55.9383 56.0515 56.111C56.0515 56.2743 56.0025 56.4307 55.9045 56.58C55.8065 56.7247 55.6712 56.8437 55.4985 56.937C55.3305 57.0257 55.1392 57.07 54.9245 57.07ZM57.7983 57.07C57.4389 57.07 57.1753 56.972 57.0073 56.776C56.8393 56.5753 56.7553 56.3047 56.7553 55.964C56.7553 55.6887 56.7996 55.4227 56.8883 55.166C56.9816 54.9047 57.1076 54.6713 57.2663 54.466C57.4296 54.256 57.6163 54.0903 57.8263 53.969C58.0409 53.843 58.2719 53.78 58.5193 53.78C58.7526 53.78 58.9276 53.8337 59.0443 53.941C59.1656 54.0483 59.2263 54.1743 59.2263 54.319C59.2263 54.4777 59.1703 54.6247 59.0583 54.76C58.9463 54.8907 58.7503 55.012 58.4703 55.124C58.1949 55.2313 57.8053 55.327 57.3013 55.411C57.2919 55.5043 57.2873 55.6023 57.2873 55.705C57.2873 55.9897 57.3479 56.216 57.4693 56.384C57.5906 56.552 57.7819 56.636 58.0433 56.636C58.1973 56.636 58.3489 56.594 58.4983 56.51C58.6476 56.426 58.8016 56.2883 58.9603 56.097H58.9743L59.0443 56.153C58.8856 56.4283 58.6943 56.65 58.4703 56.818C58.2509 56.986 58.0269 57.07 57.7983 57.07ZM58.3303 54.025C58.0783 54.025 57.8636 54.13 57.6863 54.34C57.5136 54.5453 57.3969 54.8183 57.3363 55.159C57.6863 55.0983 57.9593 55.033 58.1553 54.963C58.3513 54.893 58.4889 54.8113 58.5683 54.718C58.6476 54.62 58.6873 54.4987 58.6873 54.354C58.6873 54.2607 58.6569 54.1837 58.5963 54.123C58.5356 54.0577 58.4469 54.025 58.3303 54.025ZM59.8098 57L60.2928 54.277L59.7468 54.032V53.99L60.7338 53.78H60.7548V54.641H60.7828C60.9321 54.3657 61.0581 54.1697 61.1608 54.053C61.2681 53.9317 61.3615 53.857 61.4408 53.829C61.5248 53.7963 61.5995 53.78 61.6648 53.78C61.7488 53.78 61.8258 53.808 61.8958 53.864C61.9658 53.9153 62.0008 53.976 62.0008 54.046C62.0008 54.0693 61.9938 54.095 61.9798 54.123L61.8048 54.48H61.7628L61.6858 54.424C61.6485 54.396 61.6065 54.3773 61.5598 54.368C61.5178 54.354 61.4758 54.347 61.4338 54.347C61.3498 54.347 61.2728 54.3657 61.2028 54.403C61.1375 54.4357 61.0628 54.508 60.9788 54.62C60.8995 54.7273 60.7968 54.8907 60.6708 55.11L60.3418 57H59.8098Z" fill="black"/>
</svg>
