<svg width="79" height="56" viewBox="0 0 79 56" fill="none" xmlns="http://www.w3.org/2000/svg">
<path d="M58 10.5V17.2101" stroke="black" stroke-width="0.25" stroke-dasharray="0.5 0.5"/>
<path d="M40.3288 7.07955C41.3629 7.07955 42.0589 6.29403 42.0589 5.1108C42.0589 3.91761 41.3629 3.1321 40.3288 3.1321C39.2947 3.1321 38.5987 3.91761 38.5987 5.1108C38.5987 6.29403 39.2947 7.07955 40.3288 7.07955ZM40.3288 6.55256C39.5433 6.55256 39.1853 5.87642 39.1853 5.1108C39.1853 4.34517 39.5433 3.65909 40.3288 3.65909C41.1143 3.65909 41.4723 4.34517 41.4723 5.1108C41.4723 5.87642 41.1143 6.55256 40.3288 6.55256ZM42.9544 8.43182H43.5411V6.41335H43.5908C43.72 6.62216 43.9686 7.07955 44.7044 7.07955C45.659 7.07955 46.3252 6.31392 46.3252 5.10085C46.3252 3.89773 45.659 3.1321 44.6945 3.1321C43.9487 3.1321 43.72 3.58949 43.5908 3.78835H43.5212V3.18182H42.9544V8.43182ZM43.5311 5.09091C43.5311 4.2358 43.909 3.65909 44.6249 3.65909C45.3706 3.65909 45.7385 4.28551 45.7385 5.09091C45.7385 5.90625 45.3607 6.55256 44.6249 6.55256C43.9189 6.55256 43.5311 5.95597 43.5311 5.09091ZM48.8209 7.07955C49.5965 7.07955 50.1632 6.69176 50.3422 6.11506L49.7754 5.95597C49.6263 6.35369 49.2808 6.55256 48.8209 6.55256C48.1323 6.55256 47.6575 6.1076 47.6302 5.28977H50.4019V5.04119C50.4019 3.61932 49.5567 3.1321 48.7612 3.1321C47.7271 3.1321 47.0411 3.94744 47.0411 5.12074C47.0411 6.29403 47.7172 7.07955 48.8209 7.07955ZM47.6302 4.78267C47.67 4.18857 48.0901 3.65909 48.7612 3.65909C49.3976 3.65909 49.8053 4.13636 49.8053 4.78267H47.6302ZM51.8809 4.70312C51.8809 4.03693 52.2935 3.65909 52.8553 3.65909C53.3997 3.65909 53.7303 4.01456 53.7303 4.61364V7H54.317V4.57386C54.317 3.59943 53.7975 3.1321 53.0244 3.1321C52.4477 3.1321 52.0897 3.39062 51.9107 3.77841H51.861V3.18182H51.2943V7H51.8809V4.70312ZM58.9586 7.07955C59.7342 7.07955 60.3009 6.69176 60.4799 6.11506L59.9131 5.95597C59.764 6.35369 59.4185 6.55256 58.9586 6.55256C58.27 6.55256 57.7952 6.1076 57.7679 5.28977H60.5396V5.04119C60.5396 3.61932 59.6944 3.1321 58.8989 3.1321C57.8648 3.1321 57.1788 3.94744 57.1788 5.12074C57.1788 6.29403 57.8549 7.07955 58.9586 7.07955ZM57.7679 4.78267C57.8077 4.18857 58.2278 3.65909 58.8989 3.65909C59.5353 3.65909 59.943 4.13636 59.943 4.78267H57.7679ZM62.0186 4.70312C62.0186 4.03693 62.4312 3.65909 62.993 3.65909C63.5374 3.65909 63.868 4.01456 63.868 4.61364V7H64.4547V4.57386C64.4547 3.59943 63.9351 3.1321 63.1621 3.1321C62.5854 3.1321 62.2274 3.39062 62.0484 3.77841H61.9987V3.18182H61.432V7H62.0186V4.70312ZM66.9684 7.07955C67.7042 7.07955 67.9528 6.62216 68.0821 6.41335H68.1517V7H68.7184V1.90909H68.1318V3.78835H68.0821C67.9528 3.58949 67.7241 3.1321 66.9784 3.1321C66.0139 3.1321 65.3477 3.89773 65.3477 5.10085C65.3477 6.31392 66.0139 7.07955 66.9684 7.07955ZM67.048 6.55256C66.3122 6.55256 65.9343 5.90625 65.9343 5.09091C65.9343 4.28551 66.3022 3.65909 67.048 3.65909C67.7639 3.65909 68.1417 4.2358 68.1417 5.09091C68.1417 5.95597 67.754 6.55256 67.048 6.55256ZM71.4752 7.07955C72.2508 7.07955 72.8175 6.69176 72.9965 6.11506L72.4297 5.95597C72.2806 6.35369 71.9351 6.55256 71.4752 6.55256C70.7866 6.55256 70.3118 6.1076 70.2845 5.28977H73.0562V5.04119C73.0562 3.61932 72.211 3.1321 71.4155 3.1321C70.3814 3.1321 69.6954 3.94744 69.6954 5.12074C69.6954 6.29403 70.3715 7.07955 71.4752 7.07955ZM70.2845 4.78267C70.3243 4.18857 70.7444 3.65909 71.4155 3.65909C72.0519 3.65909 72.4596 4.13636 72.4596 4.78267H70.2845ZM75.3903 7.07955C76.1261 7.07955 76.3747 6.62216 76.504 6.41335H76.5736V7L77.1403 7V1.90909H76.5537V3.78835H76.504C76.3747 3.58949 76.146 3.1321 75.4003 3.1321C74.4358 3.1321 73.7696 3.89773 73.7696 5.10085C73.7696 6.31392 74.4358 7.07955 75.3903 7.07955ZM75.4699 6.55256C74.7341 6.55256 74.3562 5.90625 74.3562 5.09091C74.3562 4.28551 74.7241 3.65909 75.4699 3.65909C76.1858 3.65909 76.5636 4.2358 76.5636 5.09091C76.5636 5.95597 76.1758 6.55256 75.4699 6.55256Z" fill="black"/>
<path d="M8.19629 8.51136C9.11106 8.51136 9.84686 8.09375 9.84686 7.10938V3.18182H9.2801V3.78835H9.22044C9.09118 3.58949 8.85254 3.1321 8.1068 3.1321C7.14231 3.1321 6.47612 3.89773 6.47612 5.07102C6.47612 6.2642 7.17214 6.94034 8.09686 6.94034C8.8426 6.94034 9.08123 6.50284 9.21049 6.29403H9.26021V7.0696C9.26021 7.70597 8.81277 7.99432 8.19629 7.99432C7.50275 7.99432 7.25914 7.62891 7.10254 7.41761L6.63521 7.74574C6.87385 8.14595 7.34366 8.51136 8.19629 8.51136ZM8.1764 6.41335C7.44061 6.41335 7.06277 5.85653 7.06277 5.06108C7.06277 4.28551 7.43066 3.65909 8.1764 3.65909C8.89231 3.65909 9.27015 4.2358 9.27015 5.06108C9.27015 5.90625 8.88237 6.41335 8.1764 6.41335ZM13.327 5.43892C13.327 6.15483 12.7801 6.48295 12.3426 6.48295C11.8554 6.48295 11.5074 6.125 11.5074 5.56818V3.18182H10.9207V5.60795C10.9207 6.58239 11.4378 7.04972 12.1537 7.04972C12.7304 7.04972 13.1082 6.74148 13.2872 6.35369H13.327V7L13.9136 7V3.18182H13.327V5.43892ZM14.9881 7H15.5748V3.18182H14.9881V7ZM15.2864 2.54545C15.5151 2.54545 15.704 2.36648 15.704 2.14773C15.704 1.92898 15.5151 1.75 15.2864 1.75C15.0577 1.75 14.8688 1.92898 14.8688 2.14773C14.8688 2.36648 15.0577 2.54545 15.2864 2.54545ZM18.091 7.07955C18.8268 7.07955 19.0754 6.62216 19.2046 6.41335H19.2742V7H19.841V1.90909L19.2544 1.90909V3.78835H19.2046C19.0754 3.58949 18.8467 3.1321 18.1009 3.1321C17.1365 3.1321 16.4703 3.89773 16.4703 5.10085C16.4703 6.31392 17.1365 7.07955 18.091 7.07955ZM18.1705 6.55256C17.4347 6.55256 17.0569 5.90625 17.0569 5.09091C17.0569 4.28551 17.4248 3.65909 18.1705 3.65909C18.8865 3.65909 19.2643 4.2358 19.2643 5.09091C19.2643 5.95597 18.8765 6.55256 18.1705 6.55256ZM22.5977 7.07955C23.3733 7.07955 23.9401 6.69176 24.1191 6.11506L23.5523 5.95597C23.4031 6.35369 23.0576 6.55256 22.5977 6.55256C21.9092 6.55256 21.4344 6.1076 21.407 5.28977H24.1787V5.04119C24.1787 3.61932 23.3335 3.1321 22.5381 3.1321C21.504 3.1321 20.8179 3.94744 20.8179 5.12074C20.8179 6.29403 21.4941 7.07955 22.5977 7.07955ZM21.407 4.78267C21.4468 4.18857 21.8669 3.65909 22.5381 3.65909C23.1744 3.65909 23.5821 4.13636 23.5821 4.78267H21.407ZM26.5129 7.07955C27.2487 7.07955 27.4972 6.62216 27.6265 6.41335H27.6961V7H28.2629V1.90909H27.6762V3.78835H27.6265C27.4972 3.58949 27.2686 3.1321 26.5228 3.1321C25.5583 3.1321 24.8921 3.89773 24.8921 5.10085C24.8921 6.31392 25.5583 7.07955 26.5129 7.07955ZM26.5924 6.55256C25.8566 6.55256 25.4788 5.90625 25.4788 5.09091C25.4788 4.28551 25.8467 3.65909 26.5924 3.65909C27.3083 3.65909 27.6862 4.2358 27.6862 5.09091C27.6862 5.95597 27.2984 6.55256 26.5924 6.55256Z" fill="black"/>
<path d="M18 10.5L18 17.2101" stroke="black" stroke-width="0.25" stroke-dasharray="0.5 0.5"/>
<path d="M39 25H1V17H39" fill="black"/>
<path d="M39 25H1V17H39" stroke="black" stroke-width="0.5" stroke-miterlimit="10"/>
<path d="M39 17H77V25H39" fill="#FAFAFA"/>
<path d="M39 17H77V25H39" stroke="black" stroke-width="0.5" stroke-miterlimit="10"/>
<path d="M59 38L59 46" stroke="black" stroke-width="0.25" stroke-dasharray="0.5 0.5"/>
<path d="M50.9417 47.9091V52.1648C50.9417 52.7092 51.2201 53.0298 51.7769 53.0298C51.946 53.0298 52.1125 53 52.2144 52.9702L52.0951 52.4631C52.038 52.4805 51.9858 52.4979 51.8465 52.5028C51.588 52.5103 51.5284 52.3761 51.5284 52.0057V47.9091H50.9417ZM52.7532 53H53.3399V49.1818H52.7532V53ZM53.0515 48.5455C53.2802 48.5455 53.4691 48.3665 53.4691 48.1477C53.4691 47.929 53.2802 47.75 53.0515 47.75C52.8228 47.75 52.6339 47.929 52.6339 48.1477C52.6339 48.3665 52.8228 48.5455 53.0515 48.5455ZM55.001 50.7031C55.001 50.0369 55.4137 49.6591 55.9755 49.6591C56.5198 49.6591 56.8505 50.0146 56.8505 50.6136V53H57.4371V50.5739C57.4371 49.5994 56.9176 49.1321 56.1445 49.1321C55.5678 49.1321 55.2098 49.3906 55.0309 49.7784H54.9811V49.1818H54.4144V53H55.001V50.7031ZM60.11 53.0795C60.8855 53.0795 61.4523 52.6918 61.6313 52.1151L61.0645 51.956C60.9153 52.3537 60.5698 52.5526 60.11 52.5526C59.4214 52.5526 58.9466 52.1076 58.9193 51.2898H61.6909V51.0412C61.6909 49.6193 60.8457 49.1321 60.0503 49.1321C59.0162 49.1321 58.3301 49.9474 58.3301 51.1207C58.3301 52.294 59.0063 53.0795 60.11 53.0795ZM58.9193 50.7827C58.959 50.1886 59.3791 49.6591 60.0503 49.6591C60.6867 49.6591 61.0943 50.1364 61.0943 50.7827H58.9193ZM63.7069 53.0895C64.3731 53.0895 64.7211 52.7315 64.8404 52.483H64.8703V53H65.4569V50.4844C65.4569 49.2713 64.5322 49.1321 64.045 49.1321C63.4683 49.1321 62.812 49.331 62.5137 50.027L63.0705 50.2259C63.1998 49.9474 63.5055 49.6491 64.0649 49.6491C64.6043 49.6491 64.8703 49.935 64.8703 50.4247V50.4446C64.8703 50.728 64.5819 50.7031 63.8859 50.7926C63.1774 50.8846 62.4043 51.0412 62.4043 51.9162C62.4043 52.6619 62.981 53.0895 63.7069 53.0895ZM63.7964 52.5625C63.3291 52.5625 62.991 52.3537 62.991 51.946C62.991 51.4986 63.3987 51.3594 63.856 51.2997C64.1046 51.2699 64.7708 51.2003 64.8703 51.081V51.6179C64.8703 52.0952 64.4924 52.5625 63.7964 52.5625ZM66.5277 53H67.1143V50.5838C67.1143 50.0668 67.522 49.6889 68.0788 49.6889C68.2354 49.6889 68.397 49.7188 68.4367 49.7287V49.1321C68.3696 49.1271 68.2155 49.1222 68.1285 49.1222C67.6711 49.1222 67.2734 49.3807 67.1342 49.7585H67.0944V49.1818H66.5277V53Z" fill="black"/>
<path d="M8.03596 53H8.6226V49.1818H8.03596V53ZM8.33425 48.5455C8.56294 48.5455 8.75186 48.3665 8.75186 48.1477C8.75186 47.929 8.56294 47.75 8.33425 47.75C8.10556 47.75 7.91664 47.929 7.91664 48.1477C7.91664 48.3665 8.10556 48.5455 8.33425 48.5455ZM11.3576 49.1818H10.5423V48.267H9.95561V49.1818H9.37891V49.679H9.95561V52.0653C9.95561 52.7315 10.4925 53.0497 10.9897 53.0497C11.2085 53.0497 11.3477 53.0099 11.4272 52.9801L11.3079 52.4531C11.2582 52.4631 11.1786 52.483 11.0494 52.483C10.7908 52.483 10.5423 52.4034 10.5423 51.9062V49.679H11.3576V49.1818ZM13.8409 53.0795C14.6165 53.0795 15.1832 52.6918 15.3622 52.1151L14.7955 51.956C14.6463 52.3537 14.3008 52.5526 13.8409 52.5526C13.1523 52.5526 12.6776 52.1076 12.6502 51.2898H15.4219V51.0412C15.4219 49.6193 14.5767 49.1321 13.7812 49.1321C12.7472 49.1321 12.0611 49.9474 12.0611 51.1207C12.0611 52.294 12.7372 53.0795 13.8409 53.0795ZM12.6502 50.7827C12.69 50.1886 13.1101 49.6591 13.7812 49.6591C14.4176 49.6591 14.8253 50.1364 14.8253 50.7827H12.6502ZM16.3143 53H16.9009V50.5838C16.9009 50.0668 17.3086 49.6889 17.8654 49.6889C18.022 49.6889 18.1836 49.7188 18.2234 49.7287V49.1321C18.1562 49.1271 18.0021 49.1222 17.9151 49.1222C17.4577 49.1222 17.06 49.3807 16.9208 49.7585H16.881V49.1818H16.3143V53ZM20.0423 53.0895C20.7085 53.0895 21.0566 52.7315 21.1759 52.483H21.2057V53H21.7923V50.4844C21.7923 49.2713 20.8676 49.1321 20.3804 49.1321C19.8037 49.1321 19.1475 49.331 18.8492 50.027L19.406 50.2259C19.5352 49.9474 19.841 49.6491 20.4003 49.6491C20.9397 49.6491 21.2057 49.935 21.2057 50.4247V50.4446C21.2057 50.728 20.9173 50.7031 20.2213 50.7926C19.5129 50.8846 18.7398 51.0412 18.7398 51.9162C18.7398 52.6619 19.3165 53.0895 20.0423 53.0895ZM20.1318 52.5625C19.6645 52.5625 19.3264 52.3537 19.3264 51.946C19.3264 51.4986 19.7341 51.3594 20.1915 51.2997C20.4401 51.2699 21.1063 51.2003 21.2057 51.081V51.6179C21.2057 52.0952 20.8279 52.5625 20.1318 52.5625ZM24.5236 49.1818H23.7083V48.267H23.1216V49.1818H22.5449V49.679H23.1216V52.0653C23.1216 52.7315 23.6586 53.0497 24.1557 53.0497C24.3745 53.0497 24.5137 53.0099 24.5932 52.9801L24.4739 52.4531C24.4242 52.4631 24.3446 52.483 24.2154 52.483C23.9569 52.483 23.7083 52.4034 23.7083 51.9062V49.679H24.5236V49.1818ZM25.4061 53H25.9927V49.1818H25.4061V53ZM25.7044 48.5455C25.9331 48.5455 26.122 48.3665 26.122 48.1477C26.122 47.929 25.9331 47.75 25.7044 47.75C25.4757 47.75 25.2868 47.929 25.2868 48.1477C25.2868 48.3665 25.4757 48.5455 25.7044 48.5455ZM30.1894 49.1818H29.553L28.499 52.2244H28.4593L27.4053 49.1818H26.7689L28.1808 53H28.7774L30.1894 49.1818ZM32.5645 53.0795C33.3401 53.0795 33.9069 52.6918 34.0858 52.1151L33.5191 51.956C33.3699 52.3537 33.0244 52.5526 32.5645 52.5526C31.876 52.5526 31.4012 52.1076 31.3738 51.2898H34.1455V51.0412C34.1455 49.6193 33.3003 49.1321 32.5049 49.1321C31.4708 49.1321 30.7847 49.9474 30.7847 51.1207C30.7847 52.294 31.4608 53.0795 32.5645 53.0795ZM31.3738 50.7827C31.4136 50.1886 31.8337 49.6591 32.5049 49.6591C33.1412 49.6591 33.5489 50.1364 33.5489 50.7827H31.3738Z" fill="black"/>
<path d="M20 38L20 46" stroke="black" stroke-width="0.25" stroke-dasharray="0.5 0.5"/>
<path d="M1 56V38H39" stroke="black" stroke-width="1.5" stroke-miterlimit="10"/>
<path d="M38 38H78V56" stroke="black" stroke-width="0.5" stroke-miterlimit="10"/>
</svg>
